<svg xmlns="http://www.w3.org/2000/svg" viewBox="0 0 1200 900" preserveAspectRatio="xMidYMid slice">
  <defs><radialGradient id="vignette" cx="50%" cy="50%" r="70%"><stop offset="0%" stop-color="#cda472" stop-opacity="1"/><stop offset="100%" stop-color="#cda472" stop-opacity="0.55"/></radialGradient><filter id="blur" x="-20%" y="-20%" width="140%" height="140%"><feGaussianBlur stdDeviation="0.5"/></filter></defs><rect width="1200" height="900" fill="url(#vignette)"/>
  <polygon points="64.8,372.8 55.6,392.6 34.4,383.9 33.8,366.2 52.0,353.7" fill="#7a5828" opacity="0.31" filter="url(#blur)"/>
  <polygon points="441.8,467.0 438.8,473.1 432.1,476.8 427.1,471.4 424.8,464.5 431.3,460.6 438.9,461.9" fill="#7a5828" opacity="0.34" filter="url(#blur)"/>
  <polygon points="1074.5,528.0 1065.5,548.3 1041.1,547.8 1028.3,531.9 1038.5,509.7 1062.1,513.6" fill="#bf9560" opacity="0.27" filter="url(#blur)"/>
  <polygon points="1109.9,201.0 1105.1,208.0 1099.7,208.8 1092.8,206.3 1088.3,199.9 1094.0,193.1 1096.9,189.0 1107.2,191.6" fill="#9c7642" opacity="0.26" filter="url(#blur)"/>
  <polygon points="484.4,262.6 481.5,272.3 467.4,277.3 458.3,267.0 456.0,254.2 467.8,243.8 479.4,247.6" fill="#7a5828" opacity="0.40" filter="url(#blur)"/>
  <polygon points="658.1,190.7 657.0,197.7 645.4,197.5 644.4,188.7 645.2,182.7 654.9,183.0" fill="#8c6638" opacity="0.53" filter="url(#blur)"/>
  <polygon points="568.0,769.6 566.2,774.6 561.8,776.7 558.0,773.0 556.5,769.2 558.9,765.9 561.6,763.1 566.8,766.8" fill="#6e4e22" opacity="0.33" filter="url(#blur)"/>
  <polygon points="37.9,327.5 34.9,333.7 28.6,334.1 22.9,332.1 22.0,326.2 24.5,321.9 30.2,320.4 34.5,322.3" fill="#8c6638" opacity="0.38" filter="url(#blur)"/>
  <polygon points="1155.3,6.0 1147.0,12.8 1140.4,9.6 1139.8,2.7 1147.1,-1.1" fill="#8c6638" opacity="0.42" filter="url(#blur)"/>
  <polygon points="70.0,703.0 64.7,710.6 54.2,715.7 41.6,711.3 38.1,701.1 36.8,688.0 51.2,686.5 61.8,689.2" fill="#9c7642" opacity="0.36" filter="url(#blur)"/>
  <polygon points="243.3,161.7 237.9,171.5 231.8,173.0 221.3,166.1 224.1,156.6 229.2,152.0 239.7,155.1" fill="#8c6638" opacity="0.48" filter="url(#blur)"/>
  <polygon points="289.8,355.3 278.1,368.4 266.9,368.5 260.5,359.4 265.4,346.2 280.4,343.0" fill="#9c7642" opacity="0.42" filter="url(#blur)"/>
  <polygon points="345.7,895.0 338.5,903.0 327.7,905.0 317.5,902.7 319.1,888.1 329.8,883.2 340.2,881.2" fill="#a8814a" opacity="0.29" filter="url(#blur)"/>
  <polygon points="719.0,233.6 708.5,241.1 693.9,251.2 686.0,243.3 678.4,229.6 678.2,214.2 693.4,208.5 712.8,213.1" fill="#9c7642" opacity="0.50" filter="url(#blur)"/>
  <polygon points="7.9,76.5 3.3,87.4 -8.4,84.2 -7.0,72.0 3.9,70.1" fill="#9c7642" opacity="0.29" filter="url(#blur)"/>
  <polygon points="723.0,118.2 716.6,129.3 704.2,124.4 705.5,115.2 715.3,111.8" fill="#6e4e22" opacity="0.48" filter="url(#blur)"/>
  <polygon points="204.3,163.3 197.9,174.1 181.7,178.5 175.9,170.3 175.4,157.7 182.0,151.9 195.7,152.3" fill="#6e4e22" opacity="0.47" filter="url(#blur)"/>
  <polygon points="170.0,234.3 166.3,238.5 162.1,241.6 159.5,239.2 156.8,235.1 160.0,229.4 163.9,228.6 166.9,229.2" fill="#bf9560" opacity="0.39" filter="url(#blur)"/>
  <polygon points="81.1,810.7 80.3,822.0 65.8,819.1 58.8,811.3 64.8,801.3 78.7,801.0" fill="#7a5828" opacity="0.49" filter="url(#blur)"/>
  <polygon points="791.9,451.7 781.5,464.2 768.6,466.0 761.3,447.1 767.8,437.1 786.5,433.3" fill="#8c6638" opacity="0.54" filter="url(#blur)"/>
  <polygon points="233.2,889.8 225.9,899.2 213.1,892.5 212.8,883.1 226.5,878.4" fill="#a8814a" opacity="0.40" filter="url(#blur)"/>
  <polygon points="315.6,629.9 307.3,639.5 299.2,634.4 298.4,625.7 307.2,622.9" fill="#8c6638" opacity="0.48" filter="url(#blur)"/>
  <polygon points="649.5,22.8 646.1,28.0 639.3,27.1 635.6,22.8 640.7,16.6 646.6,15.8" fill="#7a5828" opacity="0.27" filter="url(#blur)"/>
  <polygon points="889.2,754.8 882.1,767.8 874.1,769.5 861.9,768.0 855.1,753.5 862.1,739.1 872.8,741.5 881.7,744.5" fill="#7a5828" opacity="0.30" filter="url(#blur)"/>
  <polygon points="743.1,270.7 740.3,274.4 735.7,278.8 731.4,275.7 729.0,272.2 732.1,267.3 735.2,265.4 740.7,264.8" fill="#bf9560" opacity="0.38" filter="url(#blur)"/>
  <polygon points="645.3,455.3 645.2,460.6 641.0,461.0 634.7,461.0 632.8,456.6 636.7,451.6 639.3,449.9 644.1,451.8" fill="#a8814a" opacity="0.43" filter="url(#blur)"/>
  <polygon points="1113.7,9.6 1099.8,30.6 1080.8,20.4 1081.7,3.2 1097.6,-6.3" fill="#8c6638" opacity="0.39" filter="url(#blur)"/>
  <polygon points="1073.1,510.2 1064.1,527.9 1052.9,527.3 1037.8,519.8 1040.6,507.7 1047.5,496.0 1062.6,496.3" fill="#8c6638" opacity="0.45" filter="url(#blur)"/>
  <polygon points="61.4,254.1 56.2,265.6 43.6,265.1 35.5,258.7 34.0,246.0 44.9,241.9 54.4,245.8" fill="#a8814a" opacity="0.30" filter="url(#blur)"/>
  <polygon points="208.0,504.6 203.6,513.4 198.8,511.7 193.2,505.7 196.0,500.0 205.3,499.6" fill="#6e4e22" opacity="0.54" filter="url(#blur)"/>
  <polygon points="1100.1,485.2 1092.6,494.8 1083.1,490.5 1083.9,482.5 1094.9,478.5" fill="#bf9560" opacity="0.53" filter="url(#blur)"/>
  <polygon points="653.1,170.0 640.2,195.9 615.1,183.1 617.2,157.9 637.3,154.1" fill="#a8814a" opacity="0.51" filter="url(#blur)"/>
  <polygon points="261.5,73.3 251.6,94.3 231.8,96.8 219.1,84.1 220.2,65.6 231.1,57.4 252.5,57.4" fill="#bf9560" opacity="0.44" filter="url(#blur)"/>
  <polygon points="1170.7,694.0 1162.4,707.9 1151.0,708.0 1140.5,701.7 1139.7,691.8 1154.5,684.4 1166.3,685.9" fill="#9c7642" opacity="0.30" filter="url(#blur)"/>
  <polygon points="44.2,603.5 30.1,624.8 12.4,617.9 -1.3,604.5 12.0,577.5 29.3,579.6" fill="#bf9560" opacity="0.31" filter="url(#blur)"/>
  <polygon points="1150.3,2.8 1144.7,12.9 1137.7,15.9 1127.3,8.6 1127.2,-3.3 1137.4,-9.8 1145.7,-7.6" fill="#bf9560" opacity="0.36" filter="url(#blur)"/>
  <polygon points="847.3,5.7 837.7,19.2 830.7,22.3 816.3,20.3 813.4,8.3 817.6,-8.5 831.1,-9.2 838.8,-4.7" fill="#8c6638" opacity="0.40" filter="url(#blur)"/>
  <polygon points="630.5,287.0 621.7,299.0 610.5,300.4 600.5,286.1 608.2,278.3 621.5,276.2" fill="#bf9560" opacity="0.34" filter="url(#blur)"/>
  <polygon points="1046.0,602.7 1029.8,634.3 1004.9,622.4 1005.5,584.8 1038.2,581.9" fill="#9c7642" opacity="0.26" filter="url(#blur)"/>
  <polygon points="221.3,759.7 217.8,766.8 210.0,767.9 207.2,760.2 208.9,751.4 216.9,751.0" fill="#8c6638" opacity="0.55" filter="url(#blur)"/>
  <polygon points="1151.1,656.1 1144.4,661.5 1136.3,666.7 1131.0,663.5 1125.1,656.7 1126.4,645.9 1136.1,644.9 1147.7,647.0" fill="#6e4e22" opacity="0.37" filter="url(#blur)"/>
  <polygon points="673.8,897.5 670.1,906.9 660.4,906.0 652.2,905.3 653.1,891.7 660.2,886.1 668.4,892.2" fill="#6e4e22" opacity="0.42" filter="url(#blur)"/>
  <polygon points="955.9,410.5 944.8,422.7 931.0,428.3 917.9,421.0 914.6,409.0 918.1,388.5 932.0,383.6 952.8,387.4" fill="#8c6638" opacity="0.35" filter="url(#blur)"/>
  <polygon points="312.9,356.1 296.9,370.5 277.5,368.5 275.7,351.0 282.0,338.7 297.1,338.4" fill="#6e4e22" opacity="0.28" filter="url(#blur)"/>
  <polygon points="552.3,22.9 541.7,39.3 524.7,41.8 513.4,27.7 525.3,6.8 538.6,8.2" fill="#bf9560" opacity="0.36" filter="url(#blur)"/>
  <polygon points="379.7,598.9 376.0,605.6 367.7,605.9 364.6,601.1 369.1,592.9 376.5,593.2" fill="#8c6638" opacity="0.26" filter="url(#blur)"/>
  <polygon points="1066.8,520.7 1050.0,536.1 1032.8,531.1 1032.4,510.0 1049.5,503.6" fill="#bf9560" opacity="0.45" filter="url(#blur)"/>
  <polygon points="1205.2,854.3 1194.6,863.9 1183.0,858.9 1181.2,846.1 1196.9,844.4" fill="#6e4e22" opacity="0.48" filter="url(#blur)"/>
  <polygon points="48.9,359.1 38.6,376.3 22.6,375.6 13.5,361.2 21.7,346.6 45.2,342.5" fill="#a8814a" opacity="0.52" filter="url(#blur)"/>
  <polygon points="364.0,212.1 357.0,222.8 337.9,217.5 338.8,202.3 354.4,197.0" fill="#6e4e22" opacity="0.38" filter="url(#blur)"/>
  <polygon points="200.8,516.6 198.3,530.2 187.2,532.6 176.2,524.0 178.8,512.2 186.2,502.1 195.6,506.5" fill="#6e4e22" opacity="0.31" filter="url(#blur)"/>
  <polygon points="1198.2,34.6 1189.9,55.9 1173.1,59.4 1165.1,46.5 1158.0,29.3 1173.7,13.5 1192.6,16.4" fill="#bf9560" opacity="0.43" filter="url(#blur)"/>
  <polygon points="863.8,198.3 854.8,214.4 841.0,214.3 832.4,206.2 833.9,191.4 842.5,185.4 859.8,184.9" fill="#6e4e22" opacity="0.42" filter="url(#blur)"/>
  <polygon points="464.2,81.5 451.3,108.7 415.6,97.0 417.6,69.0 444.0,63.6" fill="#9c7642" opacity="0.96"/>
  <polygon points="437.8,76.5 435.2,83.4 428.2,84.1 423.0,79.3 423.3,74.2 428.8,70.1 434.1,71.7" fill="#fff" opacity="0.22"/>
  <polygon points="847.2,378.4 834.9,390.1 823.1,384.3 821.4,368.5 840.3,365.8" fill="#6e4e22" opacity="0.75"/>
  <polygon points="680.9,297.2 675.6,306.1 663.9,309.0 658.7,299.3 665.3,292.0 678.2,289.5" fill="#a8814a" opacity="0.93"/>
  <polygon points="241.4,197.1 231.3,212.3 209.9,216.9 195.7,200.3 195.6,181.7 212.3,168.2 226.4,172.5" fill="#bf9560" opacity="0.72"/>
  <polygon points="212.7,184.5 207.8,190.3 201.4,189.3 200.2,179.0 209.4,177.9" fill="#fff" opacity="0.22"/>
  <polygon points="277.3,502.8 271.9,507.2 264.0,508.9 258.1,503.4 258.1,497.4 265.1,491.8 272.7,492.6" fill="#a8814a" opacity="0.86"/>
  <polygon points="164.7,660.9 162.1,668.4 151.8,673.4 139.2,672.9 138.2,659.5 143.7,651.3 150.6,648.2 158.7,650.6" fill="#a8814a" opacity="0.84"/>
  <polygon points="149.5,655.5 148.7,659.9 144.7,659.8 142.0,658.6 142.8,654.1 144.4,651.2 148.5,653.2" fill="#fff" opacity="0.25"/>
  <polygon points="930.2,815.5 925.7,824.0 918.7,825.5 909.7,819.1 909.0,810.3 916.5,806.2 925.0,807.4" fill="#7a5828" opacity="0.73"/>
  <polygon points="779.2,889.3 773.0,898.0 761.6,896.3 763.3,884.9 774.8,879.0" fill="#8c6638" opacity="0.89"/>
  <polygon points="860.9,395.2 851.0,413.5 830.7,402.3 830.3,378.5 848.8,373.2" fill="#9c7642" opacity="0.71"/>
  <polygon points="845.0,386.0 841.5,392.2 834.2,390.4 834.5,382.4 841.4,380.7" fill="#fff" opacity="0.16"/>
  <polygon points="883.1,600.8 874.5,619.5 847.5,620.3 833.4,606.1 835.6,589.4 852.2,576.3 874.3,582.6" fill="#bf9560" opacity="0.78"/>
  <polygon points="856.1,592.3 850.4,598.5 844.9,594.5 843.4,586.6 851.1,583.7" fill="#fff" opacity="0.24"/>
  <polygon points="1206.4,469.2 1203.8,480.6 1191.8,480.1 1185.4,475.3 1186.5,463.6 1194.5,460.5 1203.5,461.0" fill="#a8814a" opacity="0.82"/>
  <polygon points="691.0,350.9 686.6,358.5 679.8,357.1 675.7,352.7 678.0,346.2 687.2,345.9" fill="#6e4e22" opacity="0.89"/>
  <polygon points="1012.6,527.0 991.5,547.2 974.2,547.6 961.5,529.3 976.7,510.0 997.7,509.6" fill="#6e4e22" opacity="0.87"/>
  <polygon points="982.4,519.3 978.3,527.5 969.7,525.3 969.6,516.2 977.6,514.6" fill="#fff" opacity="0.14"/>
  <polygon points="359.1,217.8 356.0,225.6 342.0,234.7 331.7,225.9 322.9,217.4 325.8,204.9 341.5,202.2 351.9,203.0" fill="#7a5828" opacity="0.86"/>
  <polygon points="341.6,209.8 340.4,213.6 336.4,215.9 333.8,213.8 331.9,209.8 332.3,207.3 336.4,205.6 339.2,206.6" fill="#fff" opacity="0.12"/>
  <polygon points="977.5,100.9 968.1,110.4 953.3,106.4 956.0,94.1 968.0,88.1" fill="#7a5828" opacity="0.98"/>
  <polygon points="255.7,397.1 245.0,412.4 218.6,407.3 220.8,388.3 245.9,383.4" fill="#9c7642" opacity="0.84"/>
  <polygon points="237.3,390.6 234.2,396.7 227.9,395.4 225.4,392.4 228.3,386.4 234.4,387.7" fill="#fff" opacity="0.24"/>
  <polygon points="398.5,87.3 393.6,105.5 374.2,101.2 362.9,89.4 373.0,71.6 392.6,67.2" fill="#9c7642" opacity="0.95"/>
  <polygon points="381.3,81.2 378.9,83.5 374.6,86.4 370.2,84.3 369.5,77.0 373.4,74.6 379.8,75.2" fill="#fff" opacity="0.13"/>
  <polygon points="470.7,428.6 463.4,440.1 441.3,448.0 427.4,440.6 429.2,421.6 441.9,404.4 459.3,414.6" fill="#a8814a" opacity="0.98"/>
  <polygon points="448.6,422.0 446.7,425.3 442.1,428.0 437.2,424.4 436.5,420.7 436.8,416.5 442.3,414.2 445.4,416.5" fill="#fff" opacity="0.13"/>
  <polygon points="28.6,737.2 26.4,743.3 14.4,748.3 3.5,740.5 4.2,730.7 16.1,723.2 27.6,723.1" fill="#a8814a" opacity="0.77"/>
  <polygon points="15.8,730.6 13.1,734.5 9.3,733.3 8.1,727.5 14.1,726.0" fill="#fff" opacity="0.24"/>
  <polygon points="560.7,879.4 556.3,885.1 547.7,881.9 548.0,876.3 554.2,871.0" fill="#7a5828" opacity="0.89"/>
  <polygon points="139.7,807.6 135.7,812.5 131.2,816.2 125.6,812.8 123.1,805.8 124.1,798.6 131.3,798.1 137.3,799.2" fill="#6e4e22" opacity="0.76"/>
  <polygon points="218.2,26.3 208.8,46.5 196.7,47.9 179.6,43.1 168.7,23.2 179.5,7.7 195.4,0.7 211.0,10.0" fill="#bf9560" opacity="0.93"/>
  <polygon points="192.8,17.6 189.0,21.5 184.7,23.0 179.0,20.1 179.5,15.1 184.5,10.5 190.1,12.4" fill="#fff" opacity="0.19"/>
  <polygon points="827.2,87.9 806.5,111.4 782.7,98.1 782.4,77.9 807.4,69.7" fill="#a8814a" opacity="0.93"/>
  <polygon points="802.1,81.7 799.5,86.6 793.3,87.6 790.8,82.3 790.5,78.9 794.2,75.9 799.0,75.2" fill="#fff" opacity="0.12"/>
  <polygon points="1160.2,120.4 1135.6,145.2 1112.9,136.0 1105.8,105.0 1135.6,92.2" fill="#6e4e22" opacity="0.74"/>
  <polygon points="1130.9,111.8 1125.5,118.3 1118.2,116.3 1116.4,109.8 1119.2,102.6 1126.0,105.3" fill="#fff" opacity="0.20"/>
  <polygon points="128.6,120.6 118.3,130.9 108.7,128.5 106.3,114.6 120.8,109.8" fill="#8c6638" opacity="0.99"/>
  <polygon points="47.8,207.8 36.5,229.4 22.5,234.7 3.9,225.1 6.1,196.4 14.0,187.4 35.7,194.1" fill="#6e4e22" opacity="0.91"/>
  <polygon points="22.0,202.9 22.2,207.8 14.6,207.4 10.6,205.7 10.1,200.2 15.7,195.9 19.3,197.7" fill="#fff" opacity="0.14"/>
  <polygon points="1119.0,817.8 1112.6,834.4 1095.6,832.9 1084.5,824.4 1087.3,808.0 1096.1,804.9 1110.5,806.7" fill="#9c7642" opacity="0.81"/>
  <polygon points="1100.6,811.6 1099.9,816.3 1097.1,818.0 1093.3,815.6 1090.8,812.7 1092.3,808.5 1095.4,806.2 1100.2,808.8" fill="#fff" opacity="0.15"/>
  <polygon points="264.4,162.6 257.9,172.6 246.8,174.1 236.5,163.0 246.4,150.4 255.6,150.4" fill="#7a5828" opacity="0.75"/>
  <polygon points="443.0,46.5 437.9,52.9 430.1,50.1 431.2,43.0 438.6,39.6" fill="#9c7642" opacity="0.91"/>
  <polygon points="940.8,796.4 930.4,811.4 910.5,806.8 908.7,783.6 926.9,781.9" fill="#8c6638" opacity="0.74"/>
  <polygon points="921.4,792.6 919.6,797.4 913.9,797.1 911.3,791.8 914.6,787.1 919.8,787.7" fill="#fff" opacity="0.21"/>
  <polygon points="822.3,805.5 819.6,817.1 802.5,817.8 797.0,804.6 803.4,790.8 815.4,791.4" fill="#6e4e22" opacity="0.89"/>
  <polygon points="810.1,797.6 808.2,802.1 802.4,802.1 800.7,797.4 803.2,793.0 808.4,793.9" fill="#fff" opacity="0.12"/>
  <polygon points="598.5,255.7 593.7,270.9 576.6,269.7 569.1,256.0 576.4,245.6 589.2,246.5" fill="#8c6638" opacity="0.99"/>
  <polygon points="583.1,252.6 580.3,256.9 577.2,257.7 575.2,255.4 574.6,251.8 577.7,248.5 581.4,249.3" fill="#fff" opacity="0.20"/>
  <polygon points="948.7,839.4 945.6,846.7 938.2,851.2 934.3,846.4 930.2,842.0 932.6,833.3 939.1,833.0 947.5,834.9" fill="#bf9560" opacity="0.83"/>
  <polygon points="1128.8,898.5 1120.5,913.5 1098.5,905.7 1097.3,888.7 1118.7,884.2" fill="#9c7642" opacity="0.86"/>
  <polygon points="1114.2,893.0 1110.2,897.7 1105.9,896.5 1102.8,892.9 1104.6,887.8 1111.0,887.3" fill="#fff" opacity="0.15"/>
  <polygon points="801.5,800.3 783.9,816.5 768.1,811.0 763.2,791.4 782.7,781.6" fill="#6e4e22" opacity="0.81"/>
  <polygon points="779.7,794.3 776.8,798.7 772.0,799.0 767.9,797.7 768.9,791.5 772.9,788.4 776.6,790.0" fill="#fff" opacity="0.24"/>
  <polygon points="1171.0,644.3 1164.5,654.1 1153.7,652.0 1148.3,642.7 1152.9,633.0 1166.0,632.9" fill="#8c6638" opacity="0.72"/>
  <polygon points="1069.5,487.7 1065.1,496.4 1047.1,505.8 1034.8,493.9 1036.9,478.2 1050.0,466.0 1062.0,474.4" fill="#bf9560" opacity="0.90"/>
  <polygon points="1051.3,480.6 1050.2,484.1 1043.8,484.3 1041.2,480.6 1044.1,474.8 1050.1,474.6" fill="#fff" opacity="0.11"/>
  <polygon points="367.4,538.2 355.3,555.6 334.7,552.1 333.5,523.8 355.6,518.4" fill="#a8814a" opacity="0.72"/>
  <polygon points="349.3,533.7 346.6,537.4 340.7,537.8 337.4,533.7 340.5,528.0 346.0,528.7" fill="#fff" opacity="0.10"/>
  <polygon points="274.5,787.1 262.7,803.0 244.4,801.6 236.1,788.1 247.6,772.6 267.8,773.3" fill="#8c6638" opacity="0.79"/>
  <polygon points="253.8,782.8 250.9,787.8 245.4,785.8 245.3,779.7 251.6,777.1" fill="#fff" opacity="0.12"/>
  <polygon points="497.4,69.3 486.7,83.2 476.7,89.4 457.4,83.1 454.7,66.9 455.5,54.8 476.7,45.4 488.9,47.1" fill="#6e4e22" opacity="0.85"/>
  <polygon points="472.5,59.5 470.6,66.7 464.0,66.3 461.0,59.7 462.8,55.4 471.1,54.4" fill="#fff" opacity="0.15"/>
  <polygon points="28.1,602.1 17.9,619.9 -4.4,614.7 -11.0,604.4 -0.5,582.7 13.3,584.1" fill="#9c7642" opacity="0.81"/>
  <polygon points="6.0,594.5 5.0,599.4 -1.5,600.0 -5.9,595.8 -5.3,590.4 -1.3,587.3 3.3,588.8" fill="#fff" opacity="0.24"/>
  <polygon points="677.8,671.0 662.5,685.3 644.7,683.0 638.0,669.6 648.0,650.6 662.1,651.9" fill="#8c6638" opacity="0.98"/>
  <polygon points="655.0,662.0 651.7,666.3 644.8,664.8 642.3,657.0 650.0,654.2" fill="#fff" opacity="0.16"/>
  <polygon points="46.5,637.1 38.7,648.0 32.3,647.1 22.6,638.7 30.3,631.7 41.3,630.5" fill="#6e4e22" opacity="0.97"/>
  <polygon points="856.4,32.3 848.5,44.6 838.2,52.3 823.4,44.3 817.2,33.6 822.8,16.6 836.2,13.2 851.0,20.3" fill="#9c7642" opacity="0.75"/>
  <polygon points="836.4,24.7 835.1,29.4 828.4,31.0 825.4,29.1 825.2,23.6 829.0,20.8 833.1,21.9" fill="#fff" opacity="0.21"/>
  <polygon points="437.7,299.4 429.0,315.1 413.3,322.7 394.7,310.0 393.6,293.8 408.3,280.5 427.8,280.9" fill="#6e4e22" opacity="0.72"/>
  <polygon points="414.8,293.7 411.6,299.4 403.6,298.5 404.6,291.3 410.8,289.5" fill="#fff" opacity="0.10"/>
  <polygon points="476.2,132.8 471.8,138.4 464.3,138.2 460.2,136.5 461.6,128.4 464.6,125.9 473.3,125.2" fill="#9c7642" opacity="0.91"/>
  <polygon points="1098.5,366.7 1093.6,375.6 1079.7,373.9 1081.2,360.6 1092.0,356.5" fill="#7a5828" opacity="0.85"/>
  <polygon points="791.0,243.6 787.9,255.4 773.3,257.5 764.9,243.9 775.4,232.7 785.0,234.0" fill="#a8814a" opacity="0.89"/>
  <polygon points="776.3,97.6 771.5,111.9 759.8,111.5 745.0,104.9 745.6,88.3 757.9,81.0 776.0,84.1" fill="#6e4e22" opacity="0.90"/>
  <polygon points="762.6,92.3 759.0,95.1 752.9,94.4 753.4,89.2 758.2,86.9" fill="#fff" opacity="0.19"/>
  <polygon points="892.1,486.7 886.4,497.5 875.1,495.4 870.0,486.1 873.7,471.8 888.6,474.6" fill="#bf9560" opacity="0.80"/>
  <polygon points="275.5,861.3 273.0,865.3 267.9,868.3 263.4,864.5 260.4,860.9 263.9,853.2 268.3,851.3 274.2,854.1" fill="#a8814a" opacity="0.89"/>
  <polygon points="150.2,795.3 135.9,806.7 121.6,806.6 106.9,788.9 121.8,776.9 135.6,771.6" fill="#7a5828" opacity="0.76"/>
  <polygon points="126.6,784.7 122.5,790.6 117.2,787.6 117.2,781.4 123.1,780.2" fill="#fff" opacity="0.19"/>
  <polygon points="61.8,161.1 55.9,175.2 38.0,187.1 20.5,177.5 16.7,159.2 24.6,142.0 36.5,138.5 56.3,145.0" fill="#9c7642" opacity="0.96"/>
  <polygon points="39.5,151.3 35.7,157.8 29.4,157.4 26.6,154.7 25.1,147.9 29.8,142.8 35.2,145.4" fill="#fff" opacity="0.15"/>
  <polygon points="653.6,142.4 650.4,149.7 641.7,153.5 635.8,146.4 635.8,138.0 639.5,134.4 649.6,135.0" fill="#6e4e22" opacity="0.91"/>
  <polygon points="110.3,6.1 107.8,22.2 90.4,23.5 81.6,14.4 81.5,0.9 92.5,-5.2 106.9,-5.2" fill="#7a5828" opacity="0.87"/>
  <polygon points="95.0,2.0 94.5,5.9 88.6,6.3 85.5,3.6 85.2,-0.7 89.6,-2.8 93.4,-1.3" fill="#fff" opacity="0.17"/>
  <polygon points="59.7,803.2 53.5,808.9 40.9,806.4 41.7,796.0 54.9,793.0" fill="#a8814a" opacity="0.75"/>
  <polygon points="378.3,437.9 378.5,448.2 360.3,450.8 348.1,445.7 341.3,435.4 351.5,419.6 363.9,419.6 375.9,425.0" fill="#8c6638" opacity="0.99"/>
  <polygon points="361.2,428.5 357.3,434.9 352.9,431.5 350.9,425.3 358.7,422.6" fill="#fff" opacity="0.19"/>
  <polygon points="1186.8,535.6 1183.3,544.1 1177.9,543.1 1173.2,540.1 1172.2,533.7 1177.9,527.6 1185.7,530.0" fill="#8c6638" opacity="0.94"/>
  <polygon points="23.2,356.4 10.7,380.3 -22.4,370.5 -16.2,341.9 8.3,342.4" fill="#bf9560" opacity="0.93"/>
  <polygon points="-1.8,351.7 -2.5,355.4 -7.3,357.2 -11.2,355.6 -14.5,350.4 -11.6,345.8 -7.7,344.3 -4.1,346.7" fill="#fff" opacity="0.17"/>
  <polygon points="715.6,497.3 713.6,507.9 704.5,511.8 692.9,505.9 687.9,496.5 696.1,485.3 700.8,478.6 714.5,485.4" fill="#9c7642" opacity="0.96"/>
  <polygon points="703.0,490.9 701.2,493.7 698.2,494.4 695.1,493.0 696.0,489.1 698.5,486.9 701.8,487.0" fill="#fff" opacity="0.13"/>
  <polygon points="964.0,841.1 956.8,853.1 948.5,853.5 937.1,848.8 934.4,835.2 945.7,828.8 956.0,830.5" fill="#a8814a" opacity="0.99"/>
  <polygon points="137.7,160.6 132.1,167.3 120.7,171.4 111.9,160.9 119.7,145.9 131.3,147.5" fill="#7a5828" opacity="0.79"/>
  <polygon points="411.4,682.3 403.5,689.7 387.1,686.8 389.8,674.0 404.5,668.9" fill="#bf9560" opacity="0.76"/>
  <polygon points="80.4,257.7 65.9,272.0 39.2,267.7 38.5,238.8 63.8,233.8" fill="#a8814a" opacity="0.90"/>
  <polygon points="60.5,246.3 58.7,250.0 52.2,252.0 49.9,251.2 45.2,247.7 47.0,241.5 53.9,238.5 58.7,241.8" fill="#fff" opacity="0.13"/>
  <polygon points="1193.5,693.4 1190.5,699.5 1180.0,703.1 1174.1,697.8 1170.2,692.5 1172.4,684.0 1183.2,681.8 1190.9,682.1" fill="#7a5828" opacity="0.76"/>
  <polygon points="783.4,508.5 766.2,530.6 747.3,518.1 748.1,490.0 769.6,487.2" fill="#bf9560" opacity="0.75"/>
  <polygon points="762.4,495.7 759.1,501.5 756.0,503.9 748.7,501.9 748.7,497.3 750.7,491.9 756.0,489.3 760.1,491.9" fill="#fff" opacity="0.14"/>
  <polygon points="63.4,137.0 55.3,153.9 34.2,152.6 20.1,137.4 31.5,117.9 48.0,115.6" fill="#a8814a" opacity="0.70"/>
  <polygon points="39.8,130.1 36.2,134.8 29.1,132.8 29.1,126.0 37.4,123.5" fill="#fff" opacity="0.21"/>
  <polygon points="982.1,890.2 974.0,903.7 958.4,899.2 945.1,884.4 953.1,870.7 972.6,873.5" fill="#6e4e22" opacity="0.85"/>
  <polygon points="962.5,881.7 960.0,886.4 954.9,884.1 954.9,878.3 961.2,876.2" fill="#fff" opacity="0.17"/>
  <polygon points="414.6,604.8 406.3,624.1 386.4,622.7 379.8,603.8 384.8,586.8 407.9,588.1" fill="#9c7642" opacity="0.89"/>
  <polygon points="395.5,599.3 392.6,604.7 386.5,602.8 385.8,595.3 392.0,593.3" fill="#fff" opacity="0.15"/>
  <polygon points="295.9,726.5 291.7,735.1 278.4,738.4 271.2,725.8 278.8,714.0 290.1,716.7" fill="#6e4e22" opacity="0.99"/>
  <polygon points="554.4,540.2 537.8,563.6 515.1,559.1 516.4,534.8 540.3,528.1" fill="#8c6638" opacity="0.96"/>
  <polygon points="531.5,535.2 527.8,541.8 522.9,541.4 518.4,535.6 522.1,530.4 527.5,531.9" fill="#fff" opacity="0.12"/>
  <polygon points="108.6,268.2 103.2,283.7 83.3,277.0 85.6,258.4 99.0,251.2" fill="#bf9560" opacity="0.87"/>
  <polygon points="95.3,263.1 94.0,268.0 88.3,268.1 86.2,263.2 88.3,260.4 92.9,259.1" fill="#fff" opacity="0.20"/>
  <polygon points="319.7,440.2 317.3,451.1 305.9,453.3 296.6,448.2 290.6,437.4 294.6,431.9 307.9,423.7 317.5,431.0" fill="#9c7642" opacity="0.97"/>
  <polygon points="304.5,434.7 303.0,438.4 300.1,439.7 296.1,437.2 296.6,433.6 300.1,431.4 303.6,430.8" fill="#fff" opacity="0.19"/>
  <polygon points="93.4,832.9 76.9,852.4 64.0,844.9 61.1,823.3 80.6,821.0" fill="#6e4e22" opacity="0.91"/>
  <polygon points="74.2,828.1 71.2,833.2 66.4,834.6 63.9,830.6 63.9,827.3 66.4,823.1 71.5,824.4" fill="#fff" opacity="0.24"/>
  <polygon points="779.9,768.1 777.7,776.9 765.6,779.3 753.8,776.4 755.2,761.0 766.5,753.3 774.6,756.1" fill="#9c7642" opacity="0.71"/>
  <polygon points="767.9,762.5 765.1,766.6 761.6,766.9 758.9,764.0 761.6,758.9 765.8,759.2" fill="#fff" opacity="0.23"/>
  <polygon points="165.0,283.2 159.1,303.4 137.5,310.3 126.2,293.8 120.4,268.1 141.5,257.5 152.3,267.1" fill="#a8814a" opacity="0.95"/>
  <polygon points="142.9,276.9 137.2,282.4 128.8,281.5 128.7,272.2 138.0,270.9" fill="#fff" opacity="0.17"/>
  <polygon points="709.1,345.7 703.9,354.3 694.0,357.0 688.1,351.1 689.1,342.0 693.2,334.0 703.5,338.4" fill="#7a5828" opacity="0.86"/>
  <polygon points="1032.3,682.4 1024.8,696.4 1006.9,693.5 1006.0,672.5 1025.4,671.6" fill="#9c7642" opacity="0.79"/>
  <polygon points="1019.6,678.0 1016.4,683.0 1011.2,680.1 1010.2,675.8 1015.4,673.6" fill="#fff" opacity="0.21"/>
  <polygon points="1209.6,674.6 1196.1,685.5 1181.6,680.1 1182.9,662.3 1196.7,658.9" fill="#6e4e22" opacity="0.85"/>
  <polygon points="1190.9,666.2 1189.4,670.3 1184.6,671.5 1181.8,666.2 1185.2,663.7 1189.3,663.1" fill="#fff" opacity="0.17"/>
  <polygon points="259.8,14.9 248.5,36.3 226.5,26.2 229.6,10.1 245.8,2.3" fill="#9c7642" opacity="0.72"/>
  <polygon points="244.2,12.5 238.4,17.8 233.7,15.1 233.9,9.1 238.7,7.3" fill="#fff" opacity="0.17"/>
  <polygon points="215.9,797.9 206.1,821.6 172.5,815.4 179.1,782.5 208.1,773.8" fill="#6e4e22" opacity="0.83"/>
  <polygon points="194.7,790.6 192.0,794.5 185.7,796.5 179.4,793.3 179.9,784.9 186.2,782.7 190.5,785.1" fill="#fff" opacity="0.21"/>
  <polygon points="349.6,318.1 346.9,327.5 335.9,334.3 325.3,323.6 329.0,313.2 332.9,306.2 345.3,309.3" fill="#8c6638" opacity="0.88"/>
  <polygon points="989.2,41.6 982.4,50.8 971.0,50.2 961.6,44.0 961.2,34.2 972.6,28.9 986.4,29.8" fill="#a8814a" opacity="0.96"/>
  <polygon points="22.4,894.6 17.6,905.3 0.5,907.0 -6.0,893.2 3.3,881.2 11.8,883.2" fill="#bf9560" opacity="0.77"/>
  <polygon points="379.9,83.7 374.5,98.7 368.4,105.9 348.6,100.6 345.1,83.7 349.9,72.3 366.0,66.2 373.4,73.4" fill="#6e4e22" opacity="0.79"/>
  <polygon points="365.3,79.2 361.5,83.5 356.3,83.5 353.7,80.0 356.1,75.5 360.2,75.4" fill="#fff" opacity="0.15"/>
  <polygon points="498.8,207.6 482.9,226.4 466.7,227.7 451.5,201.1 460.1,187.8 491.4,185.6" fill="#6e4e22" opacity="0.99"/>
  <polygon points="475.1,196.7 473.2,202.7 464.8,205.6 461.8,202.0 460.9,196.1 466.1,190.9 474.0,192.1" fill="#fff" opacity="0.22"/>
  <polygon points="162.8,399.5 149.0,414.5 132.4,411.1 127.4,391.3 148.8,388.0" fill="#8c6638" opacity="0.81"/>
  <polygon points="142.5,395.3 142.1,397.7 138.4,400.2 134.1,397.3 134.5,392.3 137.7,389.1 142.1,390.7" fill="#fff" opacity="0.22"/>
  <polygon points="844.3,551.2 834.3,565.4 817.1,566.1 803.1,559.9 796.8,550.4 804.4,531.4 823.2,525.9 835.9,535.4" fill="#7a5828" opacity="0.80"/>
  <polygon points="820.3,538.1 816.7,545.3 809.8,545.2 807.0,539.4 811.0,533.0 817.1,533.6" fill="#fff" opacity="0.11"/>
  <polygon points="155.3,36.5 148.6,54.2 133.3,52.1 124.0,36.0 132.5,22.0 144.3,23.6" fill="#a8814a" opacity="0.78"/>
  <polygon points="137.7,33.4 135.0,37.0 130.5,38.1 126.8,33.1 130.0,28.1 136.4,28.2" fill="#fff" opacity="0.11"/>
  <polygon points="842.1,767.2 840.5,775.9 830.5,774.6 826.3,766.7 827.7,759.7 836.8,760.9" fill="#8c6638" opacity="0.96"/>
  <polygon points="324.9,48.6 312.1,70.0 291.5,73.2 276.8,51.4 289.1,25.9 319.6,28.0" fill="#9c7642" opacity="0.83"/>
  <polygon points="302.9,42.3 299.4,47.7 288.9,45.6 289.0,37.1 299.6,33.8" fill="#fff" opacity="0.23"/>
  <polygon points="107.7,857.2 104.9,876.5 90.3,878.7 71.1,877.8 66.0,857.6 74.4,842.4 91.6,834.0 106.1,845.6" fill="#a8814a" opacity="0.71"/>
  <polygon points="89.2,851.2 85.1,857.8 77.9,858.2 75.9,852.4 78.9,845.8 86.6,845.9" fill="#fff" opacity="0.14"/>
  <polygon points="63.2,57.3 52.9,76.1 31.0,68.2 28.9,40.6 48.0,36.4" fill="#6e4e22" opacity="0.92"/>
  <polygon points="42.5,49.9 42.6,53.2 37.1,54.9 34.6,53.6 31.7,49.2 33.4,46.1 37.9,44.9 42.1,45.3" fill="#fff" opacity="0.21"/>
  <polygon points="252.5,523.1 250.4,532.4 236.7,534.7 224.1,530.7 219.4,520.1 225.8,511.1 238.1,501.5 247.0,508.1" fill="#9c7642" opacity="0.71"/>
  <polygon points="235.4,515.1 233.9,517.6 229.9,518.6 226.4,515.6 225.1,512.2 229.5,508.8 233.3,510.2" fill="#fff" opacity="0.17"/>
  <polygon points="884.4,625.0 879.5,632.5 867.4,635.6 863.0,621.3 867.4,613.7 878.7,611.8" fill="#bf9560" opacity="0.78"/>
  <polygon points="849.0,181.3 840.2,196.0 833.8,203.3 814.5,194.7 809.1,185.2 818.4,171.6 830.9,163.2 842.7,171.7" fill="#9c7642" opacity="0.88"/>
  <polygon points="829.5,175.4 824.6,181.5 818.4,177.7 817.5,171.9 826.5,169.6" fill="#fff" opacity="0.11"/>
  <polygon points="505.2,636.9 498.4,648.3 487.3,649.9 482.5,638.1 487.6,628.5 499.8,627.8" fill="#a8814a" opacity="0.90"/>
  <polygon points="1208.5,800.6 1206.2,811.7 1194.5,817.2 1182.6,806.0 1178.6,794.3 1193.8,787.9 1204.4,790.1" fill="#a8814a" opacity="0.74"/>
  <polygon points="1193.7,796.1 1192.2,799.6 1188.3,799.9 1185.5,797.3 1186.5,793.4 1188.3,792.1 1193.5,792.2" fill="#fff" opacity="0.19"/>
  <polygon points="733.8,48.2 731.5,62.2 716.6,62.6 701.7,59.4 695.0,50.1 701.1,28.2 720.0,23.1 728.7,32.3" fill="#a8814a" opacity="0.77"/>
  <polygon points="714.4,38.7 711.5,44.4 706.0,45.4 703.1,38.1 705.0,34.4 711.0,33.7" fill="#fff" opacity="0.25"/>
  <polygon points="982.2,613.5 970.6,630.4 947.9,623.1 945.5,597.0 972.8,590.0" fill="#8c6638" opacity="0.98"/>
  <polygon points="961.8,604.9 961.6,610.7 954.4,611.0 950.4,609.0 950.3,603.6 954.6,599.7 960.9,599.5" fill="#fff" opacity="0.19"/>
  <polygon points="637.5,783.4 632.5,795.0 619.7,794.2 614.5,789.0 614.0,777.7 619.8,768.8 629.7,773.9" fill="#8c6638" opacity="0.85"/>
  <polygon points="860.1,817.3 858.5,827.9 841.9,834.9 825.8,829.1 818.9,815.9 825.0,798.5 843.4,792.3 855.7,801.5" fill="#a8814a" opacity="0.83"/>
  <polygon points="841.2,806.5 839.5,812.0 832.2,812.5 828.8,808.9 827.6,803.2 833.6,801.0 839.2,802.1" fill="#fff" opacity="0.20"/>
  <polygon points="1048.8,338.9 1037.2,362.0 1022.2,364.8 1002.0,361.1 996.0,341.1 1006.8,328.2 1020.4,323.4 1041.2,323.3" fill="#6e4e22" opacity="0.78"/>
  <polygon points="1021.8,335.3 1017.3,341.2 1009.5,339.6 1008.6,331.3 1016.9,328.2" fill="#fff" opacity="0.18"/>
  <polygon points="1070.4,532.7 1067.2,540.5 1062.4,542.0 1055.9,540.1 1051.7,532.2 1057.1,525.6 1062.2,523.9 1067.6,525.9" fill="#9c7642" opacity="0.98"/>
  <polygon points="459.5,355.2 448.8,373.1 432.1,365.4 430.0,344.7 448.9,343.1" fill="#8c6638" opacity="0.78"/>
  <polygon points="442.0,350.9 439.7,356.6 435.0,355.9 432.2,352.3 435.5,348.5 440.0,348.4" fill="#fff" opacity="0.16"/>
  <polygon points="995.0,462.8 992.5,475.1 981.8,478.2 970.6,471.8 966.6,461.0 969.6,454.5 984.8,446.6 989.8,452.2" fill="#6e4e22" opacity="0.77"/>
  <polygon points="981.8,459.0 980.5,461.4 977.4,462.0 974.4,460.1 973.1,458.8 974.3,456.0 976.7,454.7 980.4,454.4" fill="#fff" opacity="0.22"/>
  <polygon points="635.3,792.4 627.1,803.7 619.9,806.9 609.9,804.5 602.1,794.7 608.6,785.1 620.6,781.6 630.3,786.5" fill="#bf9560" opacity="0.90"/>
  <polygon points="616.6,789.7 615.9,794.1 611.5,794.8 609.3,791.9 609.0,788.3 611.6,785.9 615.5,785.6" fill="#fff" opacity="0.24"/>
  <polygon points="322.4,488.4 308.6,501.8 295.7,496.1 295.2,477.5 312.2,471.5" fill="#8c6638" opacity="0.76"/>
  <polygon points="305.8,480.4 302.5,486.4 296.4,483.9 296.2,478.8 302.4,476.0" fill="#fff" opacity="0.22"/>
  <polygon points="882.4,401.7 867.9,426.1 845.8,419.7 847.0,393.8 868.6,386.8" fill="#8c6638" opacity="0.72"/>
  <polygon points="861.6,399.4 858.1,404.0 851.9,403.1 850.6,398.0 852.3,393.7 858.2,394.7" fill="#fff" opacity="0.11"/>
  <polygon points="317.4,734.7 312.0,757.0 291.4,761.7 281.0,747.9 281.4,728.7 292.4,720.8 315.3,722.0" fill="#bf9560" opacity="0.85"/>
  <polygon points="296.5,729.3 295.0,736.8 288.2,735.2 284.9,730.2 288.3,725.3 293.4,724.0" fill="#fff" opacity="0.18"/>
  <polygon points="185.6,705.1 184.8,711.8 175.6,713.6 168.9,711.0 169.0,702.5 174.0,696.1 182.4,698.1" fill="#7a5828" opacity="1.00"/>
  <polygon points="523.1,223.7 517.8,236.8 511.0,239.6 495.3,234.9 491.4,221.6 493.7,213.2 510.0,209.4 519.5,207.5" fill="#6e4e22" opacity="0.99"/>
  <polygon points="508.0,217.3 503.9,222.6 497.7,220.6 496.6,215.0 503.7,212.4" fill="#fff" opacity="0.15"/>
  <polygon points="144.2,150.2 134.2,162.2 123.2,169.9 102.9,157.9 103.3,138.9 122.0,127.0 138.0,125.8" fill="#9c7642" opacity="0.71"/>
  <polygon points="124.8,139.3 121.1,144.6 115.3,147.0 112.0,142.6 112.0,136.9 116.8,133.6 120.1,134.7" fill="#fff" opacity="0.11"/>
  <polygon points="971.6,87.4 965.3,96.3 955.4,102.8 944.7,92.6 941.9,82.7 957.2,75.2 966.3,73.1" fill="#9c7642" opacity="0.75"/>
  <polygon points="956.8,81.9 955.0,86.7 949.7,84.7 950.6,79.7 954.5,78.7" fill="#fff" opacity="0.15"/>
  <polygon points="1036.3,138.4 1027.8,155.3 1014.0,158.8 995.4,145.5 997.0,130.8 1012.0,121.0 1032.7,124.1" fill="#8c6638" opacity="0.84"/>
  <polygon points="1016.0,131.2 1012.5,136.5 1008.3,140.0 1003.2,136.1 1001.6,133.0 1003.2,126.1 1009.3,124.5 1012.1,128.2" fill="#fff" opacity="0.11"/>
  <polygon points="591.0,335.8 583.5,355.8 564.8,354.4 557.4,340.9 565.9,323.1 583.3,318.9" fill="#a8814a" opacity="0.81"/>
  <polygon points="572.2,331.8 568.9,336.4 562.0,335.9 562.4,328.0 567.6,326.9" fill="#fff" opacity="0.11"/>
  <polygon points="701.1,618.4 699.2,623.4 693.2,627.2 688.9,623.2 686.7,618.7 687.2,613.9 693.6,613.3 697.1,614.8" fill="#bf9560" opacity="0.78"/>
  <polygon points="565.6,507.8 562.7,528.1 538.3,529.2 527.4,520.7 528.7,496.4 541.4,487.6 556.3,495.6" fill="#7a5828" opacity="0.71"/>
  <polygon points="545.5,502.4 542.9,508.8 535.3,508.6 532.5,503.5 535.7,498.2 542.2,498.3" fill="#fff" opacity="0.20"/>
  <polygon points="945.2,471.8 940.6,489.2 929.8,492.7 914.5,487.7 912.2,475.6 919.5,459.0 927.8,458.6 943.2,461.6" fill="#9c7642" opacity="0.72"/>
  <polygon points="930.1,467.7 927.8,472.5 920.9,471.9 917.4,466.7 921.6,461.6 927.0,462.2" fill="#fff" opacity="0.23"/>
  <polygon points="970.3,54.4 966.2,65.2 955.0,68.7 942.4,60.5 943.3,47.1 953.0,38.3 964.2,39.4" fill="#6e4e22" opacity="0.92"/>
  <polygon points="956.1,47.7 954.2,52.3 951.2,51.8 948.0,49.7 947.7,46.5 950.7,42.3 954.9,43.2" fill="#fff" opacity="0.18"/>
  <polygon points="156.6,894.2 151.7,905.0 145.4,905.8 138.6,898.1 139.3,890.3 142.7,884.5 150.5,886.7" fill="#bf9560" opacity="0.94"/>
  <polygon points="596.3,196.8 590.8,204.6 578.9,204.9 572.5,193.2 575.4,184.8 592.5,183.9" fill="#6e4e22" opacity="0.74"/>
  <polygon points="1194.2,444.9 1180.8,461.5 1165.4,456.4 1164.4,432.4 1185.2,429.1" fill="#9c7642" opacity="0.73"/>
  <polygon points="1177.2,436.3 1172.3,443.9 1166.1,440.0 1165.4,434.2 1172.6,432.5" fill="#fff" opacity="0.15"/>
  <polygon points="272.5,383.0 267.0,391.4 259.0,389.7 258.9,380.8 266.9,376.1" fill="#8c6638" opacity="0.80"/>
  <polygon points="1091.4,826.6 1086.8,838.9 1075.4,838.5 1065.4,832.5 1068.6,825.9 1075.2,817.3 1087.2,820.1" fill="#6e4e22" opacity="0.95"/>
  <polygon points="46.9,231.1 38.0,245.5 21.9,240.8 19.6,222.9 37.9,217.5" fill="#6e4e22" opacity="0.73"/>
  <polygon points="32.0,227.4 29.8,230.2 27.6,231.1 24.0,228.8 25.1,224.8 26.7,223.8 30.6,224.5" fill="#fff" opacity="0.22"/>
  <polygon points="797.0,443.6 789.0,459.4 759.4,465.4 749.2,443.6 763.4,414.7 791.1,420.0" fill="#6e4e22" opacity="0.95"/>
  <polygon points="775.1,432.8 772.7,438.4 766.4,438.5 760.5,436.6 760.7,431.1 764.0,424.9 770.0,427.0" fill="#fff" opacity="0.22"/>
  <polygon points="747.9,534.5 743.8,546.3 729.1,544.8 720.6,539.2 722.0,528.3 729.0,525.2 742.7,524.6" fill="#8c6638" opacity="0.82"/>
  <polygon points="194.2,450.1 190.0,458.0 177.4,462.5 169.2,459.6 161.6,450.8 167.9,438.6 179.4,432.2 190.1,437.2" fill="#9c7642" opacity="0.98"/>
  <polygon points="178.9,442.9 176.9,445.3 174.1,446.6 170.8,444.7 168.5,441.9 170.4,438.1 174.8,437.5 179.1,438.6" fill="#fff" opacity="0.11"/>
  <polygon points="241.7,173.1 225.2,189.7 208.1,191.2 197.3,169.4 210.8,149.5 227.5,147.0" fill="#6e4e22" opacity="0.89"/>
  <polygon points="217.5,164.5 213.4,171.5 205.9,167.5 204.9,160.6 213.9,158.6" fill="#fff" opacity="0.15"/>
  <polygon points="37.3,245.4 27.1,259.9 10.6,255.7 9.9,234.0 24.8,232.1" fill="#a8814a" opacity="0.98"/>
  <polygon points="21.5,238.2 19.5,242.1 16.0,243.6 13.5,241.4 12.9,238.5 13.5,236.5 16.7,234.9 19.9,235.8" fill="#fff" opacity="0.23"/>
  <polygon points="540.8,121.6 536.0,127.7 529.8,128.1 525.5,121.2 528.5,116.1 535.1,116.6" fill="#a8814a" opacity="0.73"/>
  <polygon points="567.0,153.0 562.4,161.3 552.1,157.7 553.7,150.4 560.3,145.2" fill="#bf9560" opacity="0.90"/>
  <polygon points="671.6,38.0 667.1,58.5 652.7,57.2 641.8,48.3 637.4,29.3 655.4,18.5 669.7,26.3" fill="#9c7642" opacity="0.85"/>
  <polygon points="655.8,32.7 653.3,36.2 649.7,37.8 646.1,35.6 643.9,33.5 645.4,28.6 650.0,26.8 654.4,27.8" fill="#fff" opacity="0.23"/>
  <polygon points="801.5,112.4 798.0,123.5 788.0,126.2 775.8,115.1 775.9,101.1 783.4,92.8 796.0,97.1" fill="#9c7642" opacity="0.79"/>
  <polygon points="788.8,104.9 786.4,108.1 784.3,108.5 781.0,108.4 779.4,104.0 780.5,102.3 783.8,99.6 787.5,100.9" fill="#fff" opacity="0.12"/>
  <polygon points="138.6,526.3 133.5,541.8 116.8,543.0 106.1,530.6 116.5,516.4 135.9,512.3" fill="#6e4e22" opacity="0.92"/>
  <polygon points="123.8,522.4 121.9,526.1 119.0,527.4 116.0,526.6 113.4,523.2 116.3,518.7 120.3,517.5 122.8,519.8" fill="#fff" opacity="0.22"/>
  <polygon points="923.3,589.4 913.2,608.6 890.8,602.9 888.6,578.7 910.4,576.4" fill="#6e4e22" opacity="0.80"/>
  <polygon points="903.1,584.9 900.8,591.3 892.8,588.0 893.4,582.5 900.5,579.8" fill="#fff" opacity="0.22"/>
  <polygon points="1151.5,797.3 1146.5,815.4 1131.3,812.9 1118.0,802.1 1118.0,785.9 1130.9,774.6 1152.4,781.8" fill="#9c7642" opacity="0.71"/>
  <polygon points="1134.9,789.6 1133.5,794.5 1130.4,795.9 1125.7,793.8 1122.5,790.5 1125.8,785.4 1130.5,784.3 1133.5,787.0" fill="#fff" opacity="0.13"/>
  <polygon points="556.8,331.9 548.7,349.9 530.1,348.7 523.0,330.1 530.1,318.2 550.1,320.2" fill="#9c7642" opacity="0.82"/>
  <polygon points="540.0,327.3 538.8,331.7 532.7,332.6 531.0,326.9 533.5,322.3 539.0,322.7" fill="#fff" opacity="0.16"/>
  <polygon points="986.7,321.3 977.3,340.4 959.1,338.9 947.3,338.6 933.1,314.6 944.7,298.6 966.2,293.3 981.6,304.3" fill="#7a5828" opacity="0.72"/>
  <polygon points="960.3,311.1 957.4,314.9 951.7,318.8 946.6,312.3 946.5,308.9 951.5,304.6 956.6,305.9" fill="#fff" opacity="0.12"/>
  <polygon points="312.4,262.3 308.1,271.0 300.1,267.9 299.1,257.7 308.0,255.7" fill="#a8814a" opacity="0.74"/>
  <polygon points="220.7,574.1 216.6,580.4 205.5,581.3 203.2,573.7 209.4,565.6 217.3,563.2" fill="#9c7642" opacity="0.77"/>
  <polygon points="1121.0,877.2 1104.2,898.7 1084.3,903.3 1073.1,881.6 1082.5,862.8 1104.5,856.1" fill="#9c7642" opacity="0.83"/>
  <polygon points="1092.7,873.1 1092.2,879.2 1086.6,882.1 1078.7,876.0 1080.9,871.3 1085.6,867.1 1092.6,868.9" fill="#fff" opacity="0.20"/>
  <polygon points="1183.5,762.1 1179.3,769.8 1170.7,765.6 1171.1,759.8 1178.7,757.3" fill="#7a5828" opacity="0.80"/>
  <polygon points="827.7,811.6 824.9,815.9 819.6,819.9 813.4,817.6 812.4,812.5 813.4,806.1 817.9,805.4 825.1,805.3" fill="#6e4e22" opacity="0.78"/>
  <polygon points="980.0,830.6 968.5,848.9 946.1,854.2 930.4,832.8 944.0,810.7 965.2,807.1" fill="#8c6638" opacity="0.78"/>
  <polygon points="955.9,826.5 951.4,829.9 947.3,831.3 943.6,830.7 941.1,824.1 941.8,820.4 947.1,816.6 952.4,819.8" fill="#fff" opacity="0.17"/>
  <polygon points="849.8,881.6 842.0,891.1 833.2,892.6 823.9,887.9 819.2,875.5 832.8,868.7 844.7,872.3" fill="#7a5828" opacity="0.89"/>
  <polygon points="834.1,875.6 832.8,880.3 829.4,880.9 826.9,878.5 826.4,874.8 829.1,871.4 833.4,873.4" fill="#fff" opacity="0.12"/>
  <polygon points="393.4,454.3 390.0,462.8 383.6,465.8 376.4,461.6 371.9,454.9 377.2,450.3 382.6,446.6 389.8,447.3" fill="#7a5828" opacity="0.71"/>
  <polygon points="189.5,133.2 177.3,146.7 162.7,140.5 163.5,124.3 177.2,121.9" fill="#a8814a" opacity="0.98"/>
  <polygon points="173.0,128.6 170.7,131.8 168.3,132.2 165.1,131.6 164.5,128.1 165.1,125.2 168.1,123.4 170.3,125.5" fill="#fff" opacity="0.21"/>
  <polygon points="185.9,426.4 173.9,442.9 158.0,444.4 156.1,430.4 158.6,415.2 173.4,417.2" fill="#7a5828" opacity="0.83"/>
  <polygon points="168.4,424.5 165.7,426.9 162.7,427.4 159.7,425.9 159.6,421.3 162.1,419.2 167.0,420.6" fill="#fff" opacity="0.10"/>
  <polygon points="606.3,831.8 593.9,856.3 575.2,850.9 569.4,833.0 578.5,818.9 592.5,820.2" fill="#8c6638" opacity="0.96"/>
  <polygon points="584.7,827.7 582.1,832.5 576.4,833.8 573.5,828.9 576.9,823.0 582.2,824.3" fill="#fff" opacity="0.15"/>
  <polygon points="86.5,359.2 80.0,372.7 70.4,375.8 53.6,371.3 49.6,358.2 56.5,349.7 70.0,339.1 77.4,347.7" fill="#7a5828" opacity="0.89"/>
  <polygon points="67.4,354.5 66.5,357.5 62.2,359.2 59.7,358.1 57.4,354.2 58.5,350.3 62.9,349.0 66.5,351.4" fill="#fff" opacity="0.11"/>
  <polygon points="334.5,447.0 326.1,458.1 318.8,459.4 306.2,455.7 301.7,447.0 309.5,434.9 318.2,432.9 326.8,431.5" fill="#9c7642" opacity="0.99"/>
  <polygon points="316.8,440.4 314.7,443.2 311.7,444.4 308.3,442.6 307.4,437.5 310.6,435.1 314.2,436.1" fill="#fff" opacity="0.15"/>
  <polygon points="396.7,379.1 393.9,385.7 388.6,383.5 383.2,377.5 387.4,371.9 394.5,372.1" fill="#7a5828" opacity="0.73"/>
  <polygon points="501.8,171.8 489.0,201.5 452.5,188.5 456.7,159.9 480.6,150.2" fill="#a8814a" opacity="0.91"/>
  <polygon points="475.1,168.0 469.2,175.5 462.5,172.6 461.0,163.6 468.6,162.5" fill="#fff" opacity="0.14"/>
  <polygon points="496.2,389.9 484.6,401.5 474.9,396.0 476.3,381.2 485.4,378.3" fill="#9c7642" opacity="0.85"/>
  <polygon points="911.3,851.7 905.3,869.1 884.6,873.5 879.7,855.5 882.4,837.5 903.0,840.0" fill="#6e4e22" opacity="0.86"/>
  <polygon points="893.9,848.2 888.9,853.3 883.6,851.8 883.1,845.1 889.8,844.4" fill="#fff" opacity="0.14"/>
  <polygon points="709.1,23.8 707.5,29.7 700.0,31.6 696.2,29.8 691.6,24.4 696.5,19.5 700.6,16.8 707.6,18.3" fill="#7a5828" opacity="0.71"/>
  <polygon points="973.0,689.4 968.5,699.5 950.0,699.9 941.7,692.7 938.7,681.0 954.1,671.5 967.8,674.3" fill="#7a5828" opacity="0.86"/>
  <polygon points="954.3,681.4 951.0,685.4 945.7,684.6 945.4,678.6 950.0,676.9" fill="#fff" opacity="0.22"/>
  <polygon points="668.1,817.2 660.8,833.7 642.7,843.8 628.9,827.4 627.3,812.2 645.8,795.4 656.8,804.6" fill="#6e4e22" opacity="0.75"/>
  <polygon points="644.8,812.6 641.1,818.7 634.3,814.9 632.8,808.9 641.5,805.5" fill="#fff" opacity="0.17"/>
  <polygon points="81.4,5.9 79.6,23.5 57.2,26.4 46.2,19.2 38.0,3.9 44.7,-13.4 56.5,-13.5 72.9,-11.7" fill="#a8814a" opacity="0.98"/>
  <polygon points="58.7,-1.2 54.4,5.3 46.9,1.1 47.5,-5.9 54.6,-9.9" fill="#fff" opacity="0.22"/>
  <polygon points="1168.1,768.3 1162.6,783.1 1152.5,779.8 1143.6,768.0 1148.8,757.2 1162.1,755.9" fill="#8c6638" opacity="0.75"/>
  <polygon points="597.8,772.6 587.6,802.1 563.7,793.5 550.8,780.9 568.6,759.0 586.2,755.6" fill="#7a5828" opacity="0.76"/>
  <polygon points="577.1,767.1 572.4,774.4 565.6,772.9 562.8,767.2 564.6,760.8 571.4,761.8" fill="#fff" opacity="0.11"/>
  <polygon points="804.1,613.4 787.5,631.7 766.6,627.2 768.6,602.5 786.8,599.3" fill="#9c7642" opacity="0.77"/>
  <polygon points="782.2,608.5 778.0,613.3 769.3,611.3 771.1,603.9 777.0,602.2" fill="#fff" opacity="0.20"/>
  <polygon points="875.9,421.1 866.8,436.0 852.7,430.4 854.1,415.5 865.8,410.1" fill="#9c7642" opacity="0.76"/>
  <polygon points="677.7,18.1 673.7,31.6 660.8,32.7 648.5,27.0 648.5,13.1 659.9,3.8 671.1,5.3" fill="#bf9560" opacity="0.73"/>
  <polygon points="663.2,14.1 660.5,18.5 656.9,17.8 653.9,14.7 656.5,10.7 660.5,9.8" fill="#fff" opacity="0.17"/>
  <polygon points="122.3,597.5 118.5,609.8 106.4,616.4 96.3,603.2 94.8,589.2 103.2,584.0 114.0,588.3" fill="#9c7642" opacity="0.97"/>
  <polygon points="106.6,594.5 105.2,596.8 100.5,597.3 98.4,594.1 100.3,590.6 105.0,589.1" fill="#fff" opacity="0.21"/>
  <polygon points="270.9,711.8 258.8,725.9 236.1,719.7 235.7,696.3 261.0,693.5" fill="#9c7642" opacity="0.88"/>
  <polygon points="254.3,701.8 250.5,706.8 246.1,707.8 243.5,702.2 245.8,697.3 251.3,698.6" fill="#fff" opacity="0.13"/>
  <polygon points="863.4,423.5 852.4,443.7 836.2,443.2 827.2,427.5 838.3,409.6 850.2,411.5" fill="#9c7642" opacity="0.75"/>
  <polygon points="843.9,422.3 842.2,424.5 838.5,426.3 835.7,424.0 835.7,419.9 838.5,416.2 842.5,419.0" fill="#fff" opacity="0.19"/>
  <polygon points="1035.1,411.4 1026.9,419.1 1010.2,420.2 1002.8,408.0 1013.0,400.3 1027.8,396.8" fill="#a8814a" opacity="0.71"/>
  <polygon points="1018.1,405.3 1016.4,408.4 1012.9,408.9 1011.1,407.1 1010.9,403.4 1012.7,400.9 1016.1,401.9" fill="#fff" opacity="0.23"/>
  <polygon points="526.0,265.0 520.8,274.8 514.6,276.1 504.3,271.0 503.9,263.0 511.0,256.1 519.2,258.1" fill="#6e4e22" opacity="0.74"/>
  <polygon points="295.9,73.1 294.1,82.9 285.7,85.8 278.4,80.9 276.7,74.8 278.7,65.2 284.7,63.7 294.0,67.3" fill="#a8814a" opacity="0.84"/>
  <polygon points="501.3,432.7 496.7,440.8 489.7,442.8 486.1,436.3 485.2,431.7 490.2,427.5 496.3,427.7" fill="#bf9560" opacity="0.74"/>
  <polygon points="569.1,152.6 562.8,161.3 550.5,166.5 546.9,159.0 543.1,149.2 553.1,142.2 563.4,140.8" fill="#8c6638" opacity="0.99"/>
  <polygon points="481.7,831.8 477.7,838.1 472.7,840.5 464.8,834.3 465.7,829.9 472.0,823.9 476.6,826.7" fill="#8c6638" opacity="0.82"/>
  <polygon points="1070.8,376.6 1067.7,384.3 1055.8,387.8 1050.0,383.8 1047.4,374.4 1050.1,366.9 1056.2,364.2 1066.9,363.2" fill="#a8814a" opacity="0.71"/>
  <polygon points="807.1,374.5 802.4,389.7 782.3,397.5 772.3,384.5 772.9,371.7 785.5,362.2 798.2,366.1" fill="#7a5828" opacity="0.86"/>
  <polygon points="788.3,371.0 786.6,374.8 781.4,377.3 775.9,373.9 775.7,368.4 779.3,364.8 785.8,366.1" fill="#fff" opacity="0.18"/>
  <polygon points="126.4,420.8 124.4,441.7 102.2,445.9 88.9,432.8 85.3,407.9 102.5,402.9 117.3,402.9" fill="#8c6638" opacity="0.92"/>
  <polygon points="103.9,415.0 102.2,422.3 97.1,422.4 92.4,418.6 90.5,412.6 95.8,407.7 102.6,410.4" fill="#fff" opacity="0.18"/>
  <polygon points="460.0,166.8 450.8,184.8 431.8,195.6 414.1,185.1 415.9,158.0 431.1,152.0 445.0,153.3" fill="#8c6638" opacity="0.86"/>
  <polygon points="434.1,164.6 430.6,167.7 427.8,170.3 422.5,166.3 420.6,163.3 422.4,158.4 428.1,156.4 431.8,158.0" fill="#fff" opacity="0.15"/>
  <polygon points="325.0,439.0 321.2,451.3 307.2,455.7 299.7,448.2 299.3,436.0 304.7,425.4 317.9,426.6" fill="#8c6638" opacity="0.93"/>
  <polygon points="309.7,434.9 309.1,437.9 305.7,439.2 303.4,438.1 301.8,435.9 303.3,432.8 307.0,430.5 308.6,432.3" fill="#fff" opacity="0.18"/>
  <polygon points="668.8,780.8 663.6,797.8 644.9,796.9 629.5,784.7 637.1,763.1 657.1,763.9" fill="#8c6638" opacity="0.81"/>
  <polygon points="650.0,774.8 646.4,779.6 640.3,778.6 638.5,774.8 641.1,768.6 645.9,768.3" fill="#fff" opacity="0.11"/>
  <polygon points="1136.7,185.5 1135.2,191.0 1130.5,193.9 1125.0,192.4 1123.5,184.8 1123.1,180.2 1130.7,177.7 1135.6,178.2" fill="#9c7642" opacity="0.91"/>
  <polygon points="567.2,466.5 552.2,485.8 534.9,476.7 534.2,449.6 558.0,445.3" fill="#bf9560" opacity="0.71"/>
  <polygon points="548.3,459.0 547.9,462.4 543.1,463.5 538.6,461.8 536.8,457.7 539.1,454.8 543.2,453.6 546.3,454.0" fill="#fff" opacity="0.22"/>
  <polygon points="1180.1,808.0 1179.1,812.1 1172.7,814.3 1168.2,811.0 1165.2,806.7 1169.1,803.0 1172.5,799.8 1177.4,800.7" fill="#8c6638" opacity="0.82"/>
  <polygon points="962.5,899.6 960.4,908.6 952.8,907.3 946.3,905.0 943.5,898.4 947.1,891.0 954.7,884.9 958.8,890.0" fill="#bf9560" opacity="0.99"/>
  <polygon points="681.0,584.0 669.5,600.8 651.8,605.8 642.1,591.0 641.0,579.2 658.0,564.1 673.0,569.2" fill="#8c6638" opacity="0.83"/>
  <polygon points="659.0,578.7 654.6,583.7 649.0,582.0 648.1,574.5 654.3,572.8" fill="#fff" opacity="0.25"/>
  <polygon points="1049.7,106.4 1046.5,114.4 1035.4,116.2 1031.0,109.1 1036.6,98.0 1044.6,99.6" fill="#7a5828" opacity="0.77"/>
  <polygon points="817.8,896.8 807.1,915.8 791.7,923.3 774.2,900.6 771.3,884.2 792.5,874.7 816.7,876.9" fill="#a8814a" opacity="0.96"/>
  <polygon points="795.0,886.7 790.8,894.1 782.2,890.6 782.7,881.7 790.7,880.5" fill="#fff" opacity="0.22"/>
  <polygon points="978.9,561.3 973.3,575.0 956.6,574.7 951.2,560.1 954.1,546.2 970.2,549.4" fill="#9c7642" opacity="0.72"/>
  <polygon points="962.4,555.9 960.1,561.0 955.2,559.0 955.9,553.8 960.5,551.7" fill="#fff" opacity="0.14"/>
  <polygon points="127.1,888.2 118.3,903.5 95.3,898.9 94.5,879.6 121.7,870.6" fill="#6e4e22" opacity="0.83"/>
  <polygon points="112.0,883.6 108.0,888.1 105.2,889.9 101.2,885.2 100.7,880.3 104.6,879.1 109.6,880.2" fill="#fff" opacity="0.24"/>
  <polygon points="282.1,771.8 276.9,786.0 265.0,790.6 254.8,780.4 250.3,768.1 261.4,757.4 273.5,761.6" fill="#bf9560" opacity="0.94"/>
  <polygon points="264.7,769.7 261.8,773.1 257.4,771.5 257.9,766.8 261.7,764.7" fill="#fff" opacity="0.24"/>
  <polygon points="358.9,314.5 354.6,318.5 346.2,319.6 341.3,315.2 340.6,308.0 348.2,304.5 355.5,307.3" fill="#bf9560" opacity="0.93"/>
  <polygon points="211.1,503.2 209.5,511.5 201.1,514.0 194.6,510.7 191.8,504.1 194.0,497.2 201.1,494.7 209.7,497.7" fill="#7a5828" opacity="0.94"/>
  <polygon points="674.7,16.4 661.7,30.3 646.1,39.2 631.0,29.9 633.0,10.4 645.0,0.1 665.1,-2.8" fill="#7a5828" opacity="0.99"/>
  <polygon points="650.8,10.2 647.0,13.1 641.8,13.5 638.1,7.8 642.1,3.9 647.7,3.6" fill="#fff" opacity="0.18"/>
  <polygon points="740.2,612.6 727.0,637.9 700.4,624.1 701.3,606.1 721.3,594.7" fill="#a8814a" opacity="0.93"/>
  <polygon points="716.4,608.1 715.2,612.7 709.5,613.6 705.9,612.5 702.7,607.2 706.1,602.4 709.2,600.3 713.1,603.1" fill="#fff" opacity="0.17"/>
  <polygon points="307.7,768.5 295.1,790.0 276.4,791.2 267.5,769.0 277.0,745.9 299.2,751.5" fill="#a8814a" opacity="0.94"/>
  <polygon points="285.1,762.3 283.4,768.2 275.6,767.3 274.7,760.8 276.7,755.4 282.7,756.0" fill="#fff" opacity="0.12"/>
  <polygon points="495.9,33.9 488.8,48.3 477.7,40.5 475.1,27.1 490.2,26.8" fill="#8c6638" opacity="0.73"/>
  <polygon points="990.5,190.4 980.6,210.3 951.0,207.2 947.3,187.6 951.6,171.6 980.0,170.7" fill="#9c7642" opacity="0.91"/>
  <polygon points="966.4,181.1 961.0,186.3 954.1,186.6 951.1,181.5 954.1,176.5 961.9,175.0" fill="#fff" opacity="0.17"/>
  <polygon points="609.9,182.2 605.5,189.3 602.3,192.3 593.8,189.5 593.2,183.6 596.0,178.4 601.6,176.2 608.5,178.9" fill="#6e4e22" opacity="0.74"/>
  <polygon points="503.0,326.0 497.1,332.1 491.0,335.1 481.1,329.1 482.4,317.2 488.6,314.7 497.8,316.1" fill="#a8814a" opacity="0.96"/>
  <polygon points="109.8,189.7 98.8,200.6 88.3,203.0 78.4,196.5 75.6,190.1 76.8,172.1 88.5,168.4 100.9,172.6" fill="#6e4e22" opacity="0.88"/>
  <polygon points="89.1,182.4 88.4,185.1 84.3,186.8 81.3,185.8 79.0,181.5 81.3,178.4 84.0,176.8 87.5,177.6" fill="#fff" opacity="0.14"/>
  <polygon points="546.7,236.6 537.4,249.6 521.6,258.8 512.0,253.1 504.7,234.7 503.5,223.1 526.1,219.0 535.3,223.4" fill="#9c7642" opacity="0.72"/>
  <polygon points="522.8,230.5 520.4,233.5 514.5,237.2 511.1,233.7 509.9,228.6 511.0,223.1 514.4,222.7 519.8,224.9" fill="#fff" opacity="0.13"/>
  <polygon points="693.8,451.7 693.7,463.9 675.0,470.3 667.9,465.3 656.2,448.2 667.5,438.8 672.7,430.7 689.9,436.3" fill="#8c6638" opacity="0.80"/>
  <polygon points="676.0,445.6 673.7,449.3 671.1,450.5 667.7,450.1 665.6,446.2 666.7,441.9 670.0,440.8 675.0,440.9" fill="#fff" opacity="0.12"/>
  <polygon points="705.6,518.3 697.7,533.0 687.5,538.1 673.5,529.2 668.3,519.7 672.0,505.4 686.3,501.0 698.7,503.7" fill="#bf9560" opacity="0.70"/>
  <polygon points="685.4,513.1 683.7,516.7 680.1,517.9 675.4,516.2 676.2,509.9 680.1,506.9 683.7,509.3" fill="#fff" opacity="0.20"/>
  <polygon points="784.3,44.0 786.2,53.9 772.7,59.0 762.2,56.0 755.7,45.1 760.0,34.9 769.4,30.1 780.3,33.7" fill="#7a5828" opacity="0.74"/>
  <polygon points="771.6,39.6 768.6,42.5 764.5,42.2 762.5,39.0 765.6,35.5 768.6,34.7" fill="#fff" opacity="0.17"/>
  <polygon points="340.6,158.3 337.0,161.5 333.2,163.2 326.9,164.3 325.0,156.1 328.1,152.1 332.7,148.5 337.0,151.3" fill="#7a5828" opacity="0.94"/>
  <polygon points="623.3,93.0 620.9,105.2 606.1,108.1 600.4,102.2 598.8,90.4 606.8,82.6 617.3,86.1" fill="#8c6638" opacity="0.79"/>
  <polygon points="380.0,798.5 375.0,812.6 360.9,814.0 351.7,803.8 357.1,788.3 373.1,787.0" fill="#8c6638" opacity="0.95"/>
  <polygon points="364.5,796.0 362.7,799.3 360.4,801.2 357.3,798.2 357.8,793.7 360.7,791.0 363.4,792.5" fill="#fff" opacity="0.20"/>
  <polygon points="18.0,675.1 12.0,682.5 -1.4,687.3 -12.6,679.4 -10.7,663.2 -0.5,657.9 14.6,661.2" fill="#a8814a" opacity="0.95"/>
  <polygon points="3.1,668.3 2.1,670.7 -0.7,672.8 -4.2,670.8 -5.2,668.3 -4.0,663.6 -0.9,664.2 1.3,664.5" fill="#fff" opacity="0.20"/>
  <polygon points="271.6,671.8 271.2,680.0 263.8,682.6 251.8,678.0 250.9,670.7 255.1,661.3 261.6,659.5 269.9,661.0" fill="#6e4e22" opacity="0.74"/>
  <polygon points="1068.3,512.0 1055.4,529.5 1035.2,534.0 1022.1,514.2 1033.6,488.1 1055.4,491.0" fill="#7a5828" opacity="0.91"/>
  <polygon points="1043.5,502.8 1041.4,509.9 1036.2,508.6 1030.7,505.4 1030.8,499.8 1035.8,495.2 1041.4,498.2" fill="#fff" opacity="0.15"/>
  <polygon points="73.3,488.4 66.7,495.3 58.8,490.9 57.0,482.3 66.3,479.4" fill="#6e4e22" opacity="0.72"/>
  <polygon points="156.0,296.3 154.8,311.6 143.7,314.1 132.7,308.5 126.5,299.9 128.7,284.5 140.3,280.1 152.9,285.3" fill="#bf9560" opacity="0.96"/>
  <polygon points="139.4,292.1 138.1,295.4 134.4,296.6 131.7,294.3 131.1,290.6 133.2,286.8 137.7,288.7" fill="#fff" opacity="0.17"/>
  <polygon points="558.4,616.5 547.9,634.1 525.6,635.2 514.4,620.0 515.3,605.8 527.4,594.1 547.3,599.0" fill="#bf9560" opacity="0.83"/>
  <polygon points="534.2,602.7 528.0,610.3 520.9,606.7 521.5,600.0 528.9,598.1" fill="#fff" opacity="0.14"/>
  <polygon points="692.9,556.7 685.7,570.7 673.7,571.8 661.3,571.8 656.1,558.7 663.8,540.4 672.4,539.6 689.0,538.6" fill="#a8814a" opacity="0.79"/>
  <polygon points="674.3,548.1 671.4,553.1 665.6,553.3 662.5,547.8 664.8,543.7 670.6,544.0" fill="#fff" opacity="0.24"/>
  <polygon points="185.1,132.3 176.7,143.1 161.9,136.2 163.3,124.3 176.6,116.9" fill="#6e4e22" opacity="0.90"/>
  <polygon points="963.4,278.4 951.4,300.0 925.3,293.9 930.5,266.5 950.3,260.5" fill="#8c6638" opacity="0.94"/>
  <polygon points="945.2,270.0 940.9,276.3 935.2,276.6 931.5,272.4 929.8,266.6 935.3,263.2 941.4,264.6" fill="#fff" opacity="0.15"/>
  <polygon points="984.0,310.6 979.0,320.5 971.5,324.6 960.0,319.8 956.7,312.3 965.1,304.0 968.8,298.4 977.1,303.8" fill="#9c7642" opacity="0.92"/>
  <polygon points="622.2,504.6 617.2,517.5 610.7,518.6 599.0,516.2 595.9,507.2 600.9,498.4 610.7,495.9 619.0,495.4" fill="#7a5828" opacity="0.99"/>
  <polygon points="608.8,502.5 605.7,505.6 601.9,505.5 600.1,501.8 602.5,498.8 607.0,498.9" fill="#fff" opacity="0.19"/>
  <polygon points="988.5,183.7 982.8,190.1 975.8,194.3 966.6,190.8 965.6,183.8 968.1,176.4 974.1,173.2 984.0,172.6" fill="#6e4e22" opacity="0.80"/>
  <polygon points="795.3,391.7 793.1,399.1 778.5,407.7 769.5,405.3 764.1,391.9 765.4,378.3 782.0,374.6 793.3,380.2" fill="#7a5828" opacity="0.80"/>
  <polygon points="778.6,384.8 776.3,388.6 772.2,389.0 770.6,384.5 771.9,381.0 776.8,380.8" fill="#fff" opacity="0.24"/>
  <polygon points="256.6,11.9 248.6,26.3 239.6,33.5 215.1,25.3 210.4,8.0 219.5,-8.5 231.5,-12.0 253.4,-4.7" fill="#6e4e22" opacity="0.97"/>
  <polygon points="234.1,4.0 233.2,8.9 224.6,9.5 221.7,3.5 224.9,-2.9 231.5,-2.0" fill="#fff" opacity="0.13"/>
  <polygon points="657.8,132.1 652.3,140.1 644.9,137.6 643.9,127.5 652.0,126.5" fill="#9c7642" opacity="0.77"/>
  <polygon points="1079.9,492.0 1075.3,501.9 1060.8,509.6 1040.9,507.4 1034.9,484.0 1040.2,475.7 1060.3,461.2 1081.6,473.1" fill="#7a5828" opacity="0.79"/>
  <polygon points="1060.1,482.4 1054.5,487.1 1046.7,487.5 1045.3,481.8 1046.8,474.9 1056.3,473.7" fill="#fff" opacity="0.14"/>
  <polygon points="1137.2,161.4 1130.5,177.0 1113.5,177.7 1106.7,167.2 1102.7,152.8 1114.2,141.2 1133.0,146.1" fill="#bf9560" opacity="0.83"/>
  <polygon points="1120.2,153.7 1118.0,155.9 1112.9,159.2 1110.0,157.8 1109.4,152.5 1111.2,149.4 1113.9,147.8 1119.0,149.5" fill="#fff" opacity="0.18"/>
  <polygon points="1002.8,454.2 991.6,470.3 982.0,479.5 964.0,459.9 964.5,444.7 982.1,437.1 998.7,437.0" fill="#6e4e22" opacity="0.78"/>
  <polygon points="983.1,447.6 978.0,454.5 971.1,453.9 969.0,446.6 972.2,441.3 977.9,442.0" fill="#fff" opacity="0.15"/>
  <polygon points="781.2,90.1 776.8,102.9 764.9,98.2 756.3,85.7 764.1,74.5 774.9,75.2" fill="#bf9560" opacity="0.95"/>
  <polygon points="768.9,82.5 766.0,87.5 761.5,86.4 761.6,81.1 767.0,78.7" fill="#fff" opacity="0.24"/>
  <polygon points="469.2,229.2 466.1,237.8 457.8,239.3 451.7,237.5 446.3,230.0 450.8,223.6 455.5,220.9 462.3,223.5" fill="#a8814a" opacity="0.74"/>
  <polygon points="235.0,685.6 217.9,705.7 193.5,695.8 193.7,668.9 215.9,657.8" fill="#bf9560" opacity="0.96"/>
  <polygon points="207.4,675.8 204.7,680.4 198.7,681.2 193.1,675.3 197.6,670.0 205.6,669.4" fill="#fff" opacity="0.19"/>
  <polygon points="812.7,442.8 809.0,449.2 801.8,450.0 796.6,448.0 796.3,441.0 800.9,435.7 809.4,437.7" fill="#8c6638" opacity="0.70"/>
  <polygon points="1024.2,184.4 1008.8,197.5 995.9,190.4 994.7,173.4 1008.8,163.3" fill="#6e4e22" opacity="0.98"/>
  <polygon points="1005.3,175.2 1004.0,180.0 998.0,180.4 995.4,174.8 997.6,172.0 1003.8,171.7" fill="#fff" opacity="0.23"/>
  <polygon points="155.5,659.6 153.1,670.3 138.9,671.8 128.5,670.1 123.9,660.8 131.3,647.4 138.0,647.3 150.2,647.3" fill="#7a5828" opacity="0.96"/>
  <polygon points="139.2,655.8 137.1,658.6 134.0,659.4 131.6,656.7 130.8,653.5 133.9,651.1 137.1,651.5" fill="#fff" opacity="0.23"/>
  <polygon points="1015.8,275.7 1009.5,290.3 991.1,297.2 981.6,295.9 977.2,279.3 981.3,263.8 993.8,263.0 1007.8,265.4" fill="#7a5828" opacity="0.82"/>
  <polygon points="993.8,273.7 989.6,278.3 982.3,275.4 982.9,268.4 988.7,266.5" fill="#fff" opacity="0.17"/>
  <polygon points="1019.7,469.8 1003.7,489.6 983.9,480.6 978.8,453.1 1006.3,443.3" fill="#8c6638" opacity="0.76"/>
  <polygon points="998.3,460.0 994.7,464.7 987.3,464.8 985.8,458.4 987.8,453.9 994.7,453.9" fill="#fff" opacity="0.18"/>
  <polygon points="742.9,294.9 738.0,311.5 727.8,318.1 714.6,315.3 706.7,295.9 718.0,285.1 729.0,282.9 742.0,286.9" fill="#7a5828" opacity="0.77"/>
  <polygon points="727.1,291.6 724.9,296.6 719.6,297.4 716.6,294.6 715.6,292.3 717.7,288.0 721.6,285.7 723.9,288.2" fill="#fff" opacity="0.23"/>
  <polygon points="134.9,679.6 128.7,693.9 116.8,695.0 106.6,692.8 103.8,679.7 106.9,665.5 120.0,667.5 131.6,669.5" fill="#bf9560" opacity="0.71"/>
  <polygon points="116.9,674.9 113.3,678.5 109.2,676.8 108.9,672.8 113.9,670.9" fill="#fff" opacity="0.12"/>
  <polygon points="196.9,733.3 181.3,754.4 167.4,757.2 157.3,737.7 162.9,720.2 185.4,721.7" fill="#6e4e22" opacity="0.77"/>
  <polygon points="175.1,730.1 172.2,733.8 168.2,735.5 163.8,733.7 161.5,729.8 164.2,723.4 167.2,723.6 173.3,725.5" fill="#fff" opacity="0.21"/>
  <polygon points="620.9,462.2 613.4,474.4 601.5,476.6 590.3,464.6 591.0,454.1 603.1,442.0 615.5,445.9" fill="#6e4e22" opacity="0.70"/>
  <polygon points="602.5,455.2 600.7,459.9 596.2,458.9 593.0,456.3 596.6,451.2 599.9,450.5" fill="#fff" opacity="0.19"/>
  <polygon points="891.6,719.6 882.3,727.8 867.0,733.7 859.1,724.6 861.7,711.3 868.4,703.5 880.3,705.7" fill="#a8814a" opacity="0.80"/>
  <polygon points="874.0,712.9 871.3,717.4 867.9,717.0 865.1,714.0 863.9,711.5 867.9,708.0 871.2,710.2" fill="#fff" opacity="0.11"/>
  <polygon points="151.1,390.7 146.5,396.9 138.8,396.3 134.1,389.5 138.3,382.5 147.4,382.5" fill="#6e4e22" opacity="0.87"/>
  <polygon points="1082.9,410.0 1078.2,423.3 1065.7,420.7 1061.0,412.2 1064.3,403.2 1080.6,401.4" fill="#7a5828" opacity="0.85"/>
  <polygon points="878.8,309.5 874.1,322.6 860.0,324.5 852.2,318.7 846.7,307.0 851.8,295.6 864.4,291.0 872.1,296.4" fill="#bf9560" opacity="0.78"/>
  <polygon points="859.7,302.2 856.9,306.0 852.3,306.4 849.4,301.8 852.3,298.0 857.8,297.1" fill="#fff" opacity="0.22"/>
  <polygon points="332.4,852.3 330.3,860.5 320.3,863.2 308.9,858.1 309.2,848.2 318.0,841.6 327.9,840.5" fill="#8c6638" opacity="0.86"/>
  <polygon points="1094.8,397.3 1089.8,407.2 1075.3,409.3 1069.2,394.8 1078.5,384.2 1091.6,383.8" fill="#6e4e22" opacity="0.71"/>
  <polygon points="1081.7,392.7 1081.4,395.7 1077.7,396.7 1074.6,395.3 1074.1,393.0 1074.6,389.6 1077.7,388.3 1081.1,390.2" fill="#fff" opacity="0.17"/>
  <polygon points="893.4,491.0 885.7,503.0 872.9,505.6 864.3,490.9 874.3,479.6 887.7,476.4" fill="#7a5828" opacity="0.95"/>
  <polygon points="881.2,486.0 879.2,489.5 875.4,490.0 872.6,487.4 871.5,484.8 875.5,482.0 877.9,483.0" fill="#fff" opacity="0.16"/>
  <polygon points="755.2,897.4 749.4,909.7 730.3,913.6 722.5,898.9 730.2,883.7 750.3,880.7" fill="#6e4e22" opacity="0.87"/>
  <polygon points="740.0,889.5 737.5,892.5 733.5,894.6 730.6,894.7 729.2,889.3 729.9,887.1 733.7,885.6 737.2,886.8" fill="#fff" opacity="0.23"/>
  <polygon points="1129.7,766.2 1121.7,786.6 1100.8,788.8 1087.2,779.1 1088.5,760.4 1096.8,746.3 1121.2,751.5" fill="#7a5828" opacity="0.88"/>
  <polygon points="1103.5,761.5 1101.3,767.6 1096.3,770.0 1092.7,766.9 1092.2,762.0 1093.2,758.1 1098.8,755.0 1102.5,758.9" fill="#fff" opacity="0.20"/>
  <polygon points="304.4,491.4 300.1,502.0 292.6,501.7 286.8,498.1 285.5,493.1 288.0,486.7 292.4,482.0 302.7,483.9" fill="#8c6638" opacity="0.84"/>
  <polygon points="198.7,349.0 193.0,361.3 185.0,362.3 177.6,354.0 178.0,344.8 182.8,341.1 194.8,342.1" fill="#8c6638" opacity="0.88"/>
  <polygon points="950.0,225.9 945.6,236.3 929.6,237.9 926.5,226.3 928.2,214.2 947.2,214.8" fill="#a8814a" opacity="0.92"/>
  <polygon points="938.0,221.6 933.8,226.8 929.3,225.2 929.3,219.9 934.3,217.7" fill="#fff" opacity="0.21"/>
  <polygon points="137.7,505.3 137.4,512.0 123.3,514.4 119.1,507.5 119.9,499.0 125.9,495.2 135.3,494.9" fill="#a8814a" opacity="0.95"/>
  <polygon points="613.4,378.8 609.6,384.1 605.0,385.3 598.3,380.9 598.4,375.9 604.5,369.1 610.0,373.1" fill="#bf9560" opacity="0.84"/>
  <polygon points="452.1,428.0 444.7,437.9 434.2,434.1 433.5,421.8 446.2,420.4" fill="#bf9560" opacity="0.90"/>
  <polygon points="423.4,123.6 421.2,132.2 407.8,137.9 396.5,128.1 398.4,115.7 408.5,109.9 417.5,109.7" fill="#8c6638" opacity="0.79"/>
  <polygon points="409.9,117.2 408.7,120.2 403.4,121.2 400.1,119.3 400.6,115.7 403.7,113.3 407.7,112.7" fill="#fff" opacity="0.19"/>
  <polygon points="870.5,598.1 866.9,605.4 857.7,606.3 850.4,606.1 846.8,598.0 850.5,589.0 857.0,583.9 866.1,586.5" fill="#a8814a" opacity="0.87"/>
  <polygon points="834.1,720.6 828.8,729.2 818.1,725.1 817.5,713.5 829.4,712.0" fill="#9c7642" opacity="0.80"/>
  <polygon points="192.0,112.7 188.3,119.3 177.4,121.4 174.3,111.4 179.0,103.0 188.1,100.8" fill="#bf9560" opacity="0.77"/>
  <polygon points="836.9,142.7 831.4,148.8 821.5,156.3 815.5,150.1 813.4,139.9 817.6,134.4 822.5,131.1 833.5,133.0" fill="#9c7642" opacity="0.81"/>
  <polygon points="654.3,211.3 647.9,225.4 633.5,233.1 623.8,228.0 617.5,213.1 624.5,203.9 631.2,198.3 650.2,203.8" fill="#6e4e22" opacity="0.98"/>
  <polygon points="634.0,209.1 632.1,212.5 627.7,215.2 624.9,212.4 622.2,209.3 625.1,204.7 628.9,203.0 630.7,205.4" fill="#fff" opacity="0.22"/>
  <polygon points="593.9,712.1 584.6,736.3 559.7,735.7 552.4,714.2 563.2,688.9 581.7,692.3" fill="#8c6638" opacity="0.96"/>
  <polygon points="570.0,704.7 565.6,711.5 556.7,709.1 558.4,699.0 564.4,696.4" fill="#fff" opacity="0.17"/>
  <polygon points="1085.8,681.9 1075.3,698.2 1053.2,690.3 1057.0,673.5 1073.1,665.5" fill="#7a5828" opacity="0.87"/>
  <polygon points="1068.8,676.4 1065.6,681.2 1059.8,681.5 1056.9,676.6 1059.6,671.8 1065.5,673.2" fill="#fff" opacity="0.22"/>
  <polygon points="87.9,824.0 81.3,832.2 73.8,830.7 74.0,820.6 80.8,815.9" fill="#bf9560" opacity="0.81"/>
  <polygon points="183.0,86.2 158.9,115.0 139.4,100.3 140.3,72.4 164.8,66.7" fill="#6e4e22" opacity="0.80"/>
  <polygon points="152.5,79.1 148.8,85.9 141.1,85.3 138.3,77.7 141.7,71.7 149.5,72.6" fill="#fff" opacity="0.15"/>
  <polygon points="73.1,410.2 69.0,423.5 50.9,426.7 38.1,407.4 47.9,390.5 63.9,394.3" fill="#bf9560" opacity="0.98"/>
  <polygon points="56.7,402.4 52.9,407.0 47.3,405.6 47.1,398.8 53.5,397.5" fill="#fff" opacity="0.23"/>
  <polygon points="1031.3,497.4 1019.6,515.7 1003.4,512.7 995.6,499.8 1004.8,485.7 1025.9,484.1" fill="#6e4e22" opacity="0.91"/>
  <polygon points="1012.0,492.6 1010.8,497.4 1006.9,499.8 1004.2,497.4 1001.5,494.1 1002.6,489.3 1006.3,487.7 1011.3,488.1" fill="#fff" opacity="0.19"/>
  <polygon points="413.6,192.4 407.1,209.1 389.2,202.4 390.6,186.7 406.0,185.5" fill="#9c7642" opacity="0.81"/>
  <polygon points="1140.4,883.7 1123.6,899.9 1106.8,891.4 1104.0,864.2 1130.8,857.4" fill="#8c6638" opacity="0.84"/>
  <polygon points="1119.1,872.7 1116.3,877.5 1112.0,879.2 1106.9,875.6 1108.5,870.0 1112.0,866.2 1116.0,868.1" fill="#fff" opacity="0.14"/>
  <rect width="1200" height="900" fill="url(#vignette)" opacity="0.25"/>
  <g font-family="Inter, Helvetica, Arial, sans-serif" text-anchor="middle"><text x="600" y="870" font-size="14" fill="#fff" opacity="0.45" letter-spacing="2">ПЕСОК КАРЬЕРНЫЙ · МАКРО</text></g>
</svg>