<svg xmlns="http://www.w3.org/2000/svg" viewBox="0 0 1200 900" preserveAspectRatio="xMidYMid slice">
  <defs><radialGradient id="vignette" cx="50%" cy="50%" r="70%"><stop offset="0%" stop-color="#e6d6a8" stop-opacity="1"/><stop offset="100%" stop-color="#e6d6a8" stop-opacity="0.55"/></radialGradient><filter id="blur" x="-20%" y="-20%" width="140%" height="140%"><feGaussianBlur stdDeviation="0.5"/></filter></defs><rect width="1200" height="900" fill="url(#vignette)"/>
  <circle cx="154" cy="520" r="10" fill="#d9c896" opacity="0.33" filter="url(#blur)"/>
  <circle cx="720" cy="727" r="13" fill="#d9c896" opacity="0.54" filter="url(#blur)"/>
  <circle cx="501" cy="723" r="15" fill="#b39a5e" opacity="0.32" filter="url(#blur)"/>
  <circle cx="194" cy="67" r="7" fill="#c9b078" opacity="0.36" filter="url(#blur)"/>
  <circle cx="651" cy="189" r="5" fill="#8a7440" opacity="0.41" filter="url(#blur)"/>
  <circle cx="112" cy="413" r="12" fill="#d9c896" opacity="0.34" filter="url(#blur)"/>
  <circle cx="888" cy="152" r="6" fill="#bfa770" opacity="0.26" filter="url(#blur)"/>
  <circle cx="729" cy="472" r="8" fill="#bfa770" opacity="0.27" filter="url(#blur)"/>
  <circle cx="553" cy="788" r="8" fill="#d9c896" opacity="0.36" filter="url(#blur)"/>
  <circle cx="911" cy="605" r="12" fill="#d9c896" opacity="0.50" filter="url(#blur)"/>
  <circle cx="224" cy="725" r="7" fill="#8a7440" opacity="0.33" filter="url(#blur)"/>
  <circle cx="598" cy="329" r="9" fill="#b39a5e" opacity="0.54" filter="url(#blur)"/>
  <circle cx="240" cy="276" r="13" fill="#a08544" opacity="0.30" filter="url(#blur)"/>
  <circle cx="368" cy="485" r="15" fill="#8a7440" opacity="0.53" filter="url(#blur)"/>
  <circle cx="1189" cy="218" r="5" fill="#8a7440" opacity="0.39" filter="url(#blur)"/>
  <circle cx="1163" cy="600" r="19" fill="#b39a5e" opacity="0.44" filter="url(#blur)"/>
  <circle cx="464" cy="887" r="24" fill="#bfa770" opacity="0.29" filter="url(#blur)"/>
  <circle cx="435" cy="294" r="12" fill="#8a7440" opacity="0.32" filter="url(#blur)"/>
  <circle cx="722" cy="106" r="9" fill="#d9c896" opacity="0.29" filter="url(#blur)"/>
  <circle cx="7" cy="755" r="10" fill="#a08544" opacity="0.42" filter="url(#blur)"/>
  <circle cx="342" cy="119" r="8" fill="#d9c896" opacity="0.29" filter="url(#blur)"/>
  <circle cx="1102" cy="97" r="16" fill="#b39a5e" opacity="0.36" filter="url(#blur)"/>
  <circle cx="798" cy="304" r="15" fill="#bfa770" opacity="0.46" filter="url(#blur)"/>
  <circle cx="90" cy="264" r="13" fill="#b39a5e" opacity="0.38" filter="url(#blur)"/>
  <circle cx="887" cy="154" r="7" fill="#b39a5e" opacity="0.46" filter="url(#blur)"/>
  <circle cx="375" cy="503" r="6" fill="#8a7440" opacity="0.36" filter="url(#blur)"/>
  <circle cx="214" cy="346" r="16" fill="#b39a5e" opacity="0.54" filter="url(#blur)"/>
  <circle cx="6" cy="724" r="12" fill="#8a7440" opacity="0.53" filter="url(#blur)"/>
  <circle cx="859" cy="703" r="19" fill="#b39a5e" opacity="0.46" filter="url(#blur)"/>
  <circle cx="983" cy="590" r="20" fill="#c9b078" opacity="0.33" filter="url(#blur)"/>
  <circle cx="858" cy="145" r="9" fill="#b39a5e" opacity="0.34" filter="url(#blur)"/>
  <circle cx="410" cy="827" r="9" fill="#c9b078" opacity="0.37" filter="url(#blur)"/>
  <circle cx="394" cy="817" r="13" fill="#a08544" opacity="0.40" filter="url(#blur)"/>
  <circle cx="116" cy="470" r="17" fill="#d9c896" opacity="0.43" filter="url(#blur)"/>
  <circle cx="78" cy="155" r="5" fill="#bfa770" opacity="0.28" filter="url(#blur)"/>
  <circle cx="604" cy="184" r="11" fill="#8a7440" opacity="0.42" filter="url(#blur)"/>
  <circle cx="695" cy="290" r="16" fill="#bfa770" opacity="0.35" filter="url(#blur)"/>
  <circle cx="696" cy="120" r="15" fill="#d9c896" opacity="0.32" filter="url(#blur)"/>
  <circle cx="191" cy="554" r="10" fill="#c9b078" opacity="0.27" filter="url(#blur)"/>
  <circle cx="764" cy="755" r="15" fill="#c9b078" opacity="0.31" filter="url(#blur)"/>
  <circle cx="509" cy="289" r="24" fill="#d9c896" opacity="0.45" filter="url(#blur)"/>
  <circle cx="268" cy="738" r="15" fill="#d9c896" opacity="0.26" filter="url(#blur)"/>
  <circle cx="961" cy="618" r="17" fill="#a08544" opacity="0.48" filter="url(#blur)"/>
  <circle cx="805" cy="242" r="10" fill="#d9c896" opacity="0.25" filter="url(#blur)"/>
  <circle cx="881" cy="838" r="19" fill="#a08544" opacity="0.32" filter="url(#blur)"/>
  <circle cx="585" cy="477" r="13" fill="#b39a5e" opacity="0.37" filter="url(#blur)"/>
  <circle cx="474" cy="891" r="9" fill="#d9c896" opacity="0.52" filter="url(#blur)"/>
  <circle cx="742" cy="783" r="5" fill="#bfa770" opacity="0.27" filter="url(#blur)"/>
  <circle cx="545" cy="66" r="6" fill="#8a7440" opacity="0.43" filter="url(#blur)"/>
  <circle cx="70" cy="137" r="15" fill="#a08544" opacity="0.49" filter="url(#blur)"/>
  <circle cx="1055" cy="786" r="13" fill="#c9b078" opacity="0.50" filter="url(#blur)"/>
  <circle cx="237" cy="475" r="13" fill="#c9b078" opacity="0.52" filter="url(#blur)"/>
  <circle cx="136" cy="631" r="13" fill="#c9b078" opacity="0.51" filter="url(#blur)"/>
  <circle cx="505" cy="226" r="8" fill="#d9c896" opacity="0.42" filter="url(#blur)"/>
  <circle cx="905" cy="280" r="9" fill="#c9b078" opacity="0.27" filter="url(#blur)"/>
  <circle cx="714" cy="590" r="11" fill="#8a7440" opacity="0.45" filter="url(#blur)"/>
  <circle cx="381" cy="703" r="21" fill="#bfa770" opacity="0.29" filter="url(#blur)"/>
  <circle cx="481" cy="708" r="19" fill="#bfa770" opacity="0.27" filter="url(#blur)"/>
  <circle cx="836" cy="478" r="6" fill="#bfa770" opacity="0.51" filter="url(#blur)"/>
  <circle cx="193" cy="3" r="10" fill="#8a7440" opacity="0.45" filter="url(#blur)"/>
  <circle cx="204" cy="137" r="13" fill="#a08544" opacity="0.53" filter="url(#blur)"/>
  <circle cx="461" cy="741" r="12" fill="#c9b078" opacity="0.49" filter="url(#blur)"/>
  <circle cx="182" cy="277" r="11" fill="#c9b078" opacity="0.55" filter="url(#blur)"/>
  <circle cx="30" cy="428" r="8" fill="#a08544" opacity="0.89"/>
  <circle cx="902" cy="558" r="17" fill="#b39a5e" opacity="0.79"/>
  <circle cx="897" cy="553" r="6" fill="#fff" opacity="0.24"/>
  <circle cx="1062" cy="31" r="16" fill="#c9b078" opacity="0.94"/>
  <circle cx="1057" cy="26" r="6" fill="#fff" opacity="0.23"/>
  <circle cx="1197" cy="481" r="7" fill="#d9c896" opacity="0.81"/>
  <circle cx="1089" cy="544" r="20" fill="#a08544" opacity="0.81"/>
  <circle cx="1083" cy="538" r="7" fill="#fff" opacity="0.19"/>
  <circle cx="574" cy="32" r="22" fill="#a08544" opacity="0.90"/>
  <circle cx="567" cy="25" r="8" fill="#fff" opacity="0.34"/>
  <circle cx="230" cy="741" r="7" fill="#8a7440" opacity="0.77"/>
  <circle cx="697" cy="624" r="21" fill="#bfa770" opacity="0.84"/>
  <circle cx="691" cy="618" r="7" fill="#fff" opacity="0.25"/>
  <circle cx="653" cy="253" r="13" fill="#a08544" opacity="0.78"/>
  <circle cx="649" cy="249" r="5" fill="#fff" opacity="0.21"/>
  <circle cx="1070" cy="428" r="11" fill="#8a7440" opacity="0.99"/>
  <circle cx="1067" cy="425" r="4" fill="#fff" opacity="0.16"/>
  <circle cx="1123" cy="477" r="8" fill="#a08544" opacity="0.82"/>
  <circle cx="181" cy="821" r="21" fill="#bfa770" opacity="0.98"/>
  <circle cx="175" cy="815" r="7" fill="#fff" opacity="0.25"/>
  <circle cx="147" cy="56" r="9" fill="#bfa770" opacity="0.94"/>
  <circle cx="144" cy="53" r="3" fill="#fff" opacity="0.26"/>
  <circle cx="561" cy="376" r="9" fill="#a08544" opacity="0.79"/>
  <circle cx="558" cy="373" r="3" fill="#fff" opacity="0.26"/>
  <circle cx="722" cy="16" r="10" fill="#bfa770" opacity="0.73"/>
  <circle cx="719" cy="13" r="4" fill="#fff" opacity="0.33"/>
  <circle cx="104" cy="316" r="20" fill="#bfa770" opacity="0.93"/>
  <circle cx="98" cy="310" r="7" fill="#fff" opacity="0.20"/>
  <circle cx="747" cy="524" r="22" fill="#b39a5e" opacity="0.80"/>
  <circle cx="740" cy="517" r="8" fill="#fff" opacity="0.25"/>
  <circle cx="4" cy="140" r="15" fill="#d9c896" opacity="1.00"/>
  <circle cx="-0" cy="136" r="5" fill="#fff" opacity="0.35"/>
  <circle cx="960" cy="588" r="13" fill="#d9c896" opacity="0.88"/>
  <circle cx="956" cy="584" r="5" fill="#fff" opacity="0.18"/>
  <circle cx="495" cy="181" r="15" fill="#b39a5e" opacity="0.79"/>
  <circle cx="490" cy="176" r="5" fill="#fff" opacity="0.20"/>
  <circle cx="542" cy="225" r="12" fill="#8a7440" opacity="0.71"/>
  <circle cx="538" cy="221" r="4" fill="#fff" opacity="0.19"/>
  <circle cx="165" cy="590" r="16" fill="#b39a5e" opacity="0.83"/>
  <circle cx="160" cy="585" r="6" fill="#fff" opacity="0.32"/>
  <circle cx="594" cy="560" r="17" fill="#a08544" opacity="0.99"/>
  <circle cx="589" cy="555" r="6" fill="#fff" opacity="0.31"/>
  <circle cx="63" cy="156" r="9" fill="#c9b078" opacity="0.78"/>
  <circle cx="60" cy="153" r="3" fill="#fff" opacity="0.30"/>
  <circle cx="844" cy="514" r="7" fill="#c9b078" opacity="0.81"/>
  <circle cx="85" cy="343" r="20" fill="#a08544" opacity="0.74"/>
  <circle cx="79" cy="337" r="7" fill="#fff" opacity="0.29"/>
  <circle cx="520" cy="258" r="13" fill="#c9b078" opacity="0.84"/>
  <circle cx="516" cy="254" r="5" fill="#fff" opacity="0.22"/>
  <circle cx="811" cy="636" r="16" fill="#d9c896" opacity="0.75"/>
  <circle cx="806" cy="631" r="6" fill="#fff" opacity="0.26"/>
  <circle cx="331" cy="401" r="16" fill="#b39a5e" opacity="0.95"/>
  <circle cx="326" cy="396" r="6" fill="#fff" opacity="0.34"/>
  <circle cx="913" cy="691" r="9" fill="#b39a5e" opacity="0.92"/>
  <circle cx="910" cy="688" r="3" fill="#fff" opacity="0.23"/>
  <circle cx="935" cy="749" r="11" fill="#b39a5e" opacity="0.75"/>
  <circle cx="932" cy="746" r="4" fill="#fff" opacity="0.26"/>
  <circle cx="739" cy="297" r="9" fill="#c9b078" opacity="0.78"/>
  <circle cx="736" cy="294" r="3" fill="#fff" opacity="0.19"/>
  <circle cx="236" cy="752" r="6" fill="#c9b078" opacity="0.77"/>
  <circle cx="404" cy="749" r="17" fill="#b39a5e" opacity="0.76"/>
  <circle cx="399" cy="744" r="6" fill="#fff" opacity="0.30"/>
  <circle cx="263" cy="805" r="20" fill="#bfa770" opacity="0.75"/>
  <circle cx="257" cy="799" r="7" fill="#fff" opacity="0.30"/>
  <circle cx="597" cy="287" r="15" fill="#b39a5e" opacity="0.95"/>
  <circle cx="592" cy="282" r="5" fill="#fff" opacity="0.21"/>
  <circle cx="350" cy="582" r="14" fill="#d9c896" opacity="0.80"/>
  <circle cx="346" cy="578" r="5" fill="#fff" opacity="0.20"/>
  <circle cx="729" cy="593" r="15" fill="#bfa770" opacity="0.89"/>
  <circle cx="724" cy="588" r="5" fill="#fff" opacity="0.33"/>
  <circle cx="182" cy="84" r="12" fill="#bfa770" opacity="0.94"/>
  <circle cx="178" cy="80" r="4" fill="#fff" opacity="0.18"/>
  <circle cx="591" cy="4" r="8" fill="#a08544" opacity="0.77"/>
  <circle cx="831" cy="486" r="15" fill="#a08544" opacity="0.85"/>
  <circle cx="826" cy="482" r="5" fill="#fff" opacity="0.34"/>
  <circle cx="410" cy="731" r="10" fill="#bfa770" opacity="0.77"/>
  <circle cx="407" cy="728" r="4" fill="#fff" opacity="0.16"/>
  <circle cx="105" cy="134" r="9" fill="#a08544" opacity="0.95"/>
  <circle cx="102" cy="131" r="3" fill="#fff" opacity="0.18"/>
  <circle cx="833" cy="121" r="8" fill="#c9b078" opacity="0.78"/>
  <circle cx="566" cy="491" r="22" fill="#c9b078" opacity="0.92"/>
  <circle cx="559" cy="484" r="8" fill="#fff" opacity="0.32"/>
  <circle cx="678" cy="285" r="14" fill="#8a7440" opacity="0.75"/>
  <circle cx="674" cy="281" r="5" fill="#fff" opacity="0.33"/>
  <circle cx="1026" cy="662" r="8" fill="#c9b078" opacity="0.83"/>
  <circle cx="81" cy="745" r="21" fill="#a08544" opacity="0.86"/>
  <circle cx="75" cy="739" r="7" fill="#fff" opacity="0.22"/>
  <circle cx="820" cy="813" r="10" fill="#b39a5e" opacity="0.96"/>
  <circle cx="817" cy="810" r="4" fill="#fff" opacity="0.17"/>
  <circle cx="1137" cy="864" r="18" fill="#8a7440" opacity="0.76"/>
  <circle cx="1132" cy="859" r="6" fill="#fff" opacity="0.31"/>
  <circle cx="1181" cy="558" r="12" fill="#a08544" opacity="0.77"/>
  <circle cx="1177" cy="554" r="4" fill="#fff" opacity="0.23"/>
  <circle cx="737" cy="254" r="10" fill="#8a7440" opacity="0.85"/>
  <circle cx="734" cy="251" r="4" fill="#fff" opacity="0.23"/>
  <circle cx="995" cy="333" r="6" fill="#8a7440" opacity="0.85"/>
  <circle cx="296" cy="68" r="7" fill="#c9b078" opacity="0.74"/>
  <circle cx="1039" cy="453" r="9" fill="#a08544" opacity="0.85"/>
  <circle cx="1036" cy="450" r="3" fill="#fff" opacity="0.25"/>
  <circle cx="318" cy="324" r="21" fill="#b39a5e" opacity="0.75"/>
  <circle cx="312" cy="318" r="7" fill="#fff" opacity="0.32"/>
  <circle cx="556" cy="1" r="12" fill="#8a7440" opacity="0.80"/>
  <circle cx="552" cy="-3" r="4" fill="#fff" opacity="0.27"/>
  <circle cx="851" cy="207" r="12" fill="#a08544" opacity="0.96"/>
  <circle cx="847" cy="203" r="4" fill="#fff" opacity="0.21"/>
  <circle cx="467" cy="620" r="20" fill="#8a7440" opacity="0.96"/>
  <circle cx="461" cy="614" r="7" fill="#fff" opacity="0.17"/>
  <circle cx="609" cy="364" r="17" fill="#b39a5e" opacity="0.72"/>
  <circle cx="604" cy="359" r="6" fill="#fff" opacity="0.32"/>
  <circle cx="209" cy="540" r="21" fill="#b39a5e" opacity="0.72"/>
  <circle cx="203" cy="534" r="7" fill="#fff" opacity="0.20"/>
  <circle cx="1047" cy="445" r="14" fill="#a08544" opacity="0.89"/>
  <circle cx="1043" cy="441" r="5" fill="#fff" opacity="0.32"/>
  <circle cx="481" cy="133" r="18" fill="#c9b078" opacity="0.92"/>
  <circle cx="476" cy="128" r="6" fill="#fff" opacity="0.33"/>
  <circle cx="817" cy="391" r="18" fill="#a08544" opacity="0.96"/>
  <circle cx="812" cy="386" r="6" fill="#fff" opacity="0.17"/>
  <circle cx="1162" cy="29" r="20" fill="#a08544" opacity="0.92"/>
  <circle cx="1156" cy="23" r="7" fill="#fff" opacity="0.17"/>
  <circle cx="1123" cy="828" r="20" fill="#c9b078" opacity="0.96"/>
  <circle cx="1117" cy="822" r="7" fill="#fff" opacity="0.22"/>
  <circle cx="163" cy="464" r="12" fill="#8a7440" opacity="0.96"/>
  <circle cx="159" cy="460" r="4" fill="#fff" opacity="0.33"/>
  <circle cx="267" cy="639" r="9" fill="#d9c896" opacity="0.91"/>
  <circle cx="264" cy="636" r="3" fill="#fff" opacity="0.18"/>
  <circle cx="87" cy="206" r="17" fill="#a08544" opacity="0.86"/>
  <circle cx="82" cy="201" r="6" fill="#fff" opacity="0.31"/>
  <circle cx="369" cy="701" r="7" fill="#d9c896" opacity="0.99"/>
  <circle cx="656" cy="240" r="11" fill="#8a7440" opacity="0.87"/>
  <circle cx="653" cy="237" r="4" fill="#fff" opacity="0.25"/>
  <circle cx="389" cy="364" r="13" fill="#a08544" opacity="0.76"/>
  <circle cx="385" cy="360" r="5" fill="#fff" opacity="0.33"/>
  <circle cx="320" cy="8" r="8" fill="#a08544" opacity="0.76"/>
  <circle cx="383" cy="690" r="16" fill="#c9b078" opacity="0.84"/>
  <circle cx="378" cy="685" r="6" fill="#fff" opacity="0.24"/>
  <circle cx="878" cy="301" r="13" fill="#bfa770" opacity="0.77"/>
  <circle cx="874" cy="297" r="5" fill="#fff" opacity="0.21"/>
  <circle cx="583" cy="485" r="18" fill="#c9b078" opacity="0.96"/>
  <circle cx="578" cy="480" r="6" fill="#fff" opacity="0.16"/>
  <circle cx="127" cy="813" r="22" fill="#8a7440" opacity="0.88"/>
  <circle cx="120" cy="806" r="8" fill="#fff" opacity="0.33"/>
  <circle cx="1105" cy="844" r="6" fill="#8a7440" opacity="0.96"/>
  <circle cx="470" cy="121" r="19" fill="#bfa770" opacity="0.96"/>
  <circle cx="464" cy="115" r="7" fill="#fff" opacity="0.22"/>
  <circle cx="1145" cy="556" r="11" fill="#8a7440" opacity="0.86"/>
  <circle cx="1142" cy="553" r="4" fill="#fff" opacity="0.31"/>
  <circle cx="1056" cy="523" r="15" fill="#8a7440" opacity="0.98"/>
  <circle cx="1052" cy="518" r="5" fill="#fff" opacity="0.26"/>
  <circle cx="732" cy="180" r="19" fill="#8a7440" opacity="0.86"/>
  <circle cx="726" cy="174" r="7" fill="#fff" opacity="0.28"/>
  <circle cx="476" cy="839" r="9" fill="#b39a5e" opacity="0.90"/>
  <circle cx="473" cy="836" r="3" fill="#fff" opacity="0.34"/>
  <circle cx="1027" cy="601" r="12" fill="#b39a5e" opacity="0.94"/>
  <circle cx="1023" cy="597" r="4" fill="#fff" opacity="0.25"/>
  <circle cx="708" cy="135" r="21" fill="#a08544" opacity="0.82"/>
  <circle cx="702" cy="129" r="7" fill="#fff" opacity="0.28"/>
  <circle cx="998" cy="752" r="22" fill="#bfa770" opacity="0.95"/>
  <circle cx="991" cy="745" r="8" fill="#fff" opacity="0.25"/>
  <circle cx="766" cy="422" r="8" fill="#8a7440" opacity="0.85"/>
  <circle cx="941" cy="122" r="22" fill="#8a7440" opacity="0.80"/>
  <circle cx="934" cy="115" r="8" fill="#fff" opacity="0.21"/>
  <circle cx="839" cy="126" r="14" fill="#bfa770" opacity="0.79"/>
  <circle cx="835" cy="122" r="5" fill="#fff" opacity="0.17"/>
  <circle cx="882" cy="550" r="22" fill="#a08544" opacity="0.93"/>
  <circle cx="875" cy="543" r="8" fill="#fff" opacity="0.17"/>
  <circle cx="473" cy="791" r="13" fill="#d9c896" opacity="0.72"/>
  <circle cx="469" cy="787" r="5" fill="#fff" opacity="0.18"/>
  <circle cx="555" cy="149" r="22" fill="#c9b078" opacity="0.96"/>
  <circle cx="548" cy="142" r="8" fill="#fff" opacity="0.30"/>
  <circle cx="177" cy="644" r="11" fill="#8a7440" opacity="0.70"/>
  <circle cx="174" cy="641" r="4" fill="#fff" opacity="0.23"/>
  <circle cx="391" cy="463" r="16" fill="#d9c896" opacity="0.97"/>
  <circle cx="386" cy="458" r="6" fill="#fff" opacity="0.19"/>
  <circle cx="979" cy="111" r="11" fill="#b39a5e" opacity="0.72"/>
  <circle cx="976" cy="108" r="4" fill="#fff" opacity="0.18"/>
  <circle cx="604" cy="646" r="11" fill="#8a7440" opacity="0.75"/>
  <circle cx="601" cy="643" r="4" fill="#fff" opacity="0.15"/>
  <circle cx="722" cy="350" r="9" fill="#a08544" opacity="0.91"/>
  <circle cx="719" cy="347" r="3" fill="#fff" opacity="0.31"/>
  <circle cx="467" cy="293" r="13" fill="#d9c896" opacity="0.93"/>
  <circle cx="463" cy="289" r="5" fill="#fff" opacity="0.23"/>
  <circle cx="1104" cy="379" r="7" fill="#d9c896" opacity="0.83"/>
  <circle cx="913" cy="401" r="8" fill="#a08544" opacity="0.92"/>
  <circle cx="80" cy="492" r="14" fill="#a08544" opacity="0.80"/>
  <circle cx="76" cy="488" r="5" fill="#fff" opacity="0.27"/>
  <circle cx="812" cy="224" r="11" fill="#b39a5e" opacity="0.78"/>
  <circle cx="809" cy="221" r="4" fill="#fff" opacity="0.29"/>
  <circle cx="986" cy="178" r="10" fill="#c9b078" opacity="0.93"/>
  <circle cx="983" cy="175" r="4" fill="#fff" opacity="0.18"/>
  <circle cx="284" cy="452" r="7" fill="#c9b078" opacity="0.82"/>
  <circle cx="886" cy="39" r="16" fill="#c9b078" opacity="0.83"/>
  <circle cx="881" cy="34" r="6" fill="#fff" opacity="0.29"/>
  <circle cx="865" cy="169" r="21" fill="#d9c896" opacity="0.77"/>
  <circle cx="859" cy="163" r="7" fill="#fff" opacity="0.20"/>
  <circle cx="596" cy="230" r="6" fill="#b39a5e" opacity="0.96"/>
  <circle cx="540" cy="32" r="7" fill="#bfa770" opacity="0.96"/>
  <circle cx="742" cy="804" r="21" fill="#bfa770" opacity="0.90"/>
  <circle cx="736" cy="798" r="7" fill="#fff" opacity="0.21"/>
  <circle cx="199" cy="667" r="9" fill="#b39a5e" opacity="0.83"/>
  <circle cx="196" cy="664" r="3" fill="#fff" opacity="0.16"/>
  <circle cx="1116" cy="704" r="8" fill="#b39a5e" opacity="0.90"/>
  <circle cx="1082" cy="522" r="11" fill="#bfa770" opacity="0.95"/>
  <circle cx="1079" cy="519" r="4" fill="#fff" opacity="0.33"/>
  <circle cx="252" cy="558" r="8" fill="#bfa770" opacity="0.98"/>
  <circle cx="233" cy="160" r="9" fill="#c9b078" opacity="0.85"/>
  <circle cx="230" cy="157" r="3" fill="#fff" opacity="0.22"/>
  <circle cx="857" cy="429" r="11" fill="#b39a5e" opacity="0.85"/>
  <circle cx="854" cy="426" r="4" fill="#fff" opacity="0.20"/>
  <circle cx="1110" cy="235" r="17" fill="#a08544" opacity="0.89"/>
  <circle cx="1105" cy="230" r="6" fill="#fff" opacity="0.19"/>
  <circle cx="156" cy="525" r="9" fill="#a08544" opacity="0.85"/>
  <circle cx="153" cy="522" r="3" fill="#fff" opacity="0.18"/>
  <circle cx="24" cy="230" r="8" fill="#a08544" opacity="0.98"/>
  <circle cx="948" cy="250" r="13" fill="#c9b078" opacity="0.89"/>
  <circle cx="944" cy="246" r="5" fill="#fff" opacity="0.26"/>
  <circle cx="631" cy="277" r="20" fill="#8a7440" opacity="0.84"/>
  <circle cx="625" cy="271" r="7" fill="#fff" opacity="0.26"/>
  <circle cx="234" cy="56" r="11" fill="#bfa770" opacity="0.86"/>
  <circle cx="231" cy="53" r="4" fill="#fff" opacity="0.30"/>
  <circle cx="485" cy="317" r="7" fill="#b39a5e" opacity="0.73"/>
  <circle cx="1029" cy="327" r="6" fill="#a08544" opacity="0.87"/>
  <circle cx="360" cy="130" r="16" fill="#bfa770" opacity="0.74"/>
  <circle cx="355" cy="125" r="6" fill="#fff" opacity="0.31"/>
  <circle cx="16" cy="227" r="12" fill="#d9c896" opacity="0.83"/>
  <circle cx="12" cy="223" r="4" fill="#fff" opacity="0.17"/>
  <circle cx="1146" cy="177" r="9" fill="#a08544" opacity="0.94"/>
  <circle cx="1143" cy="174" r="3" fill="#fff" opacity="0.28"/>
  <circle cx="295" cy="22" r="12" fill="#b39a5e" opacity="0.75"/>
  <circle cx="291" cy="18" r="4" fill="#fff" opacity="0.18"/>
  <circle cx="992" cy="718" r="11" fill="#bfa770" opacity="0.86"/>
  <circle cx="989" cy="715" r="4" fill="#fff" opacity="0.18"/>
  <circle cx="69" cy="640" r="17" fill="#a08544" opacity="0.71"/>
  <circle cx="64" cy="635" r="6" fill="#fff" opacity="0.22"/>
  <circle cx="1035" cy="800" r="9" fill="#a08544" opacity="0.98"/>
  <circle cx="1032" cy="797" r="3" fill="#fff" opacity="0.34"/>
  <circle cx="1135" cy="619" r="22" fill="#a08544" opacity="0.73"/>
  <circle cx="1128" cy="612" r="8" fill="#fff" opacity="0.20"/>
  <circle cx="673" cy="704" r="14" fill="#bfa770" opacity="0.83"/>
  <circle cx="669" cy="700" r="5" fill="#fff" opacity="0.34"/>
  <circle cx="124" cy="64" r="9" fill="#b39a5e" opacity="0.78"/>
  <circle cx="121" cy="61" r="3" fill="#fff" opacity="0.22"/>
  <circle cx="578" cy="368" r="16" fill="#8a7440" opacity="0.83"/>
  <circle cx="573" cy="363" r="6" fill="#fff" opacity="0.28"/>
  <circle cx="205" cy="826" r="22" fill="#c9b078" opacity="0.90"/>
  <circle cx="198" cy="819" r="8" fill="#fff" opacity="0.20"/>
  <circle cx="846" cy="539" r="14" fill="#d9c896" opacity="0.78"/>
  <circle cx="842" cy="535" r="5" fill="#fff" opacity="0.16"/>
  <circle cx="1018" cy="121" r="12" fill="#c9b078" opacity="0.97"/>
  <circle cx="1014" cy="117" r="4" fill="#fff" opacity="0.17"/>
  <circle cx="280" cy="202" r="9" fill="#c9b078" opacity="0.70"/>
  <circle cx="277" cy="199" r="3" fill="#fff" opacity="0.34"/>
  <circle cx="120" cy="343" r="22" fill="#8a7440" opacity="0.92"/>
  <circle cx="113" cy="336" r="8" fill="#fff" opacity="0.19"/>
  <circle cx="351" cy="457" r="6" fill="#c9b078" opacity="0.95"/>
  <circle cx="478" cy="872" r="10" fill="#bfa770" opacity="0.87"/>
  <circle cx="475" cy="869" r="4" fill="#fff" opacity="0.17"/>
  <circle cx="777" cy="417" r="11" fill="#bfa770" opacity="0.79"/>
  <circle cx="774" cy="414" r="4" fill="#fff" opacity="0.31"/>
  <circle cx="8" cy="866" r="19" fill="#d9c896" opacity="0.96"/>
  <circle cx="2" cy="860" r="7" fill="#fff" opacity="0.17"/>
  <circle cx="779" cy="711" r="14" fill="#bfa770" opacity="0.83"/>
  <circle cx="775" cy="707" r="5" fill="#fff" opacity="0.15"/>
  <circle cx="1057" cy="476" r="12" fill="#b39a5e" opacity="0.92"/>
  <circle cx="1053" cy="472" r="4" fill="#fff" opacity="0.17"/>
  <circle cx="165" cy="271" r="16" fill="#a08544" opacity="0.71"/>
  <circle cx="160" cy="266" r="6" fill="#fff" opacity="0.19"/>
  <circle cx="780" cy="32" r="15" fill="#c9b078" opacity="0.86"/>
  <circle cx="776" cy="28" r="5" fill="#fff" opacity="0.25"/>
  <circle cx="265" cy="323" r="16" fill="#d9c896" opacity="0.77"/>
  <circle cx="260" cy="318" r="6" fill="#fff" opacity="0.20"/>
  <circle cx="851" cy="827" r="13" fill="#bfa770" opacity="0.88"/>
  <circle cx="847" cy="823" r="5" fill="#fff" opacity="0.24"/>
  <circle cx="1178" cy="390" r="19" fill="#c9b078" opacity="0.71"/>
  <circle cx="1172" cy="384" r="7" fill="#fff" opacity="0.33"/>
  <circle cx="651" cy="855" r="13" fill="#c9b078" opacity="0.98"/>
  <circle cx="647" cy="851" r="5" fill="#fff" opacity="0.25"/>
  <circle cx="1117" cy="191" r="12" fill="#b39a5e" opacity="0.79"/>
  <circle cx="1113" cy="187" r="4" fill="#fff" opacity="0.25"/>
  <circle cx="1177" cy="110" r="6" fill="#b39a5e" opacity="0.93"/>
  <circle cx="175" cy="174" r="18" fill="#8a7440" opacity="0.75"/>
  <circle cx="170" cy="169" r="6" fill="#fff" opacity="0.22"/>
  <circle cx="567" cy="216" r="14" fill="#d9c896" opacity="0.88"/>
  <circle cx="563" cy="212" r="5" fill="#fff" opacity="0.27"/>
  <circle cx="906" cy="834" r="9" fill="#d9c896" opacity="0.71"/>
  <circle cx="903" cy="831" r="3" fill="#fff" opacity="0.22"/>
  <circle cx="1160" cy="511" r="12" fill="#8a7440" opacity="0.71"/>
  <circle cx="1156" cy="507" r="4" fill="#fff" opacity="0.22"/>
  <circle cx="277" cy="665" r="19" fill="#a08544" opacity="0.84"/>
  <circle cx="271" cy="659" r="7" fill="#fff" opacity="0.26"/>
  <circle cx="437" cy="236" r="20" fill="#d9c896" opacity="0.88"/>
  <circle cx="431" cy="230" r="7" fill="#fff" opacity="0.26"/>
  <circle cx="1072" cy="5" r="10" fill="#c9b078" opacity="0.97"/>
  <circle cx="1069" cy="2" r="4" fill="#fff" opacity="0.32"/>
  <circle cx="909" cy="620" r="13" fill="#a08544" opacity="0.80"/>
  <circle cx="905" cy="616" r="5" fill="#fff" opacity="0.31"/>
  <circle cx="79" cy="822" r="16" fill="#d9c896" opacity="0.71"/>
  <circle cx="74" cy="817" r="6" fill="#fff" opacity="0.15"/>
  <circle cx="415" cy="785" r="9" fill="#b39a5e" opacity="0.84"/>
  <circle cx="412" cy="782" r="3" fill="#fff" opacity="0.25"/>
  <circle cx="288" cy="196" r="19" fill="#c9b078" opacity="0.90"/>
  <circle cx="282" cy="190" r="7" fill="#fff" opacity="0.21"/>
  <circle cx="52" cy="176" r="16" fill="#b39a5e" opacity="0.96"/>
  <circle cx="47" cy="171" r="6" fill="#fff" opacity="0.25"/>
  <circle cx="956" cy="564" r="7" fill="#8a7440" opacity="0.76"/>
  <circle cx="1197" cy="425" r="14" fill="#b39a5e" opacity="0.89"/>
  <circle cx="1193" cy="421" r="5" fill="#fff" opacity="0.25"/>
  <circle cx="142" cy="42" r="15" fill="#b39a5e" opacity="0.95"/>
  <circle cx="138" cy="38" r="5" fill="#fff" opacity="0.19"/>
  <circle cx="57" cy="119" r="18" fill="#c9b078" opacity="0.79"/>
  <circle cx="52" cy="114" r="6" fill="#fff" opacity="0.25"/>
  <circle cx="686" cy="268" r="18" fill="#c9b078" opacity="0.99"/>
  <circle cx="681" cy="263" r="6" fill="#fff" opacity="0.30"/>
  <circle cx="1118" cy="732" r="21" fill="#c9b078" opacity="0.99"/>
  <circle cx="1112" cy="726" r="7" fill="#fff" opacity="0.18"/>
  <circle cx="304" cy="297" r="9" fill="#bfa770" opacity="0.96"/>
  <circle cx="301" cy="294" r="3" fill="#fff" opacity="0.32"/>
  <circle cx="546" cy="374" r="13" fill="#bfa770" opacity="0.82"/>
  <circle cx="542" cy="370" r="5" fill="#fff" opacity="0.16"/>
  <circle cx="224" cy="622" r="6" fill="#a08544" opacity="0.79"/>
  <circle cx="663" cy="420" r="13" fill="#8a7440" opacity="0.78"/>
  <circle cx="659" cy="416" r="5" fill="#fff" opacity="0.23"/>
  <circle cx="1140" cy="6" r="18" fill="#b39a5e" opacity="0.99"/>
  <circle cx="1135" cy="1" r="6" fill="#fff" opacity="0.33"/>
  <circle cx="153" cy="265" r="8" fill="#d9c896" opacity="0.92"/>
  <circle cx="709" cy="15" r="8" fill="#8a7440" opacity="0.76"/>
  <circle cx="412" cy="422" r="7" fill="#c9b078" opacity="0.84"/>
  <circle cx="309" cy="693" r="13" fill="#d9c896" opacity="0.72"/>
  <circle cx="305" cy="689" r="5" fill="#fff" opacity="0.30"/>
  <circle cx="959" cy="448" r="14" fill="#8a7440" opacity="0.90"/>
  <circle cx="955" cy="444" r="5" fill="#fff" opacity="0.15"/>
  <circle cx="848" cy="487" r="19" fill="#bfa770" opacity="0.85"/>
  <circle cx="842" cy="481" r="7" fill="#fff" opacity="0.33"/>
  <circle cx="375" cy="449" r="14" fill="#b39a5e" opacity="0.92"/>
  <circle cx="371" cy="445" r="5" fill="#fff" opacity="0.17"/>
  <circle cx="753" cy="774" r="15" fill="#a08544" opacity="0.80"/>
  <circle cx="748" cy="770" r="5" fill="#fff" opacity="0.20"/>
  <circle cx="1155" cy="419" r="6" fill="#d9c896" opacity="0.86"/>
  <circle cx="488" cy="374" r="15" fill="#c9b078" opacity="0.95"/>
  <circle cx="484" cy="370" r="5" fill="#fff" opacity="0.17"/>
  <circle cx="750" cy="480" r="19" fill="#bfa770" opacity="0.82"/>
  <circle cx="744" cy="474" r="7" fill="#fff" opacity="0.27"/>
  <circle cx="444" cy="639" r="7" fill="#c9b078" opacity="0.83"/>
  <circle cx="1088" cy="312" r="15" fill="#d9c896" opacity="0.83"/>
  <circle cx="1084" cy="308" r="5" fill="#fff" opacity="0.29"/>
  <circle cx="577" cy="824" r="9" fill="#b39a5e" opacity="0.90"/>
  <circle cx="574" cy="821" r="3" fill="#fff" opacity="0.27"/>
  <circle cx="715" cy="492" r="8" fill="#8a7440" opacity="0.89"/>
  <circle cx="756" cy="862" r="22" fill="#bfa770" opacity="0.95"/>
  <circle cx="749" cy="855" r="8" fill="#fff" opacity="0.31"/>
  <circle cx="480" cy="750" r="15" fill="#b39a5e" opacity="0.97"/>
  <circle cx="476" cy="746" r="5" fill="#fff" opacity="0.27"/>
  <circle cx="1034" cy="415" r="14" fill="#b39a5e" opacity="0.85"/>
  <circle cx="1030" cy="411" r="5" fill="#fff" opacity="0.34"/>
  <circle cx="126" cy="800" r="6" fill="#d9c896" opacity="0.76"/>
  <circle cx="1066" cy="474" r="11" fill="#bfa770" opacity="0.71"/>
  <circle cx="1063" cy="471" r="4" fill="#fff" opacity="0.28"/>
  <circle cx="449" cy="76" r="12" fill="#bfa770" opacity="0.98"/>
  <circle cx="445" cy="72" r="4" fill="#fff" opacity="0.17"/>
  <circle cx="295" cy="587" r="11" fill="#b39a5e" opacity="0.97"/>
  <circle cx="292" cy="584" r="4" fill="#fff" opacity="0.25"/>
  <circle cx="661" cy="631" r="21" fill="#8a7440" opacity="0.78"/>
  <circle cx="655" cy="625" r="7" fill="#fff" opacity="0.26"/>
  <circle cx="167" cy="517" r="13" fill="#b39a5e" opacity="0.96"/>
  <circle cx="163" cy="513" r="5" fill="#fff" opacity="0.32"/>
  <circle cx="1004" cy="814" r="17" fill="#b39a5e" opacity="0.78"/>
  <circle cx="999" cy="809" r="6" fill="#fff" opacity="0.31"/>
  <circle cx="87" cy="534" r="13" fill="#bfa770" opacity="0.82"/>
  <circle cx="83" cy="530" r="5" fill="#fff" opacity="0.30"/>
  <circle cx="748" cy="222" r="10" fill="#b39a5e" opacity="0.99"/>
  <circle cx="745" cy="219" r="4" fill="#fff" opacity="0.25"/>
  <circle cx="609" cy="859" r="12" fill="#8a7440" opacity="0.86"/>
  <circle cx="605" cy="855" r="4" fill="#fff" opacity="0.29"/>
  <circle cx="670" cy="41" r="15" fill="#8a7440" opacity="0.76"/>
  <circle cx="666" cy="36" r="5" fill="#fff" opacity="0.34"/>
  <circle cx="763" cy="532" r="11" fill="#8a7440" opacity="0.96"/>
  <circle cx="760" cy="529" r="4" fill="#fff" opacity="0.18"/>
  <circle cx="1157" cy="416" r="9" fill="#b39a5e" opacity="0.94"/>
  <circle cx="1154" cy="413" r="3" fill="#fff" opacity="0.31"/>
  <circle cx="928" cy="798" r="21" fill="#b39a5e" opacity="0.72"/>
  <circle cx="922" cy="792" r="7" fill="#fff" opacity="0.16"/>
  <circle cx="257" cy="756" r="11" fill="#d9c896" opacity="0.78"/>
  <circle cx="254" cy="753" r="4" fill="#fff" opacity="0.32"/>
  <circle cx="949" cy="828" r="10" fill="#8a7440" opacity="0.77"/>
  <circle cx="946" cy="825" r="4" fill="#fff" opacity="0.18"/>
  <circle cx="1163" cy="142" r="10" fill="#8a7440" opacity="0.95"/>
  <circle cx="1160" cy="139" r="4" fill="#fff" opacity="0.32"/>
  <circle cx="36" cy="237" r="15" fill="#c9b078" opacity="0.83"/>
  <circle cx="32" cy="232" r="5" fill="#fff" opacity="0.19"/>
  <circle cx="178" cy="721" r="17" fill="#a08544" opacity="0.98"/>
  <circle cx="173" cy="716" r="6" fill="#fff" opacity="0.31"/>
  <circle cx="1047" cy="355" r="7" fill="#c9b078" opacity="0.78"/>
  <circle cx="732" cy="655" r="13" fill="#a08544" opacity="0.89"/>
  <circle cx="728" cy="651" r="5" fill="#fff" opacity="0.17"/>
  <circle cx="690" cy="816" r="10" fill="#8a7440" opacity="0.80"/>
  <circle cx="687" cy="813" r="4" fill="#fff" opacity="0.33"/>
  <circle cx="1038" cy="515" r="13" fill="#8a7440" opacity="0.77"/>
  <circle cx="1034" cy="511" r="5" fill="#fff" opacity="0.27"/>
  <circle cx="435" cy="785" r="9" fill="#b39a5e" opacity="0.93"/>
  <circle cx="432" cy="782" r="3" fill="#fff" opacity="0.21"/>
  <circle cx="185" cy="843" r="13" fill="#8a7440" opacity="0.98"/>
  <circle cx="181" cy="839" r="5" fill="#fff" opacity="0.21"/>
  <circle cx="897" cy="688" r="16" fill="#d9c896" opacity="0.76"/>
  <circle cx="892" cy="683" r="6" fill="#fff" opacity="0.17"/>
  <circle cx="619" cy="781" r="18" fill="#c9b078" opacity="0.93"/>
  <circle cx="614" cy="776" r="6" fill="#fff" opacity="0.30"/>
  <circle cx="1180" cy="331" r="21" fill="#c9b078" opacity="0.81"/>
  <circle cx="1174" cy="325" r="7" fill="#fff" opacity="0.31"/>
  <circle cx="630" cy="134" r="16" fill="#b39a5e" opacity="0.78"/>
  <circle cx="625" cy="129" r="6" fill="#fff" opacity="0.28"/>
  <circle cx="610" cy="526" r="19" fill="#bfa770" opacity="0.73"/>
  <circle cx="604" cy="520" r="7" fill="#fff" opacity="0.18"/>
  <circle cx="691" cy="254" r="15" fill="#bfa770" opacity="0.97"/>
  <circle cx="686" cy="250" r="5" fill="#fff" opacity="0.21"/>
  <circle cx="596" cy="825" r="8" fill="#a08544" opacity="0.95"/>
  <circle cx="228" cy="109" r="6" fill="#8a7440" opacity="0.96"/>
  <circle cx="228" cy="98" r="13" fill="#a08544" opacity="0.99"/>
  <circle cx="224" cy="94" r="5" fill="#fff" opacity="0.20"/>
  <circle cx="697" cy="851" r="9" fill="#d9c896" opacity="1.00"/>
  <circle cx="694" cy="848" r="3" fill="#fff" opacity="0.26"/>
  <circle cx="343" cy="823" r="17" fill="#8a7440" opacity="0.72"/>
  <circle cx="338" cy="818" r="6" fill="#fff" opacity="0.16"/>
  <circle cx="547" cy="274" r="9" fill="#a08544" opacity="0.97"/>
  <circle cx="544" cy="271" r="3" fill="#fff" opacity="0.20"/>
  <circle cx="1033" cy="839" r="7" fill="#c9b078" opacity="0.78"/>
  <circle cx="912" cy="237" r="9" fill="#d9c896" opacity="0.92"/>
  <circle cx="909" cy="234" r="3" fill="#fff" opacity="0.20"/>
  <circle cx="255" cy="230" r="9" fill="#c9b078" opacity="1.00"/>
  <circle cx="252" cy="227" r="3" fill="#fff" opacity="0.27"/>
  <circle cx="15" cy="247" r="7" fill="#bfa770" opacity="0.84"/>
  <circle cx="516" cy="516" r="22" fill="#d9c896" opacity="0.75"/>
  <circle cx="509" cy="509" r="8" fill="#fff" opacity="0.24"/>
  <circle cx="374" cy="492" r="14" fill="#8a7440" opacity="0.94"/>
  <circle cx="370" cy="488" r="5" fill="#fff" opacity="0.30"/>
  <circle cx="1047" cy="208" r="20" fill="#bfa770" opacity="0.79"/>
  <circle cx="1041" cy="202" r="7" fill="#fff" opacity="0.34"/>
  <circle cx="234" cy="295" r="15" fill="#c9b078" opacity="0.71"/>
  <circle cx="230" cy="290" r="5" fill="#fff" opacity="0.30"/>
  <circle cx="730" cy="216" r="18" fill="#d9c896" opacity="0.95"/>
  <circle cx="725" cy="211" r="6" fill="#fff" opacity="0.27"/>
  <circle cx="1017" cy="705" r="16" fill="#b39a5e" opacity="0.71"/>
  <circle cx="1012" cy="700" r="6" fill="#fff" opacity="0.31"/>
  <circle cx="983" cy="295" r="10" fill="#8a7440" opacity="0.81"/>
  <circle cx="980" cy="292" r="4" fill="#fff" opacity="0.32"/>
  <circle cx="1136" cy="463" r="14" fill="#d9c896" opacity="0.89"/>
  <circle cx="1132" cy="459" r="5" fill="#fff" opacity="0.35"/>
  <circle cx="10" cy="31" r="15" fill="#b39a5e" opacity="0.81"/>
  <circle cx="6" cy="26" r="5" fill="#fff" opacity="0.18"/>
  <circle cx="974" cy="358" r="6" fill="#b39a5e" opacity="0.92"/>
  <circle cx="260" cy="826" r="6" fill="#d9c896" opacity="0.83"/>
  <circle cx="754" cy="123" r="21" fill="#d9c896" opacity="0.72"/>
  <circle cx="748" cy="117" r="7" fill="#fff" opacity="0.34"/>
  <circle cx="1168" cy="741" r="17" fill="#d9c896" opacity="0.90"/>
  <circle cx="1163" cy="736" r="6" fill="#fff" opacity="0.23"/>
  <circle cx="881" cy="99" r="10" fill="#bfa770" opacity="0.77"/>
  <circle cx="878" cy="96" r="4" fill="#fff" opacity="0.22"/>
  <circle cx="390" cy="35" r="8" fill="#a08544" opacity="0.79"/>
  <circle cx="918" cy="65" r="17" fill="#8a7440" opacity="0.77"/>
  <circle cx="913" cy="60" r="6" fill="#fff" opacity="0.30"/>
  <circle cx="218" cy="746" r="20" fill="#8a7440" opacity="0.96"/>
  <circle cx="212" cy="740" r="7" fill="#fff" opacity="0.31"/>
  <circle cx="397" cy="327" r="13" fill="#a08544" opacity="0.84"/>
  <circle cx="393" cy="323" r="5" fill="#fff" opacity="0.24"/>
  <circle cx="132" cy="115" r="16" fill="#d9c896" opacity="0.91"/>
  <circle cx="127" cy="110" r="6" fill="#fff" opacity="0.32"/>
  <circle cx="970" cy="655" r="13" fill="#a08544" opacity="0.74"/>
  <circle cx="966" cy="651" r="5" fill="#fff" opacity="0.31"/>
  <circle cx="1152" cy="623" r="17" fill="#c9b078" opacity="0.77"/>
  <circle cx="1147" cy="618" r="6" fill="#fff" opacity="0.16"/>
  <circle cx="321" cy="41" r="22" fill="#c9b078" opacity="0.95"/>
  <circle cx="314" cy="34" r="8" fill="#fff" opacity="0.33"/>
  <circle cx="887" cy="823" r="6" fill="#bfa770" opacity="0.99"/>
  <circle cx="802" cy="288" r="14" fill="#d9c896" opacity="0.98"/>
  <circle cx="798" cy="284" r="5" fill="#fff" opacity="0.29"/>
  <circle cx="689" cy="576" r="12" fill="#d9c896" opacity="0.86"/>
  <circle cx="685" cy="572" r="4" fill="#fff" opacity="0.18"/>
  <circle cx="746" cy="466" r="21" fill="#c9b078" opacity="0.77"/>
  <circle cx="740" cy="460" r="7" fill="#fff" opacity="0.30"/>
  <circle cx="212" cy="897" r="7" fill="#b39a5e" opacity="0.76"/>
  <circle cx="777" cy="521" r="10" fill="#8a7440" opacity="0.75"/>
  <circle cx="774" cy="518" r="4" fill="#fff" opacity="0.22"/>
  <circle cx="1093" cy="348" r="6" fill="#8a7440" opacity="0.73"/>
  <circle cx="384" cy="321" r="8" fill="#8a7440" opacity="0.95"/>
  <circle cx="863" cy="587" r="16" fill="#d9c896" opacity="0.75"/>
  <circle cx="858" cy="582" r="6" fill="#fff" opacity="0.19"/>
  <circle cx="805" cy="484" r="22" fill="#bfa770" opacity="0.89"/>
  <circle cx="798" cy="477" r="8" fill="#fff" opacity="0.26"/>
  <circle cx="1053" cy="881" r="10" fill="#8a7440" opacity="0.96"/>
  <circle cx="1050" cy="878" r="4" fill="#fff" opacity="0.24"/>
  <circle cx="698" cy="442" r="14" fill="#8a7440" opacity="0.96"/>
  <circle cx="694" cy="438" r="5" fill="#fff" opacity="0.25"/>
  <circle cx="1015" cy="883" r="22" fill="#bfa770" opacity="0.89"/>
  <circle cx="1008" cy="876" r="8" fill="#fff" opacity="0.29"/>
  <circle cx="295" cy="477" r="6" fill="#b39a5e" opacity="0.75"/>
  <circle cx="1182" cy="708" r="8" fill="#bfa770" opacity="0.76"/>
  <circle cx="1186" cy="661" r="12" fill="#8a7440" opacity="0.98"/>
  <circle cx="1182" cy="657" r="4" fill="#fff" opacity="0.31"/>
  <circle cx="1012" cy="566" r="7" fill="#b39a5e" opacity="0.74"/>
  <circle cx="28" cy="608" r="14" fill="#a08544" opacity="0.76"/>
  <circle cx="24" cy="604" r="5" fill="#fff" opacity="0.21"/>
  <circle cx="1038" cy="814" r="22" fill="#d9c896" opacity="0.87"/>
  <circle cx="1031" cy="807" r="8" fill="#fff" opacity="0.26"/>
  <circle cx="806" cy="396" r="9" fill="#8a7440" opacity="0.80"/>
  <circle cx="803" cy="393" r="3" fill="#fff" opacity="0.27"/>
  <circle cx="190" cy="468" r="15" fill="#bfa770" opacity="1.00"/>
  <circle cx="186" cy="464" r="5" fill="#fff" opacity="0.30"/>
  <circle cx="160" cy="84" r="14" fill="#8a7440" opacity="0.84"/>
  <circle cx="156" cy="80" r="5" fill="#fff" opacity="0.20"/>
  <circle cx="159" cy="729" r="17" fill="#c9b078" opacity="0.91"/>
  <circle cx="154" cy="724" r="6" fill="#fff" opacity="0.19"/>
  <circle cx="839" cy="189" r="7" fill="#d9c896" opacity="0.79"/>
  <circle cx="896" cy="731" r="6" fill="#d9c896" opacity="0.88"/>
  <circle cx="852" cy="133" r="15" fill="#c9b078" opacity="0.72"/>
  <circle cx="848" cy="128" r="5" fill="#fff" opacity="0.29"/>
  <circle cx="1066" cy="150" r="6" fill="#c9b078" opacity="0.95"/>
  <circle cx="891" cy="802" r="22" fill="#c9b078" opacity="0.77"/>
  <circle cx="884" cy="795" r="8" fill="#fff" opacity="0.19"/>
  <circle cx="1176" cy="618" r="18" fill="#8a7440" opacity="0.80"/>
  <circle cx="1171" cy="613" r="6" fill="#fff" opacity="0.21"/>
  <circle cx="919" cy="264" r="13" fill="#a08544" opacity="0.74"/>
  <circle cx="915" cy="260" r="5" fill="#fff" opacity="0.21"/>
  <circle cx="13" cy="234" r="9" fill="#a08544" opacity="0.83"/>
  <circle cx="10" cy="231" r="3" fill="#fff" opacity="0.20"/>
  <circle cx="1126" cy="207" r="12" fill="#8a7440" opacity="0.99"/>
  <circle cx="1122" cy="203" r="4" fill="#fff" opacity="0.21"/>
  <circle cx="951" cy="414" r="9" fill="#b39a5e" opacity="0.73"/>
  <circle cx="948" cy="411" r="3" fill="#fff" opacity="0.32"/>
  <circle cx="1200" cy="230" r="10" fill="#d9c896" opacity="0.89"/>
  <circle cx="1197" cy="227" r="4" fill="#fff" opacity="0.31"/>
  <circle cx="769" cy="551" r="10" fill="#a08544" opacity="0.98"/>
  <circle cx="766" cy="548" r="4" fill="#fff" opacity="0.19"/>
  <circle cx="1096" cy="9" r="9" fill="#d9c896" opacity="0.71"/>
  <circle cx="1093" cy="6" r="3" fill="#fff" opacity="0.30"/>
  <circle cx="530" cy="417" r="17" fill="#a08544" opacity="0.76"/>
  <circle cx="525" cy="412" r="6" fill="#fff" opacity="0.27"/>
  <circle cx="405" cy="99" r="22" fill="#8a7440" opacity="0.97"/>
  <circle cx="398" cy="92" r="8" fill="#fff" opacity="0.30"/>
  <circle cx="1100" cy="450" r="6" fill="#c9b078" opacity="0.89"/>
  <circle cx="46" cy="737" r="17" fill="#b39a5e" opacity="0.75"/>
  <circle cx="41" cy="732" r="6" fill="#fff" opacity="0.16"/>
  <circle cx="551" cy="617" r="16" fill="#c9b078" opacity="0.93"/>
  <circle cx="546" cy="612" r="6" fill="#fff" opacity="0.22"/>
  <circle cx="97" cy="761" r="19" fill="#c9b078" opacity="0.89"/>
  <circle cx="91" cy="755" r="7" fill="#fff" opacity="0.34"/>
  <circle cx="108" cy="873" r="18" fill="#c9b078" opacity="0.75"/>
  <circle cx="103" cy="868" r="6" fill="#fff" opacity="0.31"/>
  <circle cx="170" cy="274" r="15" fill="#b39a5e" opacity="0.80"/>
  <circle cx="166" cy="270" r="5" fill="#fff" opacity="0.25"/>
  <circle cx="1134" cy="588" r="10" fill="#d9c896" opacity="0.74"/>
  <circle cx="1131" cy="585" r="4" fill="#fff" opacity="0.26"/>
  <circle cx="592" cy="278" r="6" fill="#a08544" opacity="0.76"/>
  <circle cx="379" cy="418" r="12" fill="#8a7440" opacity="0.94"/>
  <circle cx="375" cy="414" r="4" fill="#fff" opacity="0.21"/>
  <circle cx="768" cy="734" r="20" fill="#bfa770" opacity="0.80"/>
  <circle cx="762" cy="728" r="7" fill="#fff" opacity="0.21"/>
  <circle cx="688" cy="107" r="7" fill="#d9c896" opacity="0.92"/>
  <circle cx="1028" cy="66" r="19" fill="#b39a5e" opacity="0.78"/>
  <circle cx="1022" cy="60" r="7" fill="#fff" opacity="0.31"/>
  <circle cx="393" cy="370" r="18" fill="#8a7440" opacity="0.82"/>
  <circle cx="388" cy="365" r="6" fill="#fff" opacity="0.30"/>
  <circle cx="283" cy="7" r="18" fill="#bfa770" opacity="0.91"/>
  <circle cx="278" cy="2" r="6" fill="#fff" opacity="0.32"/>
  <circle cx="336" cy="178" r="17" fill="#b39a5e" opacity="0.81"/>
  <circle cx="331" cy="173" r="6" fill="#fff" opacity="0.26"/>
  <circle cx="172" cy="883" r="22" fill="#b39a5e" opacity="0.92"/>
  <circle cx="165" cy="876" r="8" fill="#fff" opacity="0.32"/>
  <circle cx="463" cy="831" r="16" fill="#bfa770" opacity="0.84"/>
  <circle cx="458" cy="826" r="6" fill="#fff" opacity="0.27"/>
  <circle cx="811" cy="409" r="18" fill="#a08544" opacity="0.86"/>
  <circle cx="806" cy="404" r="6" fill="#fff" opacity="0.27"/>
  <circle cx="652" cy="74" r="9" fill="#d9c896" opacity="0.81"/>
  <circle cx="649" cy="71" r="3" fill="#fff" opacity="0.18"/>
  <circle cx="12" cy="413" r="18" fill="#c9b078" opacity="0.91"/>
  <circle cx="7" cy="408" r="6" fill="#fff" opacity="0.20"/>
  <circle cx="268" cy="511" r="15" fill="#d9c896" opacity="0.74"/>
  <circle cx="264" cy="506" r="5" fill="#fff" opacity="0.29"/>
  <circle cx="292" cy="468" r="15" fill="#d9c896" opacity="0.90"/>
  <circle cx="288" cy="464" r="5" fill="#fff" opacity="0.26"/>
  <rect width="1200" height="900" fill="url(#vignette)" opacity="0.25"/>
  <g font-family="Inter, Helvetica, Arial, sans-serif" text-anchor="middle"><text x="600" y="870" font-size="14" fill="#fff" opacity="0.45" letter-spacing="2">ПЕСОК РЕЧНОЙ · МАКРО</text></g>
</svg>