<svg xmlns="http://www.w3.org/2000/svg" viewBox="0 0 1200 900" preserveAspectRatio="xMidYMid slice">
  <defs><radialGradient id="vignette" cx="50%" cy="50%" r="70%"><stop offset="0%" stop-color="#a8a8a8" stop-opacity="1"/><stop offset="100%" stop-color="#a8a8a8" stop-opacity="0.55"/></radialGradient><filter id="blur" x="-20%" y="-20%" width="140%" height="140%"><feGaussianBlur stdDeviation="0.5"/></filter></defs><rect width="1200" height="900" fill="url(#vignette)"/>
  <circle cx="183" cy="720" r="11" fill="#888" opacity="0.52" filter="url(#blur)"/>
  <circle cx="95" cy="467" r="18" fill="#bbb" opacity="0.31" filter="url(#blur)"/>
  <circle cx="1038" cy="732" r="3" fill="#cc7a5a" opacity="0.29" filter="url(#blur)"/>
  <circle cx="749" cy="758" r="11" fill="#888" opacity="0.29" filter="url(#blur)"/>
  <circle cx="807" cy="889" r="25" fill="#999" opacity="0.52" filter="url(#blur)"/>
  <polygon points="328.4,591.8 320.0,606.7 306.0,604.2 298.2,588.5 302.8,578.6 316.8,574.3" fill="#888" opacity="0.48" filter="url(#blur)"/>
  <circle cx="1176" cy="381" r="18" fill="#bbb" opacity="0.45" filter="url(#blur)"/>
  <polygon points="199.0,409.6 192.5,423.8 180.2,422.6 171.7,409.2 177.5,396.4 192.5,398.1" fill="#bbb" opacity="0.30" filter="url(#blur)"/>
  <polygon points="81.6,735.2 80.0,738.0 76.2,740.7 73.7,739.3 72.8,735.7 74.6,733.1 77.4,732.0 79.7,733.5" fill="#cc7a5a" opacity="0.26" filter="url(#blur)"/>
  <circle cx="290" cy="227" r="6" fill="#444" opacity="0.33" filter="url(#blur)"/>
  <polygon points="658.7,844.5 650.5,853.9 638.8,854.8 633.1,847.8 636.6,836.2 649.1,833.8" fill="#888" opacity="0.31" filter="url(#blur)"/>
  <circle cx="984" cy="369" r="19" fill="#666" opacity="0.42" filter="url(#blur)"/>
  <circle cx="480" cy="269" r="9" fill="#999" opacity="0.49" filter="url(#blur)"/>
  <circle cx="583" cy="626" r="6" fill="#7a7a7a" opacity="0.27" filter="url(#blur)"/>
  <circle cx="477" cy="11" r="4" fill="#666" opacity="0.54" filter="url(#blur)"/>
  <circle cx="720" cy="582" r="7" fill="#888" opacity="0.34" filter="url(#blur)"/>
  <polygon points="846.9,22.9 838.8,38.1 814.7,45.1 800.2,25.2 817.7,-0.4 840.6,6.0" fill="#bbb" opacity="0.54" filter="url(#blur)"/>
  <polygon points="1205.5,111.3 1189.1,138.3 1166.8,135.4 1154.6,117.5 1170.6,93.5 1193.4,95.4" fill="#bbb" opacity="0.49" filter="url(#blur)"/>
  <polygon points="396.2,476.7 391.7,484.2 378.5,487.3 371.1,482.8 369.3,469.3 379.8,464.8 388.9,462.1" fill="#444" opacity="0.51" filter="url(#blur)"/>
  <circle cx="76" cy="878" r="15" fill="#bbb" opacity="0.49" filter="url(#blur)"/>
  <polygon points="561.8,248.1 560.3,251.4 555.4,254.7 551.9,250.9 550.1,248.2 550.8,243.5 555.3,243.1 559.8,244.9" fill="#444" opacity="0.28" filter="url(#blur)"/>
  <polygon points="527.8,125.5 522.9,133.3 513.4,131.1 511.6,121.0 524.1,117.0" fill="#bbb" opacity="0.33" filter="url(#blur)"/>
  <circle cx="1192" cy="54" r="29" fill="#cc7a5a" opacity="0.51" filter="url(#blur)"/>
  <polygon points="746.2,887.3 737.7,901.8 724.2,905.8 713.2,900.6 703.8,889.6 709.2,877.7 726.1,871.5 736.7,876.6" fill="#cc7a5a" opacity="0.42" filter="url(#blur)"/>
  <circle cx="524" cy="588" r="15" fill="#888" opacity="0.33" filter="url(#blur)"/>
  <circle cx="212" cy="451" r="23" fill="#444" opacity="0.42" filter="url(#blur)"/>
  <polygon points="491.9,317.1 490.3,323.6 484.0,324.6 478.2,321.5 478.5,314.6 484.8,311.9 491.0,311.9" fill="#888" opacity="0.28" filter="url(#blur)"/>
  <polygon points="429.1,842.4 424.9,847.8 418.3,849.7 412.8,845.9 413.7,838.4 419.4,835.4 426.0,835.0" fill="#7a7a7a" opacity="0.30" filter="url(#blur)"/>
  <circle cx="845" cy="30" r="13" fill="#999" opacity="0.35" filter="url(#blur)"/>
  <polygon points="1090.3,34.4 1078.9,50.6 1060.3,45.0 1057.1,25.5 1075.5,18.1" fill="#7a7a7a" opacity="0.53" filter="url(#blur)"/>
  <polygon points="1084.2,800.5 1081.1,809.9 1070.4,809.9 1065.9,801.2 1069.4,793.0 1078.8,793.3" fill="#bbb" opacity="0.25" filter="url(#blur)"/>
  <polygon points="1210.6,40.9 1201.2,54.6 1183.7,46.7 1183.1,27.6 1199.0,23.8" fill="#666" opacity="0.46" filter="url(#blur)"/>
  <polygon points="802.6,598.2 797.8,607.2 792.5,608.4 784.9,604.1 784.0,595.3 790.5,589.8 797.2,593.7" fill="#888" opacity="0.26" filter="url(#blur)"/>
  <circle cx="853" cy="279" r="23" fill="#444" opacity="0.49" filter="url(#blur)"/>
  <polygon points="960.7,613.6 950.5,628.4 941.3,634.8 923.1,633.3 921.9,618.5 922.3,603.6 938.4,600.1 953.7,600.7" fill="#7a7a7a" opacity="0.42" filter="url(#blur)"/>
  <circle cx="1126" cy="402" r="18" fill="#7a7a7a" opacity="0.36" filter="url(#blur)"/>
  <polygon points="506.3,584.7 500.8,601.5 483.3,604.9 468.7,595.1 471.6,574.4 488.0,563.7 504.5,572.5" fill="#888" opacity="0.31" filter="url(#blur)"/>
  <circle cx="1126" cy="536" r="26" fill="#7a7a7a" opacity="0.25" filter="url(#blur)"/>
  <polygon points="957.2,618.0 957.0,627.7 941.0,629.2 936.1,622.0 933.7,613.2 944.8,606.4 952.5,607.5" fill="#cc7a5a" opacity="0.41" filter="url(#blur)"/>
  <polygon points="765.9,632.6 760.7,646.7 740.6,647.2 728.1,639.8 728.9,618.1 745.2,612.1 754.6,615.2" fill="#bbb" opacity="0.29" filter="url(#blur)"/>
  <polygon points="699.7,577.7 691.3,596.9 679.4,596.7 665.4,593.5 667.4,576.5 680.0,561.7 693.9,564.3" fill="#888" opacity="0.37" filter="url(#blur)"/>
  <circle cx="104" cy="832" r="26" fill="#999" opacity="0.41" filter="url(#blur)"/>
  <circle cx="1001" cy="328" r="18" fill="#bbb" opacity="0.34" filter="url(#blur)"/>
  <circle cx="134" cy="762" r="14" fill="#888" opacity="0.28" filter="url(#blur)"/>
  <polygon points="910.3,245.2 906.3,261.1 885.9,264.2 875.2,257.0 875.1,241.2 892.4,228.2 901.2,231.0" fill="#444" opacity="0.47" filter="url(#blur)"/>
  <polygon points="1128.8,276.4 1125.6,286.1 1119.1,285.5 1110.2,284.5 1109.0,278.2 1111.8,271.5 1119.8,267.0 1123.7,271.1" fill="#999" opacity="0.51" filter="url(#blur)"/>
  <circle cx="711" cy="415" r="16" fill="#bbb" opacity="0.34" filter="url(#blur)"/>
  <circle cx="795" cy="324" r="12" fill="#cc7a5a" opacity="0.52" filter="url(#blur)"/>
  <polygon points="985.7,765.1 975.1,777.8 960.1,781.4 948.4,774.2 948.4,752.9 960.9,746.7 975.8,749.3" fill="#7a7a7a" opacity="0.44" filter="url(#blur)"/>
  <polygon points="322.3,119.0 303.1,144.0 280.6,136.3 285.5,109.3 303.5,101.0" fill="#cc7a5a" opacity="0.54" filter="url(#blur)"/>
  <circle cx="409" cy="347" r="6" fill="#999" opacity="0.32" filter="url(#blur)"/>
  <circle cx="616" cy="686" r="23" fill="#bbb" opacity="0.35" filter="url(#blur)"/>
  <circle cx="705" cy="668" r="23" fill="#bbb" opacity="0.29" filter="url(#blur)"/>
  <circle cx="1062" cy="766" r="23" fill="#999" opacity="0.28" filter="url(#blur)"/>
  <polygon points="410.5,884.6 408.7,890.7 402.8,889.4 398.6,885.5 401.1,880.1 407.9,880.5" fill="#999" opacity="0.50" filter="url(#blur)"/>
  <circle cx="295" cy="361" r="18" fill="#cc7a5a" opacity="0.26" filter="url(#blur)"/>
  <circle cx="679" cy="42" r="10" fill="#7a7a7a" opacity="0.44" filter="url(#blur)"/>
  <polygon points="995.7,121.1 976.0,143.4 945.9,136.3 951.3,102.7 978.3,100.5" fill="#bbb" opacity="0.36" filter="url(#blur)"/>
  <circle cx="977" cy="872" r="22" fill="#cc7a5a" opacity="0.26" filter="url(#blur)"/>
  <polygon points="994.4,893.6 979.2,911.4 953.1,908.9 950.1,891.7 955.1,870.6 984.5,867.1" fill="#999" opacity="0.27" filter="url(#blur)"/>
  <polygon points="828.8,636.7 826.4,645.1 816.3,643.9 811.2,640.3 811.2,630.1 817.9,621.8 827.3,627.3" fill="#999" opacity="0.41" filter="url(#blur)"/>
  <circle cx="592" cy="60" r="8" fill="#444" opacity="0.26" filter="url(#blur)"/>
  <circle cx="610" cy="394" r="12" fill="#444" opacity="0.36" filter="url(#blur)"/>
  <polygon points="504.9,306.5 485.1,332.6 462.8,328.5 452.1,305.4 464.6,277.7 493.2,285.5" fill="#444" opacity="0.47" filter="url(#blur)"/>
  <circle cx="882" cy="327" r="22" fill="#888" opacity="0.43" filter="url(#blur)"/>
  <polygon points="546.4,342.2 534.3,360.7 519.6,349.8 518.4,335.5 536.5,329.3" fill="#444" opacity="0.33" filter="url(#blur)"/>
  <polygon points="934.3,51.4 932.2,54.2 929.1,53.5 928.6,50.6 929.4,49.2 932.0,48.8" fill="#7a7a7a" opacity="0.41" filter="url(#blur)"/>
  <circle cx="701" cy="600" r="16" fill="#444" opacity="0.46" filter="url(#blur)"/>
  <circle cx="1000" cy="816" r="4" fill="#666" opacity="0.28" filter="url(#blur)"/>
  <circle cx="850" cy="389" r="32" fill="#cc7a5a" opacity="0.36" filter="url(#blur)"/>
  <circle cx="733" cy="412" r="18" fill="#999" opacity="0.46" filter="url(#blur)"/>
  <circle cx="955" cy="2" r="5" fill="#bbb" opacity="0.27" filter="url(#blur)"/>
  <circle cx="1096" cy="107" r="14" fill="#444" opacity="0.30" filter="url(#blur)"/>
  <polygon points="647.9,369.7 646.1,373.0 642.2,371.9 642.0,367.5 645.9,366.8" fill="#888" opacity="0.27" filter="url(#blur)"/>
  <circle cx="1158" cy="683" r="9" fill="#7a7a7a" opacity="0.46" filter="url(#blur)"/>
  <circle cx="66" cy="813" r="24" fill="#bbb" opacity="0.72"/>
  <polygon points="97.5,412.8 86.5,430.2 72.0,428.7 61.5,417.2 71.4,401.0 88.3,398.0" fill="#888" opacity="0.90"/>
  <polygon points="383.1,5.9 373.0,17.9 358.4,23.2 344.1,15.7 344.3,-1.1 356.3,-12.0 375.2,-6.0" fill="#444" opacity="0.96"/>
  <circle cx="1189" cy="102" r="13" fill="#bbb" opacity="0.85"/>
  <polygon points="260.6,714.6 255.1,731.3 231.7,742.1 218.7,729.0 210.5,720.1 217.6,702.8 234.3,694.4 249.2,693.3" fill="#888" opacity="0.94"/>
  <polygon points="332.4,83.4 332.9,90.3 321.9,94.3 315.9,88.1 312.7,84.9 315.8,75.2 324.2,74.3 330.0,74.2" fill="#666" opacity="0.74"/>
  <circle cx="849" cy="441" r="23" fill="#bbb" opacity="0.98"/>
  <circle cx="939" cy="581" r="10" fill="#cc7a5a" opacity="0.91"/>
  <polygon points="112.3,835.5 107.7,850.7 89.9,855.0 74.7,845.6 70.0,827.9 85.3,816.5 100.9,818.4" fill="#bbb" opacity="0.95"/>
  <circle cx="1059" cy="440" r="22" fill="#999" opacity="0.95"/>
  <circle cx="965" cy="590" r="13" fill="#999" opacity="0.71"/>
  <circle cx="531" cy="240" r="15" fill="#cc7a5a" opacity="0.73"/>
  <circle cx="870" cy="818" r="8" fill="#999" opacity="0.97"/>
  <polygon points="1067.7,676.8 1059.3,687.2 1046.4,695.1 1030.7,690.5 1026.8,675.9 1035.4,667.2 1047.6,656.3 1063.6,666.5" fill="#888" opacity="0.75"/>
  <circle cx="356" cy="749" r="26" fill="#666" opacity="0.96"/>
  <polygon points="363.1,809.1 350.1,821.0 329.5,815.0 332.4,795.9 350.8,793.6" fill="#444" opacity="0.80"/>
  <circle cx="984" cy="506" r="20" fill="#444" opacity="0.93"/>
  <polygon points="748.4,305.6 747.1,308.6 741.4,308.7 739.5,305.3 741.5,300.8 746.3,300.4" fill="#bbb" opacity="0.70"/>
  <polygon points="313.6,846.6 298.6,872.2 273.4,864.6 263.9,848.0 276.3,832.3 295.5,829.0" fill="#bbb" opacity="0.70"/>
  <circle cx="1135" cy="57" r="23" fill="#999" opacity="0.83"/>
  <polygon points="479.1,225.4 466.7,235.5 443.9,240.0 431.0,225.6 442.8,205.5 467.0,201.2" fill="#444" opacity="0.89"/>
  <circle cx="1113" cy="560" r="10" fill="#7a7a7a" opacity="0.87"/>
  <circle cx="875" cy="240" r="18" fill="#999" opacity="0.83"/>
  <polygon points="754.7,483.7 747.0,494.4 735.3,500.2 728.6,489.4 724.3,478.0 738.3,471.8 750.0,473.4" fill="#bbb" opacity="0.80"/>
  <polygon points="541.7,195.9 533.8,213.0 515.5,207.4 510.3,192.1 517.6,179.8 539.0,178.3" fill="#7a7a7a" opacity="0.71"/>
  <polygon points="1187.1,737.7 1185.1,740.4 1180.3,741.7 1177.2,739.6 1175.5,736.9 1177.5,734.4 1181.1,730.8 1184.5,733.7" fill="#cc7a5a" opacity="0.71"/>
  <circle cx="690" cy="59" r="20" fill="#666" opacity="0.80"/>
  <polygon points="176.7,742.5 172.3,758.2 148.9,757.6 141.9,743.1 149.8,726.2 167.6,726.5" fill="#999" opacity="0.99"/>
  <polygon points="973.1,665.1 967.7,678.3 952.2,676.6 953.7,660.4 965.2,652.1" fill="#7a7a7a" opacity="1.00"/>
  <polygon points="1006.0,360.7 1004.0,363.8 1000.1,363.5 1000.9,359.0 1004.2,357.5" fill="#7a7a7a" opacity="0.97"/>
  <circle cx="341" cy="77" r="21" fill="#7a7a7a" opacity="0.92"/>
  <circle cx="485" cy="68" r="22" fill="#666" opacity="0.95"/>
  <circle cx="1052" cy="765" r="7" fill="#bbb" opacity="1.00"/>
  <polygon points="1191.7,166.6 1186.4,178.3 1170.8,183.9 1161.5,177.9 1160.7,157.9 1169.5,149.5 1189.6,155.6" fill="#888" opacity="0.82"/>
  <circle cx="1030" cy="324" r="25" fill="#999" opacity="0.81"/>
  <circle cx="1107" cy="705" r="11" fill="#999" opacity="0.88"/>
  <polygon points="835.2,507.0 833.2,511.7 828.4,509.8 827.5,504.0 832.8,502.6" fill="#999" opacity="0.98"/>
  <circle cx="29" cy="282" r="25" fill="#888" opacity="0.74"/>
  <circle cx="804" cy="566" r="28" fill="#444" opacity="0.97"/>
  <polygon points="573.7,538.6 561.4,549.9 548.1,553.2 537.5,542.3 533.0,530.7 550.1,514.7 563.1,519.0" fill="#444" opacity="0.80"/>
  <polygon points="48.2,533.1 38.7,545.0 25.8,542.8 27.4,527.3 37.8,520.6" fill="#999" opacity="0.88"/>
  <circle cx="26" cy="146" r="6" fill="#bbb" opacity="0.91"/>
  <circle cx="90" cy="29" r="12" fill="#7a7a7a" opacity="0.84"/>
  <polygon points="215.7,850.0 208.7,869.4 193.2,878.1 179.4,874.6 171.7,855.8 173.0,835.0 196.0,824.4 212.8,838.9" fill="#cc7a5a" opacity="0.81"/>
  <circle cx="888" cy="484" r="6" fill="#666" opacity="0.77"/>
  <polygon points="499.7,825.8 493.2,851.1 471.3,855.6 455.7,847.7 448.6,832.3 453.3,815.7 475.0,808.2 486.7,809.4" fill="#666" opacity="0.76"/>
  <circle cx="1076" cy="678" r="18" fill="#999" opacity="0.93"/>
  <circle cx="507" cy="230" r="7" fill="#444" opacity="0.93"/>
  <circle cx="914" cy="404" r="12" fill="#7a7a7a" opacity="0.87"/>
  <circle cx="1079" cy="273" r="10" fill="#666" opacity="0.83"/>
  <polygon points="218.9,791.7 205.1,816.0 180.6,813.2 169.6,789.8 184.4,780.2 204.1,777.8" fill="#cc7a5a" opacity="0.75"/>
  <circle cx="464" cy="234" r="26" fill="#bbb" opacity="0.84"/>
  <polygon points="701.5,364.8 697.9,375.5 685.5,380.9 672.2,371.1 669.8,358.0 682.9,350.6 695.3,350.0" fill="#7a7a7a" opacity="0.74"/>
  <circle cx="586" cy="719" r="23" fill="#bbb" opacity="0.95"/>
  <polygon points="951.2,385.5 937.8,403.7 910.4,399.0 913.1,371.4 935.3,369.1" fill="#888" opacity="0.91"/>
  <polygon points="734.6,273.0 730.9,279.6 725.5,280.6 722.2,275.6 721.5,269.7 725.5,267.8 732.8,268.9" fill="#444" opacity="0.95"/>
  <circle cx="3" cy="275" r="17" fill="#bbb" opacity="0.87"/>
  <polygon points="797.6,123.2 791.1,130.9 784.8,132.2 774.9,128.5 774.8,117.3 782.1,109.8 794.6,112.0" fill="#888" opacity="0.96"/>
  <circle cx="321" cy="250" r="4" fill="#cc7a5a" opacity="0.92"/>
  <polygon points="412.9,125.0 407.7,134.1 396.1,137.2 382.3,131.4 373.9,120.1 381.1,108.6 391.0,107.4 402.1,110.1" fill="#cc7a5a" opacity="0.77"/>
  <polygon points="459.0,644.4 455.6,654.9 438.9,661.2 426.8,650.0 429.1,633.6 440.0,626.3 449.5,632.0" fill="#666" opacity="0.84"/>
  <circle cx="1199" cy="174" r="29" fill="#888" opacity="0.91"/>
  <polygon points="817.0,617.4 811.9,623.3 804.2,624.4 798.3,620.3 795.1,615.2 796.0,607.3 805.4,605.8 813.1,608.0" fill="#444" opacity="0.72"/>
  <polygon points="1081.3,564.9 1076.2,572.2 1069.8,571.9 1064.0,569.8 1058.2,562.6 1064.1,555.4 1070.6,553.0 1075.9,554.6" fill="#444" opacity="0.90"/>
  <polygon points="1095.9,68.4 1087.9,86.3 1075.5,83.6 1065.4,78.4 1064.1,66.1 1074.3,57.9 1088.0,61.2" fill="#666" opacity="0.77"/>
  <circle cx="257" cy="682" r="21" fill="#888" opacity="0.87"/>
  <polygon points="1202.3,599.8 1198.8,608.6 1193.3,609.1 1184.7,607.3 1180.2,601.7 1185.9,591.0 1193.2,589.1 1200.4,593.3" fill="#bbb" opacity="0.91"/>
  <polygon points="363.6,23.0 345.5,49.2 316.0,40.7 317.9,10.3 352.4,6.1" fill="#444" opacity="0.71"/>
  <polygon points="1051.4,521.0 1049.1,534.7 1037.3,536.5 1024.6,535.8 1023.8,521.0 1026.8,515.2 1039.8,506.9 1048.1,508.5" fill="#7a7a7a" opacity="0.91"/>
  <circle cx="758" cy="269" r="25" fill="#888" opacity="0.85"/>
  <circle cx="227" cy="846" r="6" fill="#999" opacity="0.84"/>
  <circle cx="736" cy="12" r="4" fill="#cc7a5a" opacity="0.91"/>
  <circle cx="843" cy="592" r="18" fill="#bbb" opacity="0.86"/>
  <circle cx="102" cy="490" r="16" fill="#666" opacity="0.94"/>
  <polygon points="489.4,686.5 484.8,703.0 468.3,701.6 453.3,697.2 449.4,675.2 469.7,667.1 485.7,663.0" fill="#999" opacity="0.95"/>
  <polygon points="902.3,115.6 899.9,122.4 892.4,125.1 888.2,121.7 886.4,117.5 888.1,111.4 891.9,107.7 899.5,110.3" fill="#666" opacity="0.78"/>
  <circle cx="53" cy="868" r="20" fill="#cc7a5a" opacity="0.87"/>
  <polygon points="711.1,500.5 698.0,522.0 676.9,524.6 666.1,500.4 675.5,474.0 700.7,473.1" fill="#bbb" opacity="0.76"/>
  <polygon points="1040.5,13.7 1035.8,24.5 1017.0,28.2 1005.2,13.2 1012.9,-7.9 1037.7,-7.1" fill="#444" opacity="0.72"/>
  <polygon points="277.3,603.4 262.7,627.8 240.8,614.5 238.4,598.9 260.9,590.5" fill="#7a7a7a" opacity="0.93"/>
  <polygon points="717.6,164.5 716.4,167.1 713.0,167.0 709.9,163.5 712.3,161.6 715.1,160.8" fill="#999" opacity="0.86"/>
  <polygon points="158.8,493.9 135.5,513.8 113.3,501.8 118.6,477.6 143.0,471.1" fill="#888" opacity="0.70"/>
  <circle cx="1036" cy="871" r="4" fill="#888" opacity="0.76"/>
  <polygon points="1140.7,770.6 1134.5,782.3 1115.8,786.2 1108.0,783.0 1100.3,769.3 1106.5,760.7 1116.5,754.5 1130.3,755.7" fill="#666" opacity="0.96"/>
  <polygon points="199.0,183.9 195.1,193.9 186.1,195.4 178.3,191.9 177.3,187.1 181.1,177.8 188.9,175.7 192.9,179.3" fill="#999" opacity="0.93"/>
  <polygon points="552.7,813.7 544.2,821.2 534.7,818.9 536.0,807.0 544.3,803.1" fill="#444" opacity="0.81"/>
  <polygon points="312.1,844.5 307.7,849.4 302.5,848.3 300.7,842.1 308.8,839.8" fill="#7a7a7a" opacity="0.79"/>
  <polygon points="221.9,51.2 219.4,58.5 205.3,64.0 189.5,60.1 188.2,48.5 195.3,38.6 203.9,32.4 215.7,33.7" fill="#444" opacity="0.85"/>
  <circle cx="1126" cy="182" r="4" fill="#7a7a7a" opacity="0.75"/>
  <circle cx="346" cy="245" r="7" fill="#7a7a7a" opacity="0.85"/>
  <circle cx="589" cy="100" r="15" fill="#444" opacity="0.97"/>
  <polygon points="313.1,303.2 301.7,325.6 280.0,326.0 261.3,325.0 260.1,300.5 261.8,284.8 278.4,279.7 299.2,287.5" fill="#666" opacity="0.71"/>
  <circle cx="1076" cy="134" r="20" fill="#7a7a7a" opacity="0.87"/>
  <circle cx="1070" cy="291" r="14" fill="#666" opacity="0.82"/>
  <circle cx="593" cy="337" r="16" fill="#bbb" opacity="0.89"/>
  <polygon points="500.6,605.7 484.9,628.1 457.9,621.0 456.5,592.1 483.0,578.3" fill="#444" opacity="0.81"/>
  <circle cx="1186" cy="15" r="4" fill="#999" opacity="0.84"/>
  <circle cx="847" cy="755" r="10" fill="#cc7a5a" opacity="0.77"/>
  <circle cx="963" cy="30" r="5" fill="#666" opacity="0.84"/>
  <circle cx="807" cy="831" r="17" fill="#444" opacity="0.79"/>
  <circle cx="585" cy="730" r="19" fill="#7a7a7a" opacity="0.98"/>
  <polygon points="494.3,247.8 485.2,264.9 469.9,263.2 464.3,252.1 475.1,239.4 483.2,237.3" fill="#666" opacity="0.82"/>
  <polygon points="615.2,642.3 612.6,646.5 608.3,645.2 606.2,642.6 608.0,638.4 613.3,638.8" fill="#7a7a7a" opacity="0.90"/>
  <polygon points="1121.1,637.3 1119.6,640.0 1114.9,640.1 1113.1,637.6 1115.4,633.4 1118.6,633.1" fill="#444" opacity="0.76"/>
  <circle cx="712" cy="787" r="25" fill="#7a7a7a" opacity="0.86"/>
  <polygon points="995.7,172.9 981.2,192.6 954.1,182.4 956.2,160.2 983.3,143.9" fill="#888" opacity="0.95"/>
  <circle cx="769" cy="310" r="18" fill="#888" opacity="0.72"/>
  <polygon points="1090.8,231.8 1085.9,249.0 1073.6,247.8 1068.0,244.8 1058.5,234.1 1066.1,223.2 1075.6,222.3 1085.3,224.0" fill="#bbb" opacity="0.96"/>
  <circle cx="573" cy="490" r="28" fill="#444" opacity="0.98"/>
  <circle cx="148" cy="382" r="15" fill="#999" opacity="0.89"/>
  <circle cx="1056" cy="338" r="15" fill="#999" opacity="0.88"/>
  <circle cx="243" cy="213" r="17" fill="#bbb" opacity="0.86"/>
  <circle cx="1054" cy="786" r="25" fill="#999" opacity="0.95"/>
  <circle cx="559" cy="170" r="20" fill="#888" opacity="0.78"/>
  <circle cx="1173" cy="424" r="11" fill="#444" opacity="0.80"/>
  <circle cx="183" cy="504" r="15" fill="#666" opacity="0.95"/>
  <circle cx="941" cy="869" r="26" fill="#444" opacity="0.83"/>
  <polygon points="16.7,168.8 13.0,177.3 2.6,176.8 -0.2,169.0 4.4,161.6 12.1,160.0" fill="#7a7a7a" opacity="0.96"/>
  <circle cx="313" cy="41" r="8" fill="#888" opacity="0.88"/>
  <polygon points="636.8,637.7 634.8,654.7 620.1,660.9 608.8,657.1 598.7,640.3 603.2,627.3 620.8,619.6 631.5,623.8" fill="#cc7a5a" opacity="0.72"/>
  <circle cx="946" cy="128" r="4" fill="#bbb" opacity="0.80"/>
  <circle cx="880" cy="603" r="17" fill="#999" opacity="0.93"/>
  <circle cx="1010" cy="509" r="10" fill="#999" opacity="0.85"/>
  <polygon points="350.9,265.7 337.0,282.6 302.9,277.1 309.7,244.2 335.9,237.5" fill="#666" opacity="0.83"/>
  <polygon points="530.7,812.6 525.3,819.7 516.4,819.6 515.9,806.7 525.9,805.5" fill="#cc7a5a" opacity="0.86"/>
  <polygon points="695.9,418.2 688.9,444.2 666.2,446.9 654.4,444.1 645.6,423.5 652.7,410.2 668.1,399.7 689.6,400.2" fill="#cc7a5a" opacity="0.71"/>
  <polygon points="283.4,112.8 268.0,126.8 252.2,126.7 242.5,112.3 255.4,95.1 268.9,99.6" fill="#888" opacity="0.90"/>
  <circle cx="588" cy="225" r="12" fill="#444" opacity="0.90"/>
  <polygon points="745.4,326.9 741.4,334.0 732.8,331.5 734.3,325.2 739.7,322.7" fill="#bbb" opacity="0.91"/>
  <circle cx="860" cy="18" r="14" fill="#cc7a5a" opacity="0.87"/>
  <circle cx="61" cy="647" r="7" fill="#888" opacity="0.78"/>
  <circle cx="457" cy="564" r="12" fill="#444" opacity="0.99"/>
  <circle cx="32" cy="674" r="22" fill="#888" opacity="0.92"/>
  <circle cx="1149" cy="53" r="11" fill="#999" opacity="0.93"/>
  <circle cx="1112" cy="85" r="24" fill="#bbb" opacity="0.83"/>
  <circle cx="531" cy="707" r="29" fill="#666" opacity="0.76"/>
  <circle cx="843" cy="647" r="27" fill="#cc7a5a" opacity="0.74"/>
  <circle cx="589" cy="336" r="29" fill="#7a7a7a" opacity="0.92"/>
  <circle cx="170" cy="306" r="29" fill="#999" opacity="0.85"/>
  <polygon points="843.2,588.9 837.2,603.5 818.6,602.6 809.3,588.9 819.4,573.2 836.3,578.7" fill="#444" opacity="0.73"/>
  <polygon points="366.1,384.3 360.5,395.7 347.7,397.1 342.9,388.4 339.9,377.2 352.7,372.2 363.9,374.0" fill="#666" opacity="0.96"/>
  <polygon points="437.0,249.4 435.0,254.0 431.6,255.5 426.2,253.2 425.7,248.5 425.9,244.5 431.6,242.0 434.2,244.3" fill="#666" opacity="0.85"/>
  <polygon points="430.9,643.4 424.9,660.2 406.1,665.9 382.0,653.2 389.6,635.9 405.2,624.7 424.4,630.0" fill="#cc7a5a" opacity="0.82"/>
  <circle cx="556" cy="56" r="7" fill="#999" opacity="0.80"/>
  <circle cx="383" cy="362" r="23" fill="#888" opacity="0.94"/>
  <circle cx="897" cy="479" r="23" fill="#7a7a7a" opacity="0.98"/>
  <circle cx="682" cy="437" r="17" fill="#7a7a7a" opacity="0.79"/>
  <circle cx="202" cy="300" r="6" fill="#bbb" opacity="0.86"/>
  <polygon points="1148.2,616.6 1142.9,637.3 1128.7,642.1 1106.9,638.3 1107.3,623.0 1106.9,607.0 1127.9,596.8 1140.8,603.5" fill="#666" opacity="0.99"/>
  <circle cx="234" cy="514" r="13" fill="#444" opacity="0.85"/>
  <circle cx="550" cy="364" r="23" fill="#666" opacity="0.80"/>
  <circle cx="739" cy="773" r="7" fill="#7a7a7a" opacity="0.78"/>
  <circle cx="68" cy="868" r="4" fill="#bbb" opacity="0.89"/>
  <polygon points="177.9,678.1 164.2,695.7 142.6,694.9 143.5,665.3 165.6,657.9" fill="#bbb" opacity="0.77"/>
  <circle cx="221" cy="689" r="26" fill="#666" opacity="0.96"/>
  <polygon points="204.1,542.2 203.9,544.0 200.9,545.7 198.2,545.0 197.1,541.9 198.7,538.6 201.2,539.2 202.9,539.5" fill="#cc7a5a" opacity="0.74"/>
  <circle cx="324" cy="821" r="14" fill="#888" opacity="0.79"/>
  <circle cx="14" cy="231" r="29" fill="#888" opacity="0.83"/>
  <polygon points="676.3,466.1 668.6,477.1 659.2,472.1 657.8,461.8 670.6,455.9" fill="#999" opacity="0.78"/>
  <polygon points="200.4,735.4 192.7,744.5 174.1,740.4 173.3,726.1 191.4,722.0" fill="#666" opacity="0.72"/>
  <polygon points="581.7,851.3 574.5,861.6 570.1,865.2 560.5,864.4 556.8,855.9 557.8,844.5 568.1,843.5 573.6,845.7" fill="#444" opacity="0.75"/>
  <circle cx="310" cy="120" r="21" fill="#666" opacity="0.81"/>
  <circle cx="975" cy="364" r="12" fill="#888" opacity="0.97"/>
  <circle cx="153" cy="719" r="29" fill="#666" opacity="0.71"/>
  <polygon points="497.7,212.4 493.6,224.6 482.5,228.9 471.6,219.1 471.5,211.6 481.3,203.1 488.7,206.2" fill="#888" opacity="0.94"/>
  <circle cx="814" cy="400" r="20" fill="#888" opacity="0.76"/>
  <polygon points="143.1,183.1 134.9,194.6 124.0,198.1 112.3,193.0 102.4,176.8 107.0,170.5 119.1,163.8 135.8,162.8" fill="#888" opacity="0.89"/>
  <polygon points="273.0,97.4 267.2,104.7 255.6,102.3 257.0,91.0 266.6,88.3" fill="#444" opacity="0.80"/>
  <circle cx="240" cy="186" r="20" fill="#888" opacity="0.87"/>
  <polygon points="144.5,483.4 135.7,496.2 121.9,502.9 105.3,500.9 101.2,485.9 110.3,468.4 123.1,465.7 136.2,472.3" fill="#7a7a7a" opacity="0.78"/>
  <circle cx="872" cy="51" r="24" fill="#888" opacity="0.97"/>
  <polygon points="697.3,455.4 685.3,479.6 653.2,469.3 656.3,437.4 681.0,431.5" fill="#666" opacity="0.87"/>
  <circle cx="1012" cy="88" r="8" fill="#999" opacity="0.93"/>
  <circle cx="506" cy="35" r="18" fill="#cc7a5a" opacity="0.71"/>
  <circle cx="457" cy="357" r="7" fill="#7a7a7a" opacity="0.93"/>
  <polygon points="1012.0,883.4 1008.8,888.6 1005.8,890.0 999.2,885.8 999.8,882.1 1004.8,877.2 1010.5,879.9" fill="#cc7a5a" opacity="0.78"/>
  <circle cx="699" cy="352" r="4" fill="#999" opacity="0.76"/>
  <circle cx="124" cy="43" r="17" fill="#666" opacity="0.72"/>
  <circle cx="683" cy="773" r="28" fill="#666" opacity="0.77"/>
  <circle cx="764" cy="250" r="7" fill="#444" opacity="0.88"/>
  <polygon points="5.2,323.6 4.1,327.1 0.7,327.0 -3.0,324.0 -2.6,320.6 0.6,318.9 3.2,320.2" fill="#666" opacity="0.93"/>
  <circle cx="784" cy="219" r="28" fill="#444" opacity="0.99"/>
  <polygon points="728.6,444.4 714.3,465.2 697.6,459.2 695.1,437.0 716.3,430.1" fill="#7a7a7a" opacity="0.86"/>
  <polygon points="69.6,261.3 66.1,267.1 59.9,267.0 56.4,262.6 58.9,257.1 66.4,256.9" fill="#999" opacity="0.98"/>
  <polygon points="413.1,280.6 402.5,307.9 380.7,291.1 381.0,275.9 404.3,265.9" fill="#bbb" opacity="0.71"/>
  <circle cx="916" cy="332" r="6" fill="#888" opacity="0.96"/>
  <polygon points="558.2,415.4 538.9,441.9 520.8,433.4 516.1,400.0 544.4,393.5" fill="#888" opacity="0.90"/>
  <polygon points="1187.2,713.5 1180.5,718.9 1171.0,716.8 1168.6,706.1 1179.3,702.9" fill="#bbb" opacity="0.94"/>
  <circle cx="214" cy="57" r="22" fill="#444" opacity="0.96"/>
  <polygon points="165.5,764.9 161.0,772.6 146.7,771.2 147.9,758.4 159.6,756.0" fill="#999" opacity="1.00"/>
  <polygon points="951.1,528.6 948.5,531.8 940.9,536.0 935.9,533.4 935.7,527.7 938.1,521.1 940.8,519.6 947.5,520.7" fill="#888" opacity="0.95"/>
  <circle cx="751" cy="778" r="19" fill="#7a7a7a" opacity="0.81"/>
  <polygon points="801.5,478.0 796.6,494.9 782.2,491.2 773.8,483.2 775.2,474.3 783.6,462.3 799.8,466.5" fill="#444" opacity="0.88"/>
  <polygon points="670.0,618.3 666.1,626.0 654.9,628.6 651.5,619.9 656.9,611.0 665.6,612.3" fill="#bbb" opacity="0.87"/>
  <circle cx="930" cy="869" r="4" fill="#444" opacity="0.81"/>
  <circle cx="1098" cy="150" r="5" fill="#888" opacity="0.94"/>
  <polygon points="911.3,869.3 901.5,895.2 879.1,897.3 865.7,883.5 866.2,864.1 882.7,851.0 901.5,858.0" fill="#bbb" opacity="0.72"/>
  <polygon points="222.3,795.4 215.5,807.2 200.6,802.2 200.3,787.4 216.4,783.9" fill="#888" opacity="0.87"/>
  <circle cx="676" cy="254" r="28" fill="#444" opacity="0.96"/>
  <polygon points="968.3,183.0 960.5,193.2 944.8,202.6 932.6,197.0 930.6,181.1 935.9,170.8 946.5,167.3 959.2,168.4" fill="#cc7a5a" opacity="0.81"/>
  <circle cx="929" cy="319" r="22" fill="#999" opacity="0.79"/>
  <polygon points="681.8,360.3 668.9,379.1 645.9,383.0 634.6,361.6 646.0,340.5 668.9,340.6" fill="#888" opacity="0.82"/>
  <circle cx="198" cy="397" r="7" fill="#444" opacity="0.75"/>
  <circle cx="282" cy="69" r="28" fill="#7a7a7a" opacity="0.76"/>
  <polygon points="488.0,41.7 474.0,64.0 457.4,54.5 453.1,31.4 479.6,23.6" fill="#cc7a5a" opacity="0.71"/>
  <polygon points="348.0,244.9 344.3,253.4 335.8,256.4 328.1,252.2 327.1,242.5 335.3,234.2 343.9,238.4" fill="#cc7a5a" opacity="0.78"/>
  <circle cx="415" cy="397" r="13" fill="#888" opacity="0.77"/>
  <polygon points="80.3,610.3 72.2,619.0 63.4,617.9 65.1,606.4 75.1,603.3" fill="#444" opacity="0.92"/>
  <circle cx="544" cy="506" r="10" fill="#7a7a7a" opacity="0.99"/>
  <circle cx="321" cy="439" r="22" fill="#666" opacity="0.73"/>
  <circle cx="644" cy="10" r="17" fill="#888" opacity="0.92"/>
  <polygon points="183.3,326.9 160.7,354.1 135.4,344.4 138.7,315.6 159.5,309.0" fill="#bbb" opacity="0.93"/>
  <polygon points="1182.4,635.8 1178.0,649.4 1158.5,659.4 1144.6,653.2 1140.6,629.1 1145.2,611.0 1164.8,606.9 1181.8,618.6" fill="#888" opacity="0.84"/>
  <circle cx="533" cy="603" r="10" fill="#bbb" opacity="0.86"/>
  <circle cx="1110" cy="137" r="7" fill="#444" opacity="0.90"/>
  <polygon points="350.3,335.8 348.2,339.5 344.5,339.8 341.7,335.3 344.4,331.9 348.7,331.9" fill="#444" opacity="0.96"/>
  <polygon points="378.8,670.8 371.7,679.8 360.3,688.4 346.2,683.9 336.3,665.9 342.4,657.9 359.7,646.9 370.3,658.4" fill="#7a7a7a" opacity="0.74"/>
  <polygon points="865.7,594.6 848.2,624.2 823.3,610.7 823.1,587.6 848.8,577.9" fill="#7a7a7a" opacity="0.92"/>
  <circle cx="305" cy="50" r="30" fill="#999" opacity="0.88"/>
  <circle cx="394" cy="692" r="29" fill="#444" opacity="0.92"/>
  <circle cx="908" cy="168" r="27" fill="#7a7a7a" opacity="0.77"/>
  <circle cx="241" cy="18" r="25" fill="#7a7a7a" opacity="0.75"/>
  <circle cx="795" cy="749" r="29" fill="#666" opacity="0.89"/>
  <circle cx="432" cy="757" r="29" fill="#cc7a5a" opacity="0.94"/>
  <circle cx="884" cy="19" r="26" fill="#999" opacity="0.84"/>
  <circle cx="770" cy="301" r="4" fill="#888" opacity="0.84"/>
  <polygon points="425.3,416.7 421.4,424.6 412.6,422.0 411.7,412.2 423.3,408.1" fill="#999" opacity="0.90"/>
  <circle cx="274" cy="558" r="5" fill="#999" opacity="0.78"/>
  <polygon points="541.3,648.1 533.3,663.1 517.7,664.7 507.2,647.8 514.6,633.8 536.0,636.6" fill="#bbb" opacity="0.80"/>
  <circle cx="519" cy="849" r="9" fill="#444" opacity="0.93"/>
  <polygon points="505.7,469.8 500.5,479.6 490.3,487.6 483.7,481.2 478.7,471.3 480.0,463.3 489.1,457.3 499.7,465.6" fill="#999" opacity="0.83"/>
  <circle cx="876" cy="580" r="13" fill="#7a7a7a" opacity="0.84"/>
  <polygon points="584.1,180.9 578.9,185.1 572.5,190.2 567.0,185.3 567.1,176.6 572.4,172.3 580.4,174.0" fill="#bbb" opacity="0.71"/>
  <circle cx="808" cy="167" r="25" fill="#666" opacity="0.89"/>
  <circle cx="10" cy="406" r="13" fill="#999" opacity="0.78"/>
  <polygon points="1214.8,145.1 1206.9,157.1 1193.8,160.4 1179.1,157.2 1173.7,141.6 1177.6,126.9 1188.6,119.2 1204.9,132.0" fill="#7a7a7a" opacity="0.82"/>
  <circle cx="560" cy="220" r="23" fill="#bbb" opacity="0.77"/>
  <polygon points="837.0,266.4 837.0,272.0 830.2,273.2 825.0,269.4 822.9,264.7 829.2,259.3 836.6,262.1" fill="#cc7a5a" opacity="0.72"/>
  <circle cx="418" cy="458" r="15" fill="#666" opacity="0.95"/>
  <circle cx="734" cy="672" r="7" fill="#666" opacity="0.72"/>
  <circle cx="520" cy="613" r="14" fill="#666" opacity="0.99"/>
  <circle cx="999" cy="579" r="5" fill="#444" opacity="0.77"/>
  <circle cx="763" cy="337" r="8" fill="#444" opacity="0.89"/>
  <polygon points="1078.9,423.4 1069.2,437.4 1059.2,430.8 1056.1,414.4 1073.0,411.0" fill="#999" opacity="0.86"/>
  <polygon points="900.8,358.8 891.1,375.1 874.3,379.0 859.8,373.4 854.1,354.3 858.5,338.6 875.6,333.6 899.8,341.8" fill="#bbb" opacity="0.78"/>
  <circle cx="651" cy="250" r="17" fill="#cc7a5a" opacity="0.89"/>
  <circle cx="902" cy="36" r="29" fill="#666" opacity="0.72"/>
  <polygon points="126.6,611.5 122.3,620.7 109.9,619.3 109.3,603.7 121.7,603.4" fill="#bbb" opacity="0.71"/>
  <polygon points="283.5,197.7 279.8,201.8 274.7,200.3 275.5,194.5 281.2,193.5" fill="#cc7a5a" opacity="0.84"/>
  <polygon points="795.1,735.3 784.2,755.9 759.2,755.1 744.2,737.3 761.7,717.1 789.1,715.1" fill="#7a7a7a" opacity="0.87"/>
  <circle cx="139" cy="293" r="10" fill="#cc7a5a" opacity="0.77"/>
  <circle cx="497" cy="43" r="24" fill="#888" opacity="0.90"/>
  <polygon points="1121.4,482.1 1108.7,497.6 1094.0,495.0 1090.0,480.1 1095.2,470.4 1108.4,469.2" fill="#888" opacity="0.92"/>
  <circle cx="316" cy="490" r="7" fill="#666" opacity="0.98"/>
  <circle cx="243" cy="17" r="17" fill="#666" opacity="0.78"/>
  <circle cx="1136" cy="519" r="12" fill="#7a7a7a" opacity="0.83"/>
  <polygon points="191.3,443.5 188.9,458.8 168.8,461.0 151.8,453.5 151.8,432.0 169.1,418.4 188.8,419.9" fill="#666" opacity="0.80"/>
  <polygon points="89.2,429.8 83.7,451.9 67.9,457.7 43.0,439.4 49.2,425.2 57.8,405.8 85.3,415.3" fill="#cc7a5a" opacity="0.92"/>
  <polygon points="153.5,638.6 144.2,647.3 130.9,652.4 123.8,639.5 130.8,626.3 147.2,624.4" fill="#cc7a5a" opacity="0.97"/>
  <circle cx="914" cy="584" r="18" fill="#444" opacity="0.97"/>
  <polygon points="432.0,212.7 430.5,224.5 414.7,227.6 406.1,224.2 400.5,211.6 403.3,201.5 418.1,197.9 428.8,203.3" fill="#7a7a7a" opacity="0.95"/>
  <circle cx="508" cy="131" r="23" fill="#888" opacity="0.90"/>
  <polygon points="985.5,523.9 977.7,537.2 965.1,549.2 953.2,538.1 941.7,528.6 948.3,510.3 961.2,505.1 980.4,514.2" fill="#444" opacity="0.92"/>
  <polygon points="129.5,126.5 126.7,129.9 123.2,130.8 120.4,129.2 118.0,125.8 120.6,123.4 124.2,120.6 127.5,121.7" fill="#888" opacity="0.73"/>
  <polygon points="893.4,497.3 882.8,521.4 861.0,523.9 851.7,515.7 841.3,495.0 844.9,478.9 865.1,468.7 885.6,475.0" fill="#bbb" opacity="0.87"/>
  <polygon points="991.7,807.1 986.9,811.5 981.7,812.8 978.6,807.9 978.1,803.5 982.7,799.9 988.1,801.9" fill="#bbb" opacity="0.73"/>
  <circle cx="837" cy="630" r="19" fill="#999" opacity="0.80"/>
  <circle cx="860" cy="431" r="27" fill="#999" opacity="0.92"/>
  <polygon points="751.6,145.7 741.0,163.3 727.3,163.3 719.8,148.0 728.7,132.6 743.2,135.8" fill="#666" opacity="0.79"/>
  <circle cx="492" cy="779" r="7" fill="#7a7a7a" opacity="0.86"/>
  <circle cx="300" cy="140" r="24" fill="#999" opacity="0.93"/>
  <circle cx="350" cy="31" r="6" fill="#888" opacity="0.70"/>
  <polygon points="396.7,590.7 395.3,596.4 388.5,599.1 382.4,595.4 381.5,591.4 381.1,585.3 386.8,582.1 393.1,587.1" fill="#444" opacity="0.98"/>
  <circle cx="307" cy="312" r="11" fill="#666" opacity="0.97"/>
  <circle cx="376" cy="305" r="28" fill="#999" opacity="0.78"/>
  <polygon points="992.6,283.3 992.3,298.0 967.0,298.9 951.4,286.6 957.3,274.9 967.3,258.8 991.0,265.5" fill="#444" opacity="0.80"/>
  <circle cx="316" cy="851" r="30" fill="#888" opacity="0.89"/>
  <polygon points="706.1,884.7 699.6,905.2 671.2,894.4 676.5,874.9 695.6,864.8" fill="#444" opacity="0.71"/>
  <circle cx="272" cy="753" r="20" fill="#888" opacity="0.75"/>
  <circle cx="315" cy="178" r="26" fill="#7a7a7a" opacity="0.82"/>
  <polygon points="167.7,877.3 163.5,882.2 155.4,880.4 155.6,872.8 163.7,871.1" fill="#bbb" opacity="0.97"/>
  <polygon points="814.8,639.4 809.6,646.6 803.6,643.8 803.0,635.2 811.0,632.7" fill="#888" opacity="0.82"/>
  <circle cx="845" cy="529" r="5" fill="#888" opacity="0.87"/>
  <circle cx="97" cy="143" r="5" fill="#888" opacity="0.74"/>
  <circle cx="332" cy="268" r="26" fill="#444" opacity="0.81"/>
  <polygon points="667.6,17.8 659.6,31.8 647.5,28.6 635.7,14.0 644.5,2.2 661.7,3.1" fill="#444" opacity="0.92"/>
  <polygon points="268.5,114.0 264.9,129.5 242.6,131.6 228.5,117.6 227.2,104.8 240.8,92.8 265.1,94.4" fill="#cc7a5a" opacity="0.91"/>
  <polygon points="874.6,594.1 870.7,607.0 852.3,612.6 839.7,603.7 838.9,585.6 849.1,574.8 868.3,579.9" fill="#666" opacity="0.96"/>
  <polygon points="941.4,108.0 936.7,123.7 911.7,132.4 896.8,124.6 887.8,100.2 899.7,89.1 916.6,83.2 933.3,86.8" fill="#cc7a5a" opacity="0.87"/>
  <circle cx="87" cy="467" r="15" fill="#444" opacity="0.94"/>
  <polygon points="672.7,531.6 670.1,542.1 656.6,546.9 645.5,542.3 638.0,532.3 640.6,516.9 655.5,512.4 668.6,518.0" fill="#bbb" opacity="0.99"/>
  <polygon points="118.7,796.7 114.0,809.4 99.8,818.8 89.7,812.6 83.6,799.1 88.7,787.2 100.9,778.5 116.7,784.7" fill="#888" opacity="0.93"/>
  <polygon points="341.7,74.2 326.5,97.6 304.5,100.3 291.2,71.4 298.4,55.4 326.4,57.4" fill="#444" opacity="0.83"/>
  <polygon points="1014.7,734.4 1014.8,747.5 997.5,749.4 990.2,741.4 988.5,727.3 999.8,722.5 1009.0,724.6" fill="#bbb" opacity="0.92"/>
  <polygon points="913.2,338.6 906.7,345.4 898.1,342.3 899.0,336.2 908.4,331.6" fill="#999" opacity="0.98"/>
  <polygon points="974.5,749.3 966.3,756.5 957.3,755.6 952.9,746.1 957.8,740.1 968.2,741.0" fill="#cc7a5a" opacity="0.73"/>
  <polygon points="386.2,632.9 381.9,639.5 377.8,639.2 375.6,633.3 376.4,629.6 382.6,628.9" fill="#cc7a5a" opacity="0.87"/>
  <polygon points="1190.1,739.4 1185.7,743.6 1179.1,741.5 1180.0,736.2 1185.0,734.6" fill="#999" opacity="0.73"/>
  <circle cx="506" cy="547" r="29" fill="#cc7a5a" opacity="0.94"/>
  <circle cx="772" cy="22" r="9" fill="#888" opacity="0.79"/>
  <polygon points="710.4,881.5 708.5,887.5 702.0,890.1 696.2,883.9 695.7,875.0 700.4,873.0 709.0,873.5" fill="#444" opacity="0.78"/>
  <circle cx="556" cy="734" r="4" fill="#7a7a7a" opacity="0.81"/>
  <circle cx="320" cy="130" r="21" fill="#cc7a5a" opacity="0.91"/>
  <circle cx="941" cy="335" r="15" fill="#999" opacity="0.70"/>
  <polygon points="430.8,631.9 426.9,636.0 419.7,635.1 420.5,628.2 426.6,627.5" fill="#888" opacity="0.93"/>
  <circle cx="596" cy="661" r="11" fill="#666" opacity="0.75"/>
  <polygon points="775.7,243.6 770.4,256.4 759.0,259.4 744.9,251.0 745.1,237.9 755.1,228.3 768.8,230.9" fill="#cc7a5a" opacity="0.74"/>
  <circle cx="174" cy="469" r="15" fill="#bbb" opacity="0.94"/>
  <circle cx="23" cy="127" r="28" fill="#bbb" opacity="0.79"/>
  <polygon points="725.1,32.4 715.2,45.0 698.5,38.6 697.2,22.3 713.4,16.5" fill="#999" opacity="0.80"/>
  <polygon points="435.8,7.3 422.6,22.9 401.5,17.4 399.4,-5.0 421.8,-13.0" fill="#999" opacity="0.75"/>
  <circle cx="679" cy="725" r="8" fill="#7a7a7a" opacity="0.93"/>
  <polygon points="446.7,47.7 443.4,50.7 439.3,55.0 434.4,52.4 430.9,46.3 434.4,42.0 438.7,40.8 443.4,42.0" fill="#666" opacity="0.98"/>
  <circle cx="358" cy="224" r="11" fill="#bbb" opacity="0.87"/>
  <circle cx="999" cy="781" r="25" fill="#444" opacity="0.96"/>
  <circle cx="998" cy="420" r="17" fill="#999" opacity="0.71"/>
  <polygon points="1019.8,51.7 1007.1,71.2 982.0,59.4 984.3,40.6 1012.1,25.7" fill="#7a7a7a" opacity="0.72"/>
  <polygon points="1071.9,310.0 1058.4,330.7 1036.1,318.4 1031.5,297.7 1054.2,292.5" fill="#444" opacity="0.86"/>
  <circle cx="810" cy="826" r="16" fill="#888" opacity="0.75"/>
  <circle cx="17" cy="795" r="12" fill="#cc7a5a" opacity="0.93"/>
  <circle cx="683" cy="30" r="26" fill="#888" opacity="0.95"/>
  <polygon points="434.3,798.5 431.3,804.2 424.5,804.8 422.2,799.9 424.7,793.6 432.6,793.7" fill="#444" opacity="0.96"/>
  <polygon points="380.7,678.6 376.0,684.6 362.3,684.1 363.7,672.7 374.8,666.8" fill="#7a7a7a" opacity="0.96"/>
  <polygon points="446.0,590.0 437.7,604.5 409.9,606.8 400.9,587.9 413.7,566.1 433.6,564.9" fill="#444" opacity="0.75"/>
  <circle cx="242" cy="623" r="22" fill="#999" opacity="0.97"/>
  <circle cx="162" cy="291" r="12" fill="#7a7a7a" opacity="0.92"/>
  <polygon points="303.0,121.0 301.4,127.0 295.8,128.3 290.5,125.1 291.0,117.5 296.7,113.3 300.3,116.0" fill="#7a7a7a" opacity="0.79"/>
  <polygon points="750.1,626.7 737.0,648.1 704.9,638.1 707.4,611.9 743.9,598.1" fill="#7a7a7a" opacity="0.85"/>
  <polygon points="1083.7,144.2 1081.4,151.6 1073.9,150.1 1069.2,144.8 1072.4,135.7 1080.2,138.6" fill="#999" opacity="0.71"/>
  <circle cx="22" cy="698" r="18" fill="#cc7a5a" opacity="0.75"/>
  <polygon points="342.6,847.1 339.5,852.4 332.9,850.9 332.7,844.2 338.7,841.3" fill="#444" opacity="0.75"/>
  <circle cx="990" cy="561" r="18" fill="#999" opacity="0.79"/>
  <polygon points="1034.9,575.5 1025.3,591.2 1009.8,584.4 1011.1,572.4 1022.8,565.1" fill="#888" opacity="0.86"/>
  <circle cx="67" cy="19" r="30" fill="#888" opacity="0.96"/>
  <circle cx="845" cy="54" r="4" fill="#bbb" opacity="0.92"/>
  <circle cx="939" cy="523" r="14" fill="#999" opacity="0.97"/>
  <circle cx="875" cy="778" r="16" fill="#cc7a5a" opacity="0.71"/>
  <polygon points="559.5,385.5 550.9,403.2 533.3,410.3 521.6,390.7 521.2,371.1 534.3,363.4 555.0,365.1" fill="#444" opacity="0.81"/>
  <circle cx="1018" cy="714" r="21" fill="#444" opacity="0.71"/>
  <circle cx="643" cy="513" r="14" fill="#cc7a5a" opacity="0.95"/>
  <polygon points="750.2,142.2 747.6,152.4 738.8,156.4 727.9,149.8 729.2,140.5 737.6,134.2 746.8,137.9" fill="#bbb" opacity="0.89"/>
  <polygon points="1139.1,138.4 1134.6,147.6 1124.9,148.1 1117.6,142.7 1119.4,133.6 1124.1,126.2 1133.5,129.0" fill="#cc7a5a" opacity="0.87"/>
  <circle cx="800" cy="175" r="15" fill="#666" opacity="0.83"/>
  <circle cx="971" cy="111" r="17" fill="#7a7a7a" opacity="0.82"/>
  <polygon points="914.9,182.4 912.1,191.6 900.9,194.6 892.9,189.5 892.8,180.8 901.6,172.2 913.6,175.7" fill="#444" opacity="0.84"/>
  <circle cx="201" cy="818" r="24" fill="#444" opacity="0.86"/>
  <polygon points="618.2,433.3 607.5,454.0 584.8,460.8 571.4,432.7 587.5,419.2 609.1,416.4" fill="#7a7a7a" opacity="0.75"/>
  <circle cx="251" cy="332" r="15" fill="#888" opacity="0.93"/>
  <circle cx="258" cy="301" r="14" fill="#444" opacity="0.92"/>
  <polygon points="127.0,841.5 114.0,869.9 83.4,858.6 89.5,827.4 112.3,821.0" fill="#bbb" opacity="0.86"/>
  <polygon points="219.6,768.6 217.7,773.1 213.2,773.0 209.6,769.9 212.5,765.2 217.8,764.6" fill="#bbb" opacity="0.82"/>
  <circle cx="913" cy="315" r="27" fill="#888" opacity="0.83"/>
  <circle cx="587" cy="278" r="22" fill="#888" opacity="0.99"/>
  <polygon points="430.4,81.9 422.0,108.2 408.6,106.5 383.0,104.3 379.8,86.8 385.8,70.8 401.2,54.3 425.7,68.4" fill="#bbb" opacity="0.95"/>
  <polygon points="1084.1,15.5 1077.0,26.1 1064.0,27.2 1052.7,14.6 1063.6,6.0 1077.6,5.4" fill="#888" opacity="0.71"/>
  <circle cx="557" cy="104" r="28" fill="#bbb" opacity="0.92"/>
  <polygon points="386.5,191.5 377.7,199.7 365.9,205.2 355.2,196.0 354.0,182.4 364.3,171.5 380.1,176.9" fill="#666" opacity="0.85"/>
  <polygon points="842.8,89.8 838.2,103.1 824.2,107.1 815.6,104.0 811.4,90.6 816.9,71.3 829.8,72.9 838.3,77.6" fill="#cc7a5a" opacity="0.87"/>
  <polygon points="233.7,414.3 229.9,429.1 216.9,441.0 201.4,432.9 194.1,414.8 196.9,399.9 214.4,397.6 228.4,396.8" fill="#888" opacity="0.98"/>
  <polygon points="114.3,412.0 111.7,415.3 107.0,418.8 103.1,416.5 101.8,412.2 102.7,406.0 108.2,404.2 112.6,405.2" fill="#666" opacity="0.72"/>
  <circle cx="412" cy="467" r="24" fill="#999" opacity="0.79"/>
  <circle cx="382" cy="439" r="30" fill="#bbb" opacity="0.72"/>
  <polygon points="229.5,512.2 226.6,519.6 219.3,515.4 219.4,508.6 225.3,506.3" fill="#bbb" opacity="0.88"/>
  <circle cx="1132" cy="659" r="21" fill="#999" opacity="0.96"/>
  <circle cx="628" cy="480" r="9" fill="#444" opacity="0.77"/>
  <polygon points="549.1,95.6 548.0,100.4 541.4,106.7 532.6,104.1 529.8,93.9 533.9,86.6 542.2,83.5 547.8,86.0" fill="#888" opacity="0.78"/>
  <polygon points="472.3,72.9 451.3,99.6 428.7,91.6 431.2,64.5 450.4,58.1" fill="#444" opacity="0.96"/>
  <circle cx="738" cy="137" r="6" fill="#bbb" opacity="0.94"/>
  <polygon points="1116.8,359.5 1110.5,367.4 1101.5,367.2 1091.6,358.6 1099.7,348.5 1109.7,347.2" fill="#7a7a7a" opacity="0.99"/>
  <polygon points="552.4,670.8 546.4,678.8 539.5,674.6 538.5,667.8 547.1,664.8" fill="#bbb" opacity="0.76"/>
  <circle cx="1093" cy="326" r="29" fill="#666" opacity="0.74"/>
  <circle cx="802" cy="363" r="6" fill="#bbb" opacity="0.80"/>
  <circle cx="71" cy="194" r="15" fill="#999" opacity="0.86"/>
  <polygon points="303.2,672.2 295.6,686.3 280.1,688.2 266.1,675.6 267.4,659.9 278.2,646.0 296.9,656.2" fill="#888" opacity="0.88"/>
  <polygon points="195.2,652.9 193.9,656.6 190.5,656.0 188.0,653.1 189.8,649.5 193.5,649.1" fill="#444" opacity="0.71"/>
  <rect width="1200" height="900" fill="url(#vignette)" opacity="0.25"/>
  <g font-family="Inter, Helvetica, Arial, sans-serif" text-anchor="middle"><text x="600" y="870" font-size="14" fill="#fff" opacity="0.45" letter-spacing="2">ТОВАРНЫЙ БЕТОН · МАКРО</text></g>
</svg>