<svg xmlns="http://www.w3.org/2000/svg" viewBox="0 0 1200 900" preserveAspectRatio="xMidYMid slice">
  <defs><radialGradient id="vignette" cx="50%" cy="50%" r="70%"><stop offset="0%" stop-color="#a89880" stop-opacity="1"/><stop offset="100%" stop-color="#a89880" stop-opacity="0.55"/></radialGradient><filter id="blur" x="-20%" y="-20%" width="140%" height="140%"><feGaussianBlur stdDeviation="0.5"/></filter></defs><rect width="1200" height="900" fill="url(#vignette)"/>
  <circle cx="517" cy="297" r="36" fill="#7a6038" opacity="0.54" filter="url(#blur)"/>
  <circle cx="279" cy="560" r="43" fill="#bca27a" opacity="0.44" filter="url(#blur)"/>
  <circle cx="69" cy="761" r="21" fill="#bca27a" opacity="0.39" filter="url(#blur)"/>
  <polygon points="383.2,648.6 350.4,709.8 308.4,702.0 271.6,659.7 308.4,612.0 361.6,616.4" fill="#bca27a" opacity="0.48" filter="url(#blur)"/>
  <circle cx="613" cy="111" r="16" fill="#7a6038" opacity="0.37" filter="url(#blur)"/>
  <polygon points="485.8,679.4 472.1,705.9 446.4,709.5 429.8,700.8 426.1,675.9 450.4,651.3 468.9,662.7" fill="#7a6038" opacity="0.26" filter="url(#blur)"/>
  <circle cx="452" cy="754" r="31" fill="#8a7050" opacity="0.33" filter="url(#blur)"/>
  <circle cx="436" cy="274" r="38" fill="#bca27a" opacity="0.47" filter="url(#blur)"/>
  <polygon points="1017.0,671.0 987.6,716.4 929.9,692.3 926.7,642.0 995.1,626.8" fill="#c4a874" opacity="0.35" filter="url(#blur)"/>
  <polygon points="1005.0,738.2 976.7,768.7 942.6,775.4 931.2,740.0 942.8,711.8 984.6,711.4" fill="#7a6038" opacity="0.32" filter="url(#blur)"/>
  <polygon points="847.8,768.2 845.2,778.5 828.7,785.6 822.6,780.6 815.5,770.2 819.0,754.7 830.9,747.7 845.7,754.7" fill="#7a6038" opacity="0.43" filter="url(#blur)"/>
  <circle cx="625" cy="862" r="50" fill="#bca27a" opacity="0.40" filter="url(#blur)"/>
  <polygon points="336.1,323.9 307.8,382.5 251.1,352.7 260.7,309.8 310.8,289.6" fill="#bca27a" opacity="0.47" filter="url(#blur)"/>
  <circle cx="875" cy="292" r="34" fill="#bca27a" opacity="0.35" filter="url(#blur)"/>
  <polygon points="424.4,16.5 404.9,40.5 372.8,39.9 361.5,15.7 375.3,-12.1 409.7,-13.9" fill="#3e3220" opacity="0.28" filter="url(#blur)"/>
  <circle cx="138" cy="50" r="31" fill="#3e3220" opacity="0.49" filter="url(#blur)"/>
  <polygon points="374.8,534.6 348.9,572.7 308.1,581.6 286.1,529.7 304.3,503.5 365.9,495.7" fill="#9c8458" opacity="0.34" filter="url(#blur)"/>
  <polygon points="230.5,157.5 219.9,175.6 202.5,181.8 184.7,167.4 184.9,146.9 196.5,135.9 214.4,143.8" fill="#8a7050" opacity="0.28" filter="url(#blur)"/>
  <circle cx="277" cy="172" r="31" fill="#9c8458" opacity="0.51" filter="url(#blur)"/>
  <circle cx="216" cy="53" r="41" fill="#7a6038" opacity="0.31" filter="url(#blur)"/>
  <circle cx="929" cy="65" r="21" fill="#c4a874" opacity="0.26" filter="url(#blur)"/>
  <circle cx="246" cy="859" r="28" fill="#bca27a" opacity="0.45" filter="url(#blur)"/>
  <circle cx="1140" cy="174" r="31" fill="#594a36" opacity="0.27" filter="url(#blur)"/>
  <polygon points="1110.7,677.6 1099.4,717.1 1059.9,703.9 1034.7,673.9 1044.4,635.2 1095.1,641.6" fill="#bca27a" opacity="0.27" filter="url(#blur)"/>
  <polygon points="739.0,435.3 723.4,476.6 699.1,476.0 667.1,462.6 668.9,426.0 696.2,399.2 735.6,410.4" fill="#8a7050" opacity="0.35" filter="url(#blur)"/>
  <polygon points="847.2,173.3 834.2,201.9 788.1,222.8 765.2,187.6 765.1,146.6 790.7,124.7 838.8,138.1" fill="#8a7050" opacity="0.50" filter="url(#blur)"/>
  <circle cx="436" cy="674" r="16" fill="#8a7050" opacity="0.37" filter="url(#blur)"/>
  <circle cx="1059" cy="66" r="41" fill="#594a36" opacity="0.35" filter="url(#blur)"/>
  <circle cx="931" cy="682" r="38" fill="#9c8458" opacity="0.33" filter="url(#blur)"/>
  <circle cx="785" cy="345" r="44" fill="#c4a874" opacity="0.33" filter="url(#blur)"/>
  <polygon points="490.2,788.7 463.7,826.1 422.6,830.5 373.4,803.8 385.2,746.6 429.6,737.1 462.5,744.6" fill="#7a6038" opacity="0.52" filter="url(#blur)"/>
  <polygon points="1200.1,276.7 1181.7,320.3 1152.1,329.6 1122.3,303.7 1113.5,269.0 1150.5,240.1 1179.6,254.5" fill="#594a36" opacity="0.52" filter="url(#blur)"/>
  <circle cx="558" cy="107" r="30" fill="#9c8458" opacity="0.40" filter="url(#blur)"/>
  <circle cx="859" cy="466" r="42" fill="#8a7050" opacity="0.93"/>
  <circle cx="846" cy="453" r="13" fill="#fff" opacity="0.17"/>
  <circle cx="87" cy="441" r="20" fill="#8a7050" opacity="0.77"/>
  <circle cx="81" cy="435" r="6" fill="#fff" opacity="0.29"/>
  <circle cx="436" cy="30" r="59" fill="#8a7050" opacity="0.80"/>
  <circle cx="418" cy="12" r="18" fill="#fff" opacity="0.27"/>
  <circle cx="161" cy="896" r="10" fill="#3e3220" opacity="0.74"/>
  <circle cx="158" cy="893" r="3" fill="#fff" opacity="0.20"/>
  <circle cx="1164" cy="220" r="30" fill="#594a36" opacity="0.95"/>
  <circle cx="1155" cy="211" r="9" fill="#fff" opacity="0.22"/>
  <circle cx="252" cy="82" r="27" fill="#8a7050" opacity="0.84"/>
  <circle cx="244" cy="74" r="8" fill="#fff" opacity="0.22"/>
  <polygon points="71.6,171.5 61.5,193.4 38.1,191.6 31.1,174.8 37.6,151.0 62.3,151.9" fill="#594a36" opacity="0.72"/>
  <polygon points="176.3,885.5 158.1,909.3 129.8,906.6 112.2,890.1 130.5,854.2 161.5,860.4" fill="#bca27a" opacity="0.89"/>
  <circle cx="875" cy="601" r="15" fill="#3e3220" opacity="0.87"/>
  <circle cx="870" cy="596" r="4" fill="#fff" opacity="0.16"/>
  <circle cx="513" cy="805" r="55" fill="#9c8458" opacity="0.89"/>
  <circle cx="496" cy="788" r="16" fill="#fff" opacity="0.27"/>
  <polygon points="788.3,651.1 783.0,657.7 776.1,658.5 768.5,656.6 768.8,645.4 775.1,638.6 786.3,642.6" fill="#bca27a" opacity="0.72"/>
  <circle cx="483" cy="571" r="41" fill="#9c8458" opacity="0.91"/>
  <circle cx="471" cy="559" r="12" fill="#fff" opacity="0.17"/>
  <circle cx="216" cy="874" r="33" fill="#9c8458" opacity="0.80"/>
  <circle cx="206" cy="864" r="10" fill="#fff" opacity="0.21"/>
  <circle cx="907" cy="607" r="50" fill="#bca27a" opacity="0.93"/>
  <circle cx="892" cy="592" r="15" fill="#fff" opacity="0.30"/>
  <polygon points="381.7,832.9 376.0,856.7 356.7,870.7 324.9,860.2 317.3,840.9 323.3,813.0 346.1,800.0 372.6,815.0" fill="#594a36" opacity="0.75"/>
  <circle cx="1063" cy="656" r="59" fill="#594a36" opacity="0.80"/>
  <circle cx="1045" cy="638" r="18" fill="#fff" opacity="0.26"/>
  <circle cx="1144" cy="697" r="24" fill="#bca27a" opacity="0.99"/>
  <circle cx="1137" cy="690" r="7" fill="#fff" opacity="0.25"/>
  <polygon points="127.9,658.9 90.8,706.6 38.1,694.4 45.2,628.0 103.7,603.0" fill="#3e3220" opacity="0.80"/>
  <circle cx="584" cy="380" r="14" fill="#7a6038" opacity="0.92"/>
  <circle cx="580" cy="376" r="4" fill="#fff" opacity="0.20"/>
  <polygon points="821.2,117.9 810.5,136.8 795.8,136.8 780.3,121.0 785.5,97.8 811.6,95.4" fill="#594a36" opacity="0.87"/>
  <polygon points="680.0,427.6 668.7,463.9 622.1,466.7 600.3,421.6 616.3,392.7 661.8,394.0" fill="#594a36" opacity="0.90"/>
  <polygon points="188.7,748.8 173.7,768.9 153.3,771.1 133.3,767.0 130.7,746.8 134.6,723.5 161.2,711.7 174.9,722.4" fill="#594a36" opacity="0.73"/>
  <circle cx="596" cy="373" r="47" fill="#3e3220" opacity="0.83"/>
  <circle cx="582" cy="359" r="14" fill="#fff" opacity="0.18"/>
  <polygon points="1042.8,660.9 1035.6,670.7 1016.7,674.3 1007.5,654.7 1020.3,645.8 1039.1,642.7" fill="#8a7050" opacity="0.82"/>
  <circle cx="144" cy="3" r="44" fill="#9c8458" opacity="0.97"/>
  <circle cx="131" cy="-10" r="13" fill="#fff" opacity="0.24"/>
  <circle cx="646" cy="844" r="29" fill="#9c8458" opacity="0.76"/>
  <circle cx="637" cy="835" r="9" fill="#fff" opacity="0.20"/>
  <circle cx="360" cy="621" r="57" fill="#3e3220" opacity="0.88"/>
  <circle cx="343" cy="604" r="17" fill="#fff" opacity="0.26"/>
  <circle cx="899" cy="253" r="40" fill="#594a36" opacity="0.77"/>
  <circle cx="887" cy="241" r="12" fill="#fff" opacity="0.27"/>
  <polygon points="80.3,866.0 68.9,881.3 55.0,877.3 52.2,858.9 70.8,854.1" fill="#8a7050" opacity="1.00"/>
  <polygon points="1116.9,873.0 1100.6,901.7 1065.2,903.7 1045.1,895.5 1035.0,858.5 1069.1,832.4 1106.2,847.9" fill="#c4a874" opacity="0.83"/>
  <polygon points="1057.5,169.7 1054.3,178.4 1047.3,179.4 1039.0,178.1 1038.5,171.4 1040.1,164.7 1047.1,161.5 1056.3,164.4" fill="#594a36" opacity="0.79"/>
  <circle cx="367" cy="585" r="40" fill="#8a7050" opacity="0.72"/>
  <circle cx="355" cy="573" r="12" fill="#fff" opacity="0.26"/>
  <polygon points="844.7,867.7 826.7,889.7 805.0,908.8 768.2,904.5 752.8,868.8 774.2,843.5 792.6,826.2 829.3,843.1" fill="#594a36" opacity="0.75"/>
  <polygon points="131.6,554.9 128.1,571.9 103.8,570.3 92.9,557.2 105.1,537.5 128.7,538.1" fill="#7a6038" opacity="0.78"/>
  <polygon points="603.4,38.6 595.4,48.1 583.6,48.3 578.9,38.6 586.0,27.5 597.5,28.3" fill="#bca27a" opacity="0.99"/>
  <polygon points="328.6,58.6 302.4,100.6 248.6,83.9 248.1,32.6 317.0,4.0" fill="#bca27a" opacity="0.81"/>
  <polygon points="428.7,629.6 412.2,659.8 375.8,653.1 375.5,612.7 411.1,605.0" fill="#9c8458" opacity="0.98"/>
  <polygon points="737.6,316.4 726.9,338.1 706.3,341.6 686.1,333.5 686.9,302.6 705.6,291.2 730.3,290.6" fill="#9c8458" opacity="0.75"/>
  <circle cx="594" cy="364" r="48" fill="#9c8458" opacity="0.77"/>
  <circle cx="580" cy="350" r="14" fill="#fff" opacity="0.18"/>
  <polygon points="155.9,767.9 142.2,801.4 110.8,808.4 88.1,807.4 74.6,775.3 90.1,744.3 111.3,736.6 133.6,748.3" fill="#7a6038" opacity="0.80"/>
  <circle cx="250" cy="14" r="27" fill="#9c8458" opacity="0.78"/>
  <circle cx="242" cy="6" r="8" fill="#fff" opacity="0.24"/>
  <polygon points="884.6,772.6 871.8,829.8 841.0,822.4 810.3,800.4 808.5,760.1 834.7,735.0 869.6,741.8" fill="#8a7050" opacity="0.78"/>
  <circle cx="700" cy="866" r="14" fill="#bca27a" opacity="0.88"/>
  <circle cx="696" cy="862" r="4" fill="#fff" opacity="0.29"/>
  <polygon points="1147.8,445.6 1124.6,479.4 1090.7,465.3 1100.9,431.9 1129.8,423.7" fill="#7a6038" opacity="0.97"/>
  <circle cx="340" cy="848" r="20" fill="#3e3220" opacity="0.99"/>
  <circle cx="334" cy="842" r="6" fill="#fff" opacity="0.22"/>
  <polygon points="335.2,632.6 310.5,669.1 272.9,655.1 280.7,611.5 312.9,611.6" fill="#bca27a" opacity="0.89"/>
  <polygon points="423.9,588.0 410.7,601.0 397.5,597.2 394.3,580.5 413.8,573.1" fill="#7a6038" opacity="0.99"/>
  <polygon points="358.2,477.9 354.3,490.6 337.9,493.8 328.7,487.9 322.9,473.6 339.4,459.5 354.6,465.5" fill="#594a36" opacity="0.97"/>
  <polygon points="81.4,179.7 74.7,203.5 34.2,205.0 21.9,175.0 39.8,156.4 77.8,149.6" fill="#594a36" opacity="0.73"/>
  <polygon points="904.0,567.7 890.2,582.5 869.0,589.3 862.0,578.8 854.0,558.8 875.4,546.4 897.6,548.0" fill="#7a6038" opacity="0.85"/>
  <circle cx="104" cy="53" r="50" fill="#594a36" opacity="0.94"/>
  <circle cx="89" cy="38" r="15" fill="#fff" opacity="0.30"/>
  <circle cx="1076" cy="327" r="28" fill="#7a6038" opacity="0.75"/>
  <circle cx="1068" cy="319" r="8" fill="#fff" opacity="0.20"/>
  <circle cx="1098" cy="735" r="10" fill="#3e3220" opacity="0.95"/>
  <circle cx="1095" cy="732" r="3" fill="#fff" opacity="0.28"/>
  <polygon points="466.6,310.3 445.2,358.5 414.9,376.3 368.5,353.7 353.9,320.3 374.2,275.9 418.3,272.4 457.8,285.5" fill="#8a7050" opacity="0.90"/>
  <circle cx="1170" cy="54" r="22" fill="#594a36" opacity="0.72"/>
  <circle cx="1163" cy="47" r="7" fill="#fff" opacity="0.21"/>
  <polygon points="522.0,226.2 517.6,231.2 509.1,234.5 505.2,230.4 504.4,219.7 511.8,214.0 516.9,217.8" fill="#3e3220" opacity="0.83"/>
  <polygon points="1072.7,661.2 1064.0,678.1 1052.6,680.6 1038.0,668.6 1042.1,657.0 1052.4,650.3 1063.9,650.2" fill="#7a6038" opacity="0.73"/>
  <polygon points="158.0,735.7 140.0,756.8 121.3,744.6 122.3,725.8 140.2,715.7" fill="#bca27a" opacity="1.00"/>
  <polygon points="1006.8,839.1 1003.7,849.5 991.3,846.8 985.3,837.0 991.8,826.8 1003.9,827.4" fill="#3e3220" opacity="0.95"/>
  <circle cx="1133" cy="728" r="48" fill="#3e3220" opacity="0.77"/>
  <circle cx="1119" cy="714" r="14" fill="#fff" opacity="0.25"/>
  <polygon points="647.9,830.9 614.3,876.0 566.9,883.6 538.6,858.8 546.1,818.2 583.5,770.8 610.2,792.8" fill="#c4a874" opacity="0.85"/>
  <circle cx="940" cy="25" r="55" fill="#7a6038" opacity="0.73"/>
  <circle cx="924" cy="8" r="16" fill="#fff" opacity="0.17"/>
  <circle cx="1149" cy="101" r="25" fill="#bca27a" opacity="0.88"/>
  <circle cx="1142" cy="94" r="8" fill="#fff" opacity="0.27"/>
  <polygon points="1118.1,514.9 1101.0,542.6 1055.3,549.9 1025.7,540.8 1015.8,508.6 1016.4,477.4 1065.4,464.9 1088.3,475.2" fill="#bca27a" opacity="0.86"/>
  <polygon points="183.0,346.6 167.0,366.2 144.1,375.0 132.2,358.8 125.6,332.5 144.5,322.1 170.4,328.6" fill="#594a36" opacity="0.78"/>
  <polygon points="897.9,208.5 900.1,235.5 852.0,243.0 818.5,240.4 816.7,205.4 813.2,166.8 865.5,152.2 888.7,170.0" fill="#594a36" opacity="0.74"/>
  <circle cx="1134" cy="429" r="15" fill="#8a7050" opacity="0.89"/>
  <circle cx="1130" cy="424" r="4" fill="#fff" opacity="0.21"/>
  <polygon points="606.0,47.8 595.1,83.7 571.6,84.9 547.9,70.4 546.0,32.9 575.5,16.7 599.7,23.1" fill="#9c8458" opacity="0.86"/>
  <circle cx="112" cy="577" r="25" fill="#9c8458" opacity="0.93"/>
  <circle cx="104" cy="570" r="8" fill="#fff" opacity="0.30"/>
  <polygon points="637.3,599.3 619.4,629.7 591.1,636.6 573.1,628.8 557.0,591.0 570.0,563.7 599.5,558.5 627.5,576.2" fill="#c4a874" opacity="0.72"/>
  <circle cx="280" cy="297" r="37" fill="#8a7050" opacity="0.72"/>
  <circle cx="269" cy="286" r="11" fill="#fff" opacity="0.26"/>
  <circle cx="658" cy="19" r="31" fill="#8a7050" opacity="0.94"/>
  <circle cx="649" cy="10" r="9" fill="#fff" opacity="0.25"/>
  <circle cx="248" cy="385" r="13" fill="#8a7050" opacity="0.90"/>
  <circle cx="244" cy="381" r="4" fill="#fff" opacity="0.20"/>
  <circle cx="574" cy="799" r="28" fill="#c4a874" opacity="0.80"/>
  <circle cx="566" cy="791" r="8" fill="#fff" opacity="0.25"/>
  <circle cx="621" cy="543" r="35" fill="#594a36" opacity="0.73"/>
  <circle cx="610" cy="532" r="10" fill="#fff" opacity="0.19"/>
  <circle cx="1086" cy="449" r="56" fill="#8a7050" opacity="0.77"/>
  <circle cx="1069" cy="432" r="17" fill="#fff" opacity="0.26"/>
  <polygon points="921.8,182.2 917.8,197.8 907.6,201.6 894.7,196.0 890.4,186.1 892.2,173.0 907.3,170.8 917.6,175.3" fill="#9c8458" opacity="0.79"/>
  <circle cx="1110" cy="48" r="22" fill="#bca27a" opacity="0.96"/>
  <circle cx="1103" cy="41" r="7" fill="#fff" opacity="0.19"/>
  <polygon points="1010.0,96.7 1005.1,104.5 997.9,109.0 989.2,108.0 987.6,98.9 989.0,93.1 998.0,87.3 1004.8,92.4" fill="#c4a874" opacity="0.91"/>
  <polygon points="1033.7,102.0 1029.0,115.4 1013.8,119.3 1006.9,109.2 1007.3,95.1 1015.9,86.6 1028.4,88.3" fill="#3e3220" opacity="0.77"/>
  <circle cx="633" cy="726" r="11" fill="#8a7050" opacity="0.97"/>
  <circle cx="630" cy="723" r="3" fill="#fff" opacity="0.24"/>
  <circle cx="616" cy="85" r="38" fill="#594a36" opacity="0.75"/>
  <circle cx="605" cy="74" r="11" fill="#fff" opacity="0.27"/>
  <circle cx="990" cy="463" r="34" fill="#8a7050" opacity="0.86"/>
  <circle cx="980" cy="453" r="10" fill="#fff" opacity="0.19"/>
  <circle cx="604" cy="767" r="23" fill="#7a6038" opacity="0.92"/>
  <circle cx="597" cy="760" r="7" fill="#fff" opacity="0.26"/>
  <polygon points="217.6,747.6 195.8,764.7 175.6,759.6 172.8,729.5 202.4,719.0" fill="#7a6038" opacity="0.84"/>
  <polygon points="593.8,643.8 590.9,661.1 576.1,665.5 562.7,663.0 553.5,645.9 558.9,629.0 573.4,620.9 588.7,630.3" fill="#9c8458" opacity="0.76"/>
  <circle cx="877" cy="325" r="57" fill="#7a6038" opacity="0.98"/>
  <circle cx="860" cy="308" r="17" fill="#fff" opacity="0.19"/>
  <polygon points="1210.7,438.6 1187.6,488.9 1152.1,479.0 1113.7,432.4 1150.4,387.1 1194.3,394.9" fill="#8a7050" opacity="0.97"/>
  <polygon points="660.2,713.8 646.1,754.3 610.3,761.7 570.3,746.1 557.4,709.8 564.6,668.8 609.5,670.7 637.5,675.0" fill="#7a6038" opacity="0.97"/>
  <polygon points="251.9,419.4 235.6,477.2 181.6,476.8 156.4,426.6 180.4,385.3 217.9,389.5" fill="#9c8458" opacity="0.72"/>
  <circle cx="448" cy="253" r="21" fill="#bca27a" opacity="0.87"/>
  <circle cx="442" cy="247" r="6" fill="#fff" opacity="0.26"/>
  <circle cx="1199" cy="310" r="27" fill="#594a36" opacity="0.71"/>
  <circle cx="1191" cy="302" r="8" fill="#fff" opacity="0.27"/>
  <polygon points="291.8,709.6 284.7,726.1 256.0,749.5 227.4,728.8 219.0,706.8 226.8,670.0 254.9,655.3 284.2,681.2" fill="#8a7050" opacity="0.96"/>
  <polygon points="144.7,600.2 128.8,640.4 94.3,639.1 81.5,622.1 64.3,588.4 104.3,557.9 136.0,580.9" fill="#3e3220" opacity="0.75"/>
  <polygon points="965.2,322.0 961.0,330.8 946.8,328.7 940.2,321.0 947.7,310.1 959.9,312.1" fill="#594a36" opacity="0.96"/>
  <polygon points="1209.6,146.7 1191.4,164.5 1165.5,174.8 1148.7,139.5 1155.4,116.3 1199.0,114.6" fill="#8a7050" opacity="0.99"/>
  <circle cx="575" cy="203" r="52" fill="#c4a874" opacity="0.75"/>
  <circle cx="559" cy="187" r="16" fill="#fff" opacity="0.19"/>
  <circle cx="120" cy="114" r="25" fill="#c4a874" opacity="0.89"/>
  <circle cx="112" cy="106" r="8" fill="#fff" opacity="0.15"/>
  <circle cx="3" cy="759" r="58" fill="#bca27a" opacity="0.96"/>
  <circle cx="-14" cy="742" r="17" fill="#fff" opacity="0.22"/>
  <circle cx="473" cy="552" r="15" fill="#3e3220" opacity="0.83"/>
  <circle cx="468" cy="548" r="4" fill="#fff" opacity="0.23"/>
  <polygon points="985.9,810.3 976.5,823.3 955.6,831.5 932.9,829.8 930.1,806.7 936.8,795.6 956.2,776.7 976.5,795.1" fill="#c4a874" opacity="0.90"/>
  <polygon points="1010.5,301.9 984.3,325.6 968.1,337.6 932.6,325.1 925.4,293.4 941.0,276.1 964.7,263.7 983.7,271.5" fill="#7a6038" opacity="0.78"/>
  <polygon points="428.7,420.0 422.6,454.0 403.4,460.6 381.9,444.1 371.6,428.8 376.4,405.6 406.6,393.2 428.4,403.2" fill="#bca27a" opacity="0.86"/>
  <polygon points="933.9,176.7 925.1,192.1 910.8,187.0 910.6,168.6 926.0,163.8" fill="#594a36" opacity="0.70"/>
  <circle cx="333" cy="704" r="36" fill="#3e3220" opacity="0.71"/>
  <circle cx="322" cy="693" r="11" fill="#fff" opacity="0.20"/>
  <polygon points="636.1,446.3 601.5,496.3 537.0,475.5 540.3,423.8 608.3,400.9" fill="#8a7050" opacity="0.99"/>
  <circle cx="383" cy="865" r="50" fill="#3e3220" opacity="0.91"/>
  <circle cx="368" cy="850" r="15" fill="#fff" opacity="0.17"/>
  <polygon points="309.9,63.6 301.3,75.5 282.7,75.0 286.7,54.9 302.8,50.4" fill="#7a6038" opacity="0.83"/>
  <circle cx="334" cy="68" r="52" fill="#594a36" opacity="0.85"/>
  <circle cx="318" cy="52" r="16" fill="#fff" opacity="0.21"/>
  <circle cx="327" cy="163" r="28" fill="#594a36" opacity="0.72"/>
  <circle cx="319" cy="155" r="8" fill="#fff" opacity="0.22"/>
  <circle cx="269" cy="499" r="23" fill="#bca27a" opacity="0.87"/>
  <circle cx="262" cy="492" r="7" fill="#fff" opacity="0.21"/>
  <polygon points="680.3,286.2 674.7,297.8 664.8,300.1 658.4,296.1 654.1,286.9 658.3,278.0 666.5,275.4 674.1,282.0" fill="#c4a874" opacity="0.91"/>
  <polygon points="1203.9,760.0 1195.0,790.5 1156.4,803.9 1117.2,783.2 1101.9,749.4 1110.1,721.5 1149.1,696.8 1194.9,723.1" fill="#8a7050" opacity="0.95"/>
  <circle cx="548" cy="89" r="53" fill="#8a7050" opacity="0.99"/>
  <circle cx="532" cy="73" r="16" fill="#fff" opacity="0.15"/>
  <circle cx="954" cy="453" r="21" fill="#9c8458" opacity="0.93"/>
  <circle cx="948" cy="447" r="6" fill="#fff" opacity="0.17"/>
  <polygon points="722.3,132.7 716.4,148.0 697.9,152.4 686.6,136.4 700.7,119.5 713.6,115.2" fill="#9c8458" opacity="0.94"/>
  <polygon points="718.8,525.2 712.7,540.9 690.4,546.5 681.8,534.6 678.7,516.4 689.6,506.2 707.4,504.2" fill="#9c8458" opacity="0.81"/>
  <circle cx="155" cy="46" r="41" fill="#3e3220" opacity="0.97"/>
  <circle cx="143" cy="34" r="12" fill="#fff" opacity="0.22"/>
  <circle cx="1060" cy="96" r="41" fill="#3e3220" opacity="0.85"/>
  <circle cx="1048" cy="84" r="12" fill="#fff" opacity="0.27"/>
  <circle cx="76" cy="771" r="15" fill="#7a6038" opacity="0.80"/>
  <circle cx="72" cy="766" r="4" fill="#fff" opacity="0.29"/>
  <polygon points="1131.9,448.5 1120.5,465.2 1098.2,471.7 1082.2,457.8 1087.2,444.5 1097.4,430.7 1121.7,437.8" fill="#8a7050" opacity="0.97"/>
  <circle cx="174" cy="576" r="57" fill="#594a36" opacity="0.96"/>
  <circle cx="157" cy="559" r="17" fill="#fff" opacity="0.19"/>
  <polygon points="1043.1,844.4 1031.6,859.2 1007.3,862.3 994.4,840.6 1014.3,819.7 1035.9,825.2" fill="#594a36" opacity="0.89"/>
  <polygon points="552.6,905.0 517.8,943.8 483.5,942.2 446.3,899.9 479.5,840.8 523.9,858.5" fill="#bca27a" opacity="0.82"/>
  <circle cx="991" cy="234" r="49" fill="#c4a874" opacity="0.99"/>
  <circle cx="976" cy="219" r="15" fill="#fff" opacity="0.29"/>
  <circle cx="656" cy="566" r="20" fill="#8a7050" opacity="0.87"/>
  <circle cx="650" cy="560" r="6" fill="#fff" opacity="0.18"/>
  <polygon points="157.9,531.0 147.6,543.6 131.3,533.7 130.1,519.4 147.3,511.0" fill="#8a7050" opacity="0.99"/>
  <circle cx="225" cy="464" r="17" fill="#7a6038" opacity="0.96"/>
  <circle cx="220" cy="459" r="5" fill="#fff" opacity="0.21"/>
  <polygon points="652.6,298.2 637.1,315.6 606.6,311.0 611.4,286.0 637.5,275.9" fill="#8a7050" opacity="0.87"/>
  <polygon points="1173.9,245.6 1157.4,275.7 1127.6,279.2 1108.9,253.7 1121.9,228.7 1150.2,223.9" fill="#3e3220" opacity="0.77"/>
  <polygon points="306.9,882.0 307.8,899.6 282.8,902.6 258.3,887.0 254.5,868.0 281.0,845.2 300.7,861.4" fill="#8a7050" opacity="0.74"/>
  <polygon points="123.8,122.2 105.1,155.1 78.6,156.5 57.3,146.9 56.5,113.0 71.9,88.9 113.2,93.1" fill="#c4a874" opacity="0.95"/>
  <circle cx="812" cy="67" r="30" fill="#9c8458" opacity="0.96"/>
  <circle cx="803" cy="58" r="9" fill="#fff" opacity="0.20"/>
  <circle cx="1188" cy="874" r="24" fill="#9c8458" opacity="1.00"/>
  <circle cx="1181" cy="867" r="7" fill="#fff" opacity="0.26"/>
  <circle cx="407" cy="201" r="12" fill="#8a7050" opacity="0.83"/>
  <circle cx="403" cy="197" r="4" fill="#fff" opacity="0.26"/>
  <circle cx="445" cy="82" r="25" fill="#bca27a" opacity="0.80"/>
  <circle cx="438" cy="74" r="8" fill="#fff" opacity="0.15"/>
  <polygon points="492.0,143.6 480.2,163.8 450.2,158.2 444.8,118.0 478.3,112.1" fill="#594a36" opacity="0.79"/>
  <circle cx="942" cy="379" r="27" fill="#c4a874" opacity="0.92"/>
  <circle cx="934" cy="371" r="8" fill="#fff" opacity="0.25"/>
  <polygon points="1082.4,387.7 1066.6,436.3 1029.1,446.4 993.2,410.7 981.0,378.9 1019.5,343.0 1051.6,356.5" fill="#8a7050" opacity="0.84"/>
  <circle cx="365" cy="647" r="33" fill="#9c8458" opacity="0.84"/>
  <circle cx="355" cy="637" r="10" fill="#fff" opacity="0.27"/>
  <polygon points="913.8,464.3 908.2,471.8 897.2,468.1 897.0,458.8 910.1,455.1" fill="#bca27a" opacity="0.84"/>
  <polygon points="1135.5,449.2 1125.1,463.9 1109.0,467.7 1095.7,462.7 1092.9,442.7 1106.4,433.0 1126.7,439.4" fill="#9c8458" opacity="0.78"/>
  <circle cx="310" cy="201" r="23" fill="#7a6038" opacity="0.95"/>
  <circle cx="303" cy="194" r="7" fill="#fff" opacity="0.21"/>
  <polygon points="946.0,517.0 931.0,532.3 908.8,524.4 907.8,498.3 932.5,491.2" fill="#c4a874" opacity="0.88"/>
  <polygon points="1214.4,679.3 1178.6,719.6 1140.9,713.4 1136.2,650.1 1182.1,647.4" fill="#7a6038" opacity="0.87"/>
  <circle cx="972" cy="114" r="49" fill="#9c8458" opacity="0.99"/>
  <circle cx="957" cy="99" r="15" fill="#fff" opacity="0.15"/>
  <polygon points="946.7,366.6 935.5,385.6 915.2,392.4 897.3,373.5 897.9,347.5 916.5,339.8 939.1,342.9" fill="#3e3220" opacity="0.92"/>
  <circle cx="336" cy="284" r="56" fill="#3e3220" opacity="0.80"/>
  <circle cx="319" cy="267" r="17" fill="#fff" opacity="0.30"/>
  <circle cx="51" cy="514" r="12" fill="#3e3220" opacity="0.71"/>
  <circle cx="47" cy="510" r="4" fill="#fff" opacity="0.29"/>
  <polygon points="298.5,581.7 295.8,587.2 289.5,588.9 286.6,587.3 283.0,581.0 283.7,574.1 291.8,573.9 296.3,573.1" fill="#7a6038" opacity="0.89"/>
  <polygon points="655.3,530.3 632.0,557.4 591.7,555.6 586.0,509.0 629.4,500.7" fill="#594a36" opacity="0.75"/>
  <circle cx="343" cy="272" r="15" fill="#9c8458" opacity="0.80"/>
  <circle cx="338" cy="268" r="4" fill="#fff" opacity="0.24"/>
  <polygon points="548.8,511.7 528.4,533.1 495.2,533.2 497.0,490.1 527.0,483.6" fill="#8a7050" opacity="0.81"/>
  <circle cx="878" cy="684" r="40" fill="#c4a874" opacity="0.77"/>
  <circle cx="866" cy="672" r="12" fill="#fff" opacity="0.28"/>
  <polygon points="593.0,128.1 578.0,148.2 557.5,147.1 560.8,114.6 579.4,105.1" fill="#594a36" opacity="0.85"/>
  <circle cx="1129" cy="487" r="23" fill="#7a6038" opacity="0.94"/>
  <circle cx="1122" cy="480" r="7" fill="#fff" opacity="0.25"/>
  <circle cx="250" cy="176" r="16" fill="#3e3220" opacity="0.74"/>
  <circle cx="245" cy="171" r="5" fill="#fff" opacity="0.29"/>
  <circle cx="593" cy="802" r="50" fill="#8a7050" opacity="0.85"/>
  <circle cx="578" cy="787" r="15" fill="#fff" opacity="0.17"/>
  <polygon points="332.2,812.7 324.4,833.3 289.1,847.2 265.6,821.7 270.2,789.3 290.3,765.8 321.0,777.9" fill="#594a36" opacity="0.98"/>
  <circle cx="467" cy="553" r="59" fill="#c4a874" opacity="0.83"/>
  <circle cx="449" cy="535" r="18" fill="#fff" opacity="0.29"/>
  <polygon points="240.5,458.6 225.3,487.4 195.0,474.6 195.4,438.9 226.4,439.3" fill="#594a36" opacity="0.72"/>
  <polygon points="296.9,121.9 288.3,139.6 278.0,137.9 263.4,135.5 265.9,120.4 275.4,108.3 288.4,112.4" fill="#3e3220" opacity="0.80"/>
  <circle cx="222" cy="395" r="47" fill="#7a6038" opacity="0.94"/>
  <circle cx="208" cy="381" r="14" fill="#fff" opacity="0.21"/>
  <circle cx="494" cy="484" r="36" fill="#bca27a" opacity="0.70"/>
  <circle cx="483" cy="473" r="11" fill="#fff" opacity="0.26"/>
  <circle cx="985" cy="388" r="54" fill="#c4a874" opacity="0.89"/>
  <circle cx="969" cy="372" r="16" fill="#fff" opacity="0.19"/>
  <circle cx="349" cy="323" r="17" fill="#bca27a" opacity="0.96"/>
  <circle cx="344" cy="318" r="5" fill="#fff" opacity="0.15"/>
  <circle cx="974" cy="116" r="57" fill="#594a36" opacity="0.90"/>
  <circle cx="957" cy="99" r="17" fill="#fff" opacity="0.24"/>
  <rect width="1200" height="900" fill="url(#vignette)" opacity="0.25"/>
  <g font-family="Inter, Helvetica, Arial, sans-serif" text-anchor="middle"><text x="600" y="870" font-size="14" fill="#fff" opacity="0.45" letter-spacing="2">ПГС / ОПГС · МАКРО</text></g>
</svg>