<svg xmlns="http://www.w3.org/2000/svg" viewBox="0 0 1200 900" preserveAspectRatio="xMidYMid slice">
  <defs><radialGradient id="vignette" cx="50%" cy="50%" r="70%"><stop offset="0%" stop-color="#c8baa0" stop-opacity="1"/><stop offset="100%" stop-color="#c8baa0" stop-opacity="0.55"/></radialGradient><filter id="blur" x="-20%" y="-20%" width="140%" height="140%"><feGaussianBlur stdDeviation="0.5"/></filter></defs><rect width="1200" height="900" fill="url(#vignette)"/>
  <polygon points="919.0,595.1 910.3,611.9 881.3,630.3 855.5,619.1 837.2,581.8 855.7,555.4 884.9,546.5 901.9,557.5" fill="#82704f" opacity="0.31" filter="url(#blur)"/>
  <polygon points="352.0,361.5 340.3,383.6 308.8,372.0 302.2,341.3 340.1,334.6" fill="#aa9876" opacity="0.53" filter="url(#blur)"/>
  <polygon points="708.7,592.3 697.6,643.4 644.1,642.8 614.3,630.1 622.5,575.6 657.2,543.5 695.2,565.2" fill="#574d36" opacity="0.35" filter="url(#blur)"/>
  <polygon points="87.0,207.5 81.5,224.6 61.8,218.6 56.1,203.8 65.0,188.8 83.3,192.1" fill="#d6c9af" opacity="0.34" filter="url(#blur)"/>
  <polygon points="184.8,553.6 166.4,580.4 147.0,584.6 114.5,568.8 125.1,548.0 141.6,530.3 173.5,530.7" fill="#82704f" opacity="0.39" filter="url(#blur)"/>
  <polygon points="244.3,689.9 218.4,724.2 166.3,735.2 141.9,704.3 135.7,668.6 180.2,642.3 234.5,649.0" fill="#aa9876" opacity="0.46" filter="url(#blur)"/>
  <polygon points="82.7,786.3 74.7,798.8 57.9,797.4 48.5,786.3 56.5,773.7 73.7,774.4" fill="#d6c9af" opacity="0.31" filter="url(#blur)"/>
  <polygon points="345.7,647.1 323.3,675.3 293.6,664.5 290.6,624.7 321.5,620.0" fill="#d6c9af" opacity="0.44" filter="url(#blur)"/>
  <polygon points="50.2,205.2 29.5,226.0 -1.3,216.0 3.3,184.2 30.2,172.8" fill="#9e8d6a" opacity="0.54" filter="url(#blur)"/>
  <polygon points="1167.5,701.8 1134.6,747.4 1099.5,756.4 1075.0,731.9 1068.9,689.6 1097.7,656.6 1140.0,677.8" fill="#b5a685" opacity="0.55" filter="url(#blur)"/>
  <polygon points="1043.2,175.8 1039.6,205.5 1000.5,213.7 988.0,180.8 1001.9,154.8 1028.9,154.1" fill="#9e8d6a" opacity="0.42" filter="url(#blur)"/>
  <polygon points="498.2,621.7 481.4,644.8 453.4,639.7 451.6,606.2 477.8,602.9" fill="#9e8d6a" opacity="0.46" filter="url(#blur)"/>
  <polygon points="867.5,301.6 856.1,318.2 834.7,321.5 812.6,310.2 817.0,290.7 838.6,272.2 857.4,278.5" fill="#b5a685" opacity="0.38" filter="url(#blur)"/>
  <polygon points="605.8,705.4 593.9,728.5 575.4,736.6 558.7,728.8 545.9,713.1 560.8,692.6 572.9,683.8 596.9,693.2" fill="#9e8d6a" opacity="0.54" filter="url(#blur)"/>
  <polygon points="1057.8,770.6 1041.2,808.2 1005.4,821.5 962.7,800.7 971.9,746.4 1007.1,718.5 1055.3,732.8" fill="#82704f" opacity="0.42" filter="url(#blur)"/>
  <polygon points="584.0,173.5 559.6,194.6 538.0,200.5 508.1,183.4 519.6,152.4 538.3,128.1 564.8,147.5" fill="#9e8d6a" opacity="0.34" filter="url(#blur)"/>
  <polygon points="263.7,40.2 246.8,89.6 194.2,104.5 165.7,87.5 153.7,46.8 160.8,6.3 205.1,-15.0 234.0,11.8" fill="#b5a685" opacity="0.51" filter="url(#blur)"/>
  <polygon points="153.5,702.9 143.0,723.0 119.9,722.5 108.5,709.7 118.0,689.4 140.2,688.8" fill="#574d36" opacity="0.27" filter="url(#blur)"/>
  <polygon points="895.2,888.7 888.7,903.5 869.3,905.3 859.7,893.7 863.1,880.6 870.0,870.0 886.6,870.8" fill="#aa9876" opacity="0.42" filter="url(#blur)"/>
  <polygon points="1007.6,889.2 990.2,917.6 964.0,920.2 950.5,888.9 965.2,865.9 990.1,863.3" fill="#aa9876" opacity="0.44" filter="url(#blur)"/>
  <polygon points="380.9,179.9 371.1,195.7 347.1,209.2 329.1,189.7 332.5,175.3 352.1,154.1 373.7,159.5" fill="#574d36" opacity="0.77"/>
  <polygon points="354.3,172.6 350.4,180.8 344.5,181.1 341.2,172.7 344.7,166.2 351.6,168.9" fill="#fff" opacity="0.21"/>
  <polygon points="313.2,183.8 301.1,202.9 272.2,205.5 247.2,193.9 249.4,161.7 267.3,143.9 302.5,144.0" fill="#aa9876" opacity="0.74"/>
  <polygon points="282.3,166.2 277.8,175.8 270.9,176.9 260.2,172.1 262.8,161.9 267.2,158.1 276.5,157.5" fill="#fff" opacity="0.19"/>
  <polygon points="643.3,814.8 616.4,863.6 570.9,837.2 559.7,790.1 624.1,787.1" fill="#b5a685" opacity="0.86"/>
  <polygon points="604.9,807.2 596.4,814.4 586.5,816.5 576.2,811.4 576.5,798.9 588.3,789.7 597.7,793.5" fill="#fff" opacity="0.13"/>
  <polygon points="341.5,559.7 321.3,596.6 288.9,588.6 284.5,546.4 326.3,535.9" fill="#82704f" opacity="0.72"/>
  <polygon points="309.2,554.6 306.5,559.4 300.5,563.9 290.9,558.1 292.9,548.0 299.9,545.8 308.1,546.2" fill="#fff" opacity="0.20"/>
  <polygon points="889.7,464.5 879.0,503.2 837.5,499.4 819.9,460.1 831.4,426.1 878.0,421.5" fill="#d6c9af" opacity="0.97"/>
  <polygon points="854.7,447.9 842.5,461.3 833.4,454.0 832.3,439.8 843.5,432.9" fill="#fff" opacity="0.13"/>
  <polygon points="233.4,652.2 227.6,671.4 208.7,681.8 187.2,668.0 184.4,640.9 205.7,629.8 229.4,630.7" fill="#d6c9af" opacity="0.86"/>
  <polygon points="210.3,641.9 204.1,648.5 195.7,646.1 194.7,636.5 202.0,634.9" fill="#fff" opacity="0.14"/>
  <polygon points="821.0,372.5 798.4,403.8 759.9,394.1 766.8,361.0 796.1,344.5" fill="#d6c9af" opacity="0.79"/>
  <polygon points="790.3,363.6 786.4,370.7 780.3,373.9 772.7,369.2 773.2,358.2 778.0,355.4 786.8,353.9" fill="#fff" opacity="0.10"/>
  <polygon points="1158.2,17.9 1156.2,40.0 1128.3,46.5 1107.6,35.0 1107.2,0.8 1131.1,-15.8 1155.3,-10.6" fill="#d6c9af" opacity="0.86"/>
  <polygon points="1132.9,6.0 1125.4,13.3 1114.9,9.0 1115.2,-1.6 1126.9,-4.3" fill="#fff" opacity="0.24"/>
  <polygon points="131.9,843.5 127.6,866.5 103.5,871.4 82.8,863.3 80.8,844.3 90.1,822.9 104.0,809.9 127.5,828.1" fill="#574d36" opacity="0.76"/>
  <polygon points="102.4,833.3 99.1,841.8 91.5,841.9 87.2,832.7 89.8,825.1 99.1,824.7" fill="#fff" opacity="0.20"/>
  <polygon points="153.8,875.4 140.6,892.2 126.7,890.8 109.0,884.5 100.6,875.4 115.1,855.5 123.6,850.7 140.7,854.6" fill="#d6c9af" opacity="0.78"/>
  <polygon points="123.6,862.2 122.8,867.6 117.5,868.7 112.8,867.9 110.3,862.9 113.2,858.3 118.7,855.7 122.2,856.4" fill="#fff" opacity="0.20"/>
  <polygon points="265.1,323.2 232.0,371.7 180.9,359.3 188.2,312.2 240.9,291.2" fill="#9e8d6a" opacity="0.80"/>
  <polygon points="223.5,315.4 217.4,322.2 207.3,328.1 194.8,324.0 192.2,317.7 196.0,305.8 206.6,298.1 217.4,305.0" fill="#fff" opacity="0.11"/>
  <polygon points="498.1,561.5 488.3,578.2 475.2,582.2 457.8,577.4 456.5,552.1 471.7,546.0 494.4,545.4" fill="#82704f" opacity="0.98"/>
  <polygon points="477.4,558.1 472.0,564.2 466.7,559.8 466.6,553.3 472.1,551.5" fill="#fff" opacity="0.17"/>
  <polygon points="329.2,274.9 322.8,299.1 295.6,309.7 264.1,307.4 249.7,278.5 249.3,245.5 292.3,240.5 324.5,249.9" fill="#d6c9af" opacity="0.88"/>
  <polygon points="288.2,259.4 283.1,270.5 272.6,274.1 263.2,271.2 260.0,260.1 264.2,253.4 272.4,250.3 282.7,251.5" fill="#fff" opacity="0.18"/>
  <polygon points="1013.0,199.4 1011.9,217.1 985.7,228.4 958.2,222.8 943.5,195.9 954.3,174.1 989.1,162.9 1013.3,173.2" fill="#b5a685" opacity="0.75"/>
  <polygon points="983.6,185.0 974.9,196.3 966.4,191.6 966.2,179.7 975.4,174.1" fill="#fff" opacity="0.18"/>
  <polygon points="229.0,850.2 209.8,883.8 185.6,912.5 157.4,889.9 143.8,859.2 152.1,823.6 189.8,804.2 215.2,835.1" fill="#82704f" opacity="0.91"/>
  <polygon points="180.2,840.2 172.9,856.5 161.8,854.5 155.3,841.9 161.4,830.7 172.9,826.4" fill="#fff" opacity="0.11"/>
  <polygon points="166.7,430.5 145.2,484.8 103.5,467.1 60.7,431.7 96.9,391.9 147.4,385.1" fill="#9e8d6a" opacity="0.72"/>
  <polygon points="120.6,411.9 114.8,426.1 93.7,424.0 88.5,413.4 98.8,398.5 112.4,400.6" fill="#fff" opacity="0.15"/>
  <polygon points="79.0,783.9 43.2,834.4 -17.5,819.2 -14.7,753.0 31.1,729.6" fill="#82704f" opacity="0.74"/>
  <polygon points="12.2,767.2 2.9,779.4 -18.9,776.0 -14.5,757.9 4.0,751.1" fill="#fff" opacity="0.23"/>
  <polygon points="186.3,657.8 168.2,671.2 151.8,679.5 131.4,664.7 133.6,636.7 155.4,628.3 172.8,632.5" fill="#9e8d6a" opacity="0.77"/>
  <polygon points="156.2,643.8 153.4,651.9 143.4,650.1 144.2,639.3 152.2,636.3" fill="#fff" opacity="0.17"/>
  <polygon points="102.1,444.4 96.4,478.0 68.1,482.7 32.9,477.2 19.2,435.5 37.0,417.1 67.6,402.0 103.2,416.5" fill="#aa9876" opacity="0.84"/>
  <polygon points="68.6,425.7 63.4,436.9 49.7,435.5 39.4,427.8 48.9,415.5 61.0,413.9" fill="#fff" opacity="0.15"/>
  <polygon points="103.8,454.5 92.1,478.2 63.2,496.4 35.6,481.5 29.4,453.5 34.6,431.8 57.6,413.1 85.0,425.0" fill="#d6c9af" opacity="1.00"/>
  <polygon points="64.9,443.9 57.6,450.7 45.9,450.5 40.7,439.7 47.0,429.3 56.9,430.5" fill="#fff" opacity="0.24"/>
  <polygon points="546.1,12.4 526.9,54.0 487.7,37.6 482.0,-9.3 523.6,-22.1" fill="#82704f" opacity="0.80"/>
  <polygon points="509.0,0.5 506.4,11.6 500.4,11.0 489.1,10.9 485.9,0.8 492.4,-7.0 499.8,-9.7 507.2,-7.3" fill="#fff" opacity="0.22"/>
  <polygon points="185.6,732.5 174.9,757.8 147.6,754.7 128.2,722.2 144.0,702.7 174.1,706.8" fill="#b5a685" opacity="0.80"/>
  <polygon points="157.3,714.9 149.2,726.2 138.2,724.6 139.3,713.2 149.1,708.5" fill="#fff" opacity="0.13"/>
  <polygon points="542.5,462.3 521.7,495.8 476.9,501.5 465.0,471.1 476.3,428.4 527.7,429.8" fill="#b5a685" opacity="0.79"/>
  <polygon points="500.3,453.3 494.3,462.0 482.0,463.7 476.1,456.4 476.8,446.5 481.9,442.2 493.4,445.4" fill="#fff" opacity="0.12"/>
  <polygon points="426.3,255.8 403.2,286.2 353.3,304.6 322.5,248.6 337.6,197.1 402.9,211.5" fill="#574d36" opacity="0.99"/>
  <polygon points="370.4,228.5 363.4,240.3 356.7,241.4 343.4,238.9 337.1,226.2 341.5,214.2 354.6,211.6 364.9,217.4" fill="#fff" opacity="0.13"/>
  <polygon points="1139.2,48.7 1122.7,93.8 1098.5,108.8 1054.9,84.0 1029.0,49.0 1055.8,26.9 1078.5,6.3 1124.2,11.8" fill="#574d36" opacity="0.88"/>
  <polygon points="1083.2,35.1 1081.1,49.2 1063.3,48.4 1055.7,35.6 1064.6,24.2 1082.2,23.4" fill="#fff" opacity="0.14"/>
  <polygon points="974.7,540.4 967.8,555.6 948.6,568.9 931.2,561.6 919.0,542.3 934.7,522.7 945.7,521.3 968.7,521.4" fill="#b5a685" opacity="0.83"/>
  <polygon points="947.7,532.8 943.2,540.0 935.1,541.6 931.4,531.9 935.0,526.6 945.6,526.5" fill="#fff" opacity="0.17"/>
  <polygon points="1146.7,508.6 1126.9,551.2 1078.4,557.0 1044.2,526.0 1047.5,481.4 1073.9,439.7 1121.3,460.1" fill="#aa9876" opacity="0.76"/>
  <polygon points="1091.2,489.3 1083.4,502.9 1064.5,505.7 1059.5,496.1 1056.8,480.9 1070.1,467.7 1082.5,470.2" fill="#fff" opacity="0.15"/>
  <polygon points="1041.2,106.4 1025.0,121.1 1000.9,115.1 999.8,90.8 1024.1,79.6" fill="#b5a685" opacity="0.96"/>
  <polygon points="1018.1,95.8 1016.1,102.1 1008.1,98.2 1009.3,92.0 1014.6,89.2" fill="#fff" opacity="0.21"/>
  <polygon points="972.8,73.0 926.3,119.7 850.4,98.5 875.2,32.0 928.5,15.2" fill="#82704f" opacity="0.77"/>
  <polygon points="907.8,43.3 901.6,55.2 893.3,64.6 880.6,58.2 874.0,42.9 876.5,30.7 892.6,24.1 902.4,36.2" fill="#fff" opacity="0.21"/>
  <polygon points="679.2,713.8 659.3,744.6 610.4,742.3 574.9,702.7 597.9,657.1 647.6,650.3" fill="#aa9876" opacity="0.89"/>
  <polygon points="625.1,686.0 611.4,702.4 596.0,694.5 596.3,680.0 610.3,674.9" fill="#fff" opacity="0.21"/>
  <polygon points="786.0,23.5 758.6,59.9 722.6,75.3 693.3,53.6 682.2,0.3 714.3,-26.7 766.0,-4.1" fill="#aa9876" opacity="0.98"/>
  <polygon points="726.2,9.1 721.0,19.1 711.0,23.4 701.9,16.5 696.3,3.1 707.6,-5.8 725.3,-3.3" fill="#fff" opacity="0.23"/>
  <polygon points="741.7,468.6 728.1,513.7 676.9,532.0 653.6,466.8 668.2,434.8 711.6,431.8" fill="#d6c9af" opacity="0.72"/>
  <polygon points="695.7,456.1 687.6,464.8 673.6,468.5 664.7,453.1 670.4,443.0 687.2,444.7" fill="#fff" opacity="0.20"/>
  <polygon points="483.1,281.3 471.0,326.2 410.1,327.0 382.8,282.3 410.3,242.8 455.3,244.5" fill="#9e8d6a" opacity="0.82"/>
  <polygon points="432.6,262.4 428.1,276.2 415.2,275.8 403.2,270.0 402.7,258.5 414.8,250.8 426.4,255.4" fill="#fff" opacity="0.12"/>
  <polygon points="938.8,797.3 913.9,831.3 878.9,837.5 854.1,829.0 843.8,798.1 857.3,767.5 883.7,754.5 918.0,767.4" fill="#82704f" opacity="0.89"/>
  <polygon points="886.8,778.4 878.2,790.0 868.0,791.4 858.2,779.4 865.4,770.4 878.9,767.7" fill="#fff" opacity="0.16"/>
  <polygon points="1016.4,110.1 981.9,138.7 939.6,143.4 900.4,132.8 902.5,88.5 938.9,55.1 979.6,55.7" fill="#d6c9af" opacity="0.93"/>
  <polygon points="949.3,81.6 945.8,98.9 934.2,102.0 924.4,96.7 921.7,83.1 921.7,73.7 937.5,69.1 946.2,70.4" fill="#fff" opacity="0.17"/>
  <polygon points="725.3,20.3 717.7,38.9 691.7,52.7 663.2,34.7 663.6,0.9 682.5,-13.6 713.0,-2.6" fill="#aa9876" opacity="0.72"/>
  <polygon points="692.6,6.7 690.2,14.2 682.8,16.7 675.9,14.6 676.5,6.8 679.8,2.0 685.7,0.5 689.2,1.4" fill="#fff" opacity="0.14"/>
  <polygon points="1090.2,680.0 1063.3,716.4 1032.0,724.8 1004.9,712.2 1016.2,665.2 1041.8,637.9 1073.5,645.6" fill="#9e8d6a" opacity="0.98"/>
  <polygon points="1042.4,669.2 1035.6,680.9 1022.1,682.1 1019.3,668.7 1023.7,660.6 1040.1,659.8" fill="#fff" opacity="0.19"/>
  <polygon points="41.6,668.6 22.5,704.8 -23.7,690.4 -30.9,652.3 15.6,635.3" fill="#9e8d6a" opacity="0.76"/>
  <polygon points="3.9,661.8 0.0,669.3 -9.7,671.3 -18.9,667.0 -17.6,657.0 -11.6,650.6 -0.8,651.1" fill="#fff" opacity="0.15"/>
  <polygon points="1087.5,777.6 1074.9,800.8 1052.4,805.5 1013.9,802.2 1016.1,782.2 1015.9,754.0 1046.1,743.3 1076.2,750.4" fill="#82704f" opacity="0.91"/>
  <polygon points="1044.0,763.2 1040.6,773.3 1028.3,773.3 1024.0,766.8 1028.7,755.7 1040.6,756.5" fill="#fff" opacity="0.14"/>
  <polygon points="237.3,656.8 218.3,681.6 194.7,701.8 175.7,688.3 164.7,655.3 173.7,633.0 191.8,628.9 225.1,640.3" fill="#574d36" opacity="0.86"/>
  <polygon points="194.5,648.0 187.6,659.6 176.4,654.8 175.9,642.6 186.0,639.0" fill="#fff" opacity="0.11"/>
  <polygon points="433.9,817.2 421.9,847.4 390.9,870.6 330.2,851.8 331.1,823.9 337.1,779.9 380.2,754.2 420.7,776.9" fill="#574d36" opacity="0.76"/>
  <polygon points="382.4,796.4 373.0,811.7 354.8,808.4 349.9,798.0 359.5,780.9 369.7,781.5" fill="#fff" opacity="0.12"/>
  <polygon points="152.8,300.9 132.6,328.5 107.2,325.5 101.5,286.3 131.4,274.6" fill="#82704f" opacity="0.86"/>
  <polygon points="125.3,292.1 123.8,301.4 117.4,302.1 113.0,299.9 109.0,292.7 113.6,287.3 118.8,286.1 124.2,288.2" fill="#fff" opacity="0.25"/>
  <polygon points="982.9,815.6 972.3,854.7 945.8,861.4 910.9,831.5 919.4,804.8 942.6,778.2 984.5,787.7" fill="#b5a685" opacity="0.90"/>
  <polygon points="951.8,807.9 948.9,813.3 940.2,818.0 931.7,815.3 927.9,807.7 930.2,798.2 940.3,796.5 947.9,796.5" fill="#fff" opacity="0.14"/>
  <polygon points="598.7,71.1 575.7,95.0 545.7,118.2 521.2,108.7 510.6,66.4 513.0,41.4 551.2,27.7 585.9,43.8" fill="#b5a685" opacity="0.82"/>
  <polygon points="547.8,54.2 541.4,67.8 529.8,66.8 522.8,62.0 523.3,51.6 529.7,44.6 541.6,46.4" fill="#fff" opacity="0.14"/>
  <polygon points="145.4,672.4 124.0,706.4 97.5,720.3 62.9,693.0 45.6,671.9 51.9,634.9 95.4,618.9 124.0,628.2" fill="#b5a685" opacity="0.77"/>
  <polygon points="91.8,655.8 81.6,669.1 70.0,669.3 61.6,657.6 68.6,642.4 85.0,643.3" fill="#fff" opacity="0.23"/>
  <polygon points="896.6,354.8 884.9,384.4 849.5,406.3 830.4,392.9 817.9,358.8 825.6,333.1 862.8,317.4 885.4,337.0" fill="#d6c9af" opacity="0.93"/>
  <polygon points="850.7,349.6 842.7,361.1 831.5,358.6 833.4,341.9 844.6,336.4" fill="#fff" opacity="0.23"/>
  <polygon points="167.5,126.1 144.0,163.8 115.9,171.9 80.2,137.0 83.3,94.7 119.3,80.7 147.2,87.5" fill="#b5a685" opacity="0.79"/>
  <polygon points="121.3,105.6 114.0,121.6 93.9,115.8 97.2,99.2 113.7,96.5" fill="#fff" opacity="0.16"/>
  <polygon points="925.6,787.9 906.2,817.6 888.8,817.6 868.3,802.5 861.1,781.3 883.9,769.8 906.7,770.8" fill="#9e8d6a" opacity="0.83"/>
  <polygon points="892.7,780.9 885.8,789.3 876.8,787.8 875.0,778.3 885.1,775.2" fill="#fff" opacity="0.15"/>
  <polygon points="870.3,632.1 853.3,652.3 825.8,653.7 817.1,638.2 833.6,611.7 851.0,607.8" fill="#aa9876" opacity="0.91"/>
  <polygon points="840.5,624.0 836.2,630.5 828.5,631.9 824.0,626.1 830.5,618.9 837.5,618.4" fill="#fff" opacity="0.17"/>
  <polygon points="938.5,769.6 912.0,804.9 879.1,793.7 876.7,753.9 909.4,739.2" fill="#d6c9af" opacity="0.90"/>
  <polygon points="901.1,759.8 897.5,766.6 889.5,770.1 881.1,766.4 876.6,760.1 879.9,751.3 890.3,748.7 897.4,747.6" fill="#fff" opacity="0.12"/>
  <polygon points="1040.9,572.8 1027.5,612.0 1006.0,623.9 968.7,609.2 963.1,575.8 964.0,541.8 994.2,528.7 1033.7,541.1" fill="#d6c9af" opacity="0.71"/>
  <polygon points="996.7,557.0 994.4,569.1 984.6,572.6 972.2,561.9 976.0,551.9 984.0,540.7 994.4,548.2" fill="#fff" opacity="0.13"/>
  <polygon points="753.1,52.3 733.1,105.1 680.6,87.4 665.1,36.8 723.4,11.1" fill="#d6c9af" opacity="0.79"/>
  <polygon points="709.0,43.0 704.0,54.0 695.3,58.2 683.0,52.4 684.3,42.2 695.5,33.4 705.4,37.6" fill="#fff" opacity="0.23"/>
  <polygon points="62.2,817.0 20.1,858.2 -22.0,827.1 -28.2,776.6 27.2,769.8" fill="#d6c9af" opacity="0.82"/>
  <polygon points="9.1,794.0 5.7,803.5 -3.8,806.0 -13.8,803.8 -17.9,794.2 -13.9,783.1 -1.9,779.5 6.8,785.8" fill="#fff" opacity="0.19"/>
  <polygon points="196.1,302.5 186.9,317.2 174.8,326.6 151.1,323.0 149.2,304.5 150.7,279.6 173.1,275.0 190.0,288.4" fill="#574d36" opacity="0.74"/>
  <polygon points="171.0,292.9 167.1,297.5 159.2,300.6 155.8,293.6 156.6,288.1 160.3,285.2 167.8,283.8" fill="#fff" opacity="0.15"/>
  <polygon points="979.8,306.0 972.8,355.4 927.8,360.4 893.4,333.9 900.1,299.9 928.0,276.0 961.2,274.9" fill="#aa9876" opacity="0.97"/>
  <polygon points="935.4,297.4 929.8,306.4 914.5,306.1 906.9,294.8 917.2,285.4 929.2,281.7" fill="#fff" opacity="0.24"/>
  <polygon points="880.1,725.9 872.2,746.4 854.4,756.3 836.0,742.5 833.8,720.1 845.6,702.3 876.2,704.1" fill="#b5a685" opacity="0.74"/>
  <polygon points="853.3,719.7 850.9,724.8 847.5,727.7 840.4,725.5 838.6,717.4 842.1,713.1 845.9,709.5 853.6,713.9" fill="#fff" opacity="0.21"/>
  <polygon points="1135.1,146.8 1125.1,165.2 1100.1,172.1 1089.8,153.2 1102.1,136.5 1126.2,137.1" fill="#b5a685" opacity="0.89"/>
  <polygon points="1113.4,144.5 1108.2,149.7 1100.2,148.1 1100.9,140.1 1107.5,135.9" fill="#fff" opacity="0.12"/>
  <polygon points="960.3,611.8 926.8,663.6 880.5,654.8 865.4,619.7 873.5,573.4 933.7,568.3" fill="#b5a685" opacity="0.79"/>
  <polygon points="904.6,595.5 895.8,607.3 881.1,605.5 873.0,595.0 878.1,583.0 895.2,582.5" fill="#fff" opacity="0.18"/>
  <polygon points="894.1,128.0 857.5,162.1 827.2,165.5 807.6,138.5 820.8,94.7 865.9,104.2" fill="#d6c9af" opacity="0.93"/>
  <polygon points="844.0,117.6 841.4,129.2 828.5,129.7 822.6,118.7 826.5,108.1 839.7,105.6" fill="#fff" opacity="0.15"/>
  <polygon points="224.5,146.8 197.8,197.0 156.2,171.8 147.6,114.6 190.6,105.3" fill="#82704f" opacity="0.83"/>
  <polygon points="180.6,130.2 172.6,140.6 157.3,134.9 156.2,120.6 171.2,116.6" fill="#fff" opacity="0.20"/>
  <rect width="1200" height="900" fill="url(#vignette)" opacity="0.25"/>
  <g font-family="Inter, Helvetica, Arial, sans-serif" text-anchor="middle"><text x="600" y="870" font-size="14" fill="#fff" opacity="0.45" letter-spacing="2">ЩЕБЕНЬ ИЗВЕСТНЯКОВЫЙ · МАКРО</text></g>
</svg>