<svg xmlns="http://www.w3.org/2000/svg" viewBox="0 0 1200 900" preserveAspectRatio="xMidYMid slice">
  <defs><radialGradient id="vignette" cx="50%" cy="50%" r="70%"><stop offset="0%" stop-color="#5a5a5e" stop-opacity="1"/><stop offset="100%" stop-color="#5a5a5e" stop-opacity="0.55"/></radialGradient><filter id="blur" x="-20%" y="-20%" width="140%" height="140%"><feGaussianBlur stdDeviation="0.5"/></filter></defs><rect width="1200" height="900" fill="url(#vignette)"/>
  <polygon points="61.9,715.4 29.6,751.9 -22.5,737.6 -36.3,682.3 23.1,665.1" fill="#6a6a72" opacity="0.54" filter="url(#blur)"/>
  <polygon points="743.8,483.7 723.5,504.6 698.2,513.2 671.4,499.4 676.8,469.8 704.1,450.0 733.3,457.2" fill="#cc6c5c" opacity="0.44" filter="url(#blur)"/>
  <polygon points="1019.9,134.6 1009.5,156.3 982.5,187.1 951.6,159.6 939.5,137.7 951.8,98.8 984.2,100.1 1003.6,106.5" fill="#8a8a92" opacity="0.30" filter="url(#blur)"/>
  <polygon points="158.5,9.6 134.1,38.9 104.6,50.3 76.8,30.9 60.4,-4.2 98.7,-25.7 129.3,-31.3" fill="#cc6c5c" opacity="0.51" filter="url(#blur)"/>
  <polygon points="256.9,739.5 249.6,758.7 230.6,758.3 218.1,749.9 221.1,729.7 232.1,718.4 247.7,726.3" fill="#3a3a40" opacity="0.34" filter="url(#blur)"/>
  <polygon points="607.3,505.0 603.3,527.2 571.7,535.5 551.2,527.0 549.8,502.4 553.6,489.0 577.3,477.7 598.9,491.3" fill="#2a2a30" opacity="0.54" filter="url(#blur)"/>
  <polygon points="272.1,843.2 259.8,860.2 248.2,867.7 230.6,859.1 216.6,837.9 227.5,824.0 242.6,818.3 262.1,819.9" fill="#4a4a52" opacity="0.33" filter="url(#blur)"/>
  <polygon points="281.0,485.6 269.4,530.2 209.8,559.1 169.6,528.3 153.0,496.4 178.1,463.0 210.0,437.7 262.4,453.9" fill="#4a4a52" opacity="0.39" filter="url(#blur)"/>
  <polygon points="73.8,177.4 68.5,187.9 58.5,194.5 44.0,188.7 41.1,178.5 46.5,166.7 57.1,158.6 67.7,167.3" fill="#2a2a30" opacity="0.26" filter="url(#blur)"/>
  <polygon points="799.6,251.4 770.9,271.4 749.2,292.7 701.6,273.0 694.5,243.4 707.4,220.5 730.8,191.9 770.6,209.0" fill="#4a4a52" opacity="0.35" filter="url(#blur)"/>
  <polygon points="1215.2,249.6 1201.0,280.4 1171.6,279.7 1154.5,259.8 1165.7,231.8 1201.6,224.3" fill="#cc6c5c" opacity="0.46" filter="url(#blur)"/>
  <polygon points="556.6,562.7 536.0,626.6 499.2,629.2 448.8,609.7 441.8,554.3 489.7,520.9 530.8,529.2" fill="#3a3a40" opacity="0.39" filter="url(#blur)"/>
  <polygon points="398.1,111.3 396.0,117.7 384.2,128.1 373.3,121.7 367.5,105.8 372.8,92.4 383.0,91.0 396.0,97.5" fill="#3a3a40" opacity="0.31" filter="url(#blur)"/>
  <polygon points="413.2,681.2 395.4,715.0 356.0,734.3 323.2,719.0 313.5,681.0 311.6,633.3 358.8,615.7 402.2,639.9" fill="#4a4a52" opacity="0.45" filter="url(#blur)"/>
  <polygon points="585.8,590.9 553.2,627.2 509.1,627.2 501.9,571.2 551.6,546.8" fill="#4a4a52" opacity="0.50" filter="url(#blur)"/>
  <polygon points="326.7,413.2 317.8,455.7 250.3,473.9 219.5,442.6 225.8,378.9 258.8,347.7 308.5,358.7" fill="#3a3a40" opacity="0.26" filter="url(#blur)"/>
  <polygon points="468.1,-4.6 454.7,59.9 397.8,59.2 363.5,22.5 367.4,-13.4 411.0,-53.3 444.5,-39.9" fill="#cc6c5c" opacity="0.44" filter="url(#blur)"/>
  <polygon points="592.8,104.1 585.8,122.8 571.2,122.1 547.1,117.1 550.1,100.5 557.5,83.9 567.4,75.9 586.6,87.2" fill="#8a8a92" opacity="0.32" filter="url(#blur)"/>
  <polygon points="850.0,129.9 826.6,150.2 795.1,159.8 772.8,152.0 753.9,118.2 767.4,99.9 791.6,77.0 825.1,80.0" fill="#3a3a40" opacity="0.51" filter="url(#blur)"/>
  <polygon points="40.3,878.0 20.3,892.8 -0.8,901.1 -24.6,892.6 -35.2,868.9 -20.8,852.4 -6.2,831.7 30.7,849.3" fill="#4a4a52" opacity="0.54" filter="url(#blur)"/>
  <polygon points="354.7,261.6 335.9,299.2 296.0,314.7 260.4,277.4 259.7,250.6 282.4,213.3 326.6,223.5" fill="#3a3a40" opacity="0.84"/>
  <polygon points="298.2,243.5 292.1,258.0 277.6,256.8 265.5,242.6 275.1,228.6 291.0,231.6" fill="#fff" opacity="0.17"/>
  <polygon points="238.2,338.0 225.6,369.2 200.3,361.9 181.1,346.9 186.8,322.3 201.0,311.9 223.2,314.3" fill="#2a2a30" opacity="0.89"/>
  <polygon points="209.7,330.0 205.2,336.6 199.3,339.1 192.2,335.3 188.8,330.0 192.1,322.7 201.1,319.8 207.1,322.8" fill="#fff" opacity="0.25"/>
  <polygon points="683.4,892.7 666.1,922.9 639.2,931.1 618.1,893.3 639.3,872.9 662.3,869.6" fill="#2a2a30" opacity="0.81"/>
  <polygon points="649.7,889.0 645.5,894.2 637.5,895.6 631.0,890.5 632.8,882.9 640.2,879.9 648.3,880.8" fill="#fff" opacity="0.21"/>
  <polygon points="1077.9,760.3 1044.4,813.2 993.5,801.9 987.4,743.1 1038.1,716.3" fill="#7a7a82" opacity="0.73"/>
  <polygon points="1023.4,749.0 1021.3,759.5 1005.1,768.7 998.6,758.7 990.6,749.8 994.8,736.8 1009.0,726.8 1016.5,735.8" fill="#fff" opacity="0.11"/>
  <polygon points="262.9,189.3 252.5,206.3 224.8,204.1 219.8,188.1 226.5,168.2 244.7,166.3" fill="#4a4a52" opacity="0.89"/>
  <polygon points="237.6,179.7 233.6,184.8 229.1,186.2 224.6,181.8 224.9,176.3 229.7,170.5 235.9,172.7" fill="#fff" opacity="0.23"/>
  <polygon points="848.1,15.0 832.6,46.5 787.9,24.7 785.4,-15.7 829.9,-21.1" fill="#8a8a92" opacity="0.98"/>
  <polygon points="812.1,-2.8 812.1,7.5 800.0,8.2 792.4,4.2 793.8,-6.6 802.7,-10.2 811.1,-9.6" fill="#fff" opacity="0.18"/>
  <polygon points="833.2,477.5 821.9,516.4 772.5,513.7 761.0,472.8 771.4,447.1 811.2,433.0" fill="#7a7a82" opacity="0.85"/>
  <polygon points="792.7,461.7 785.4,474.1 777.3,473.9 768.6,461.6 775.3,454.1 786.6,450.1" fill="#fff" opacity="0.16"/>
  <polygon points="1208.2,142.1 1199.3,161.4 1177.3,178.4 1159.8,156.2 1150.9,124.7 1179.4,117.3 1206.5,121.3" fill="#7a7a82" opacity="0.84"/>
  <polygon points="1180.5,135.1 1175.3,140.6 1162.5,138.9 1164.7,130.3 1174.6,124.6" fill="#fff" opacity="0.17"/>
  <polygon points="635.3,124.2 623.9,150.0 599.4,167.1 570.0,133.8 565.9,107.6 595.9,83.1 623.2,101.1" fill="#4a4a52" opacity="0.99"/>
  <polygon points="602.5,110.1 596.3,118.4 588.7,121.9 579.4,119.5 578.5,105.1 584.9,99.5 595.2,104.2" fill="#fff" opacity="0.21"/>
  <polygon points="859.4,853.4 858.9,905.3 793.9,906.2 747.7,881.4 739.4,812.5 773.4,782.1 849.9,795.0" fill="#cc6c5c" opacity="0.88"/>
  <polygon points="796.3,831.6 787.7,844.9 768.3,843.7 761.0,826.4 771.8,812.4 789.5,809.8" fill="#fff" opacity="0.23"/>
  <polygon points="1117.8,755.9 1064.9,806.2 1003.4,779.6 997.1,718.6 1072.8,679.7" fill="#8a8a92" opacity="0.91"/>
  <polygon points="1049.1,727.3 1043.9,741.2 1025.2,741.0 1016.3,723.6 1024.5,712.9 1039.4,708.3" fill="#fff" opacity="0.16"/>
  <polygon points="1004.8,523.1 993.7,547.3 975.8,541.8 962.8,529.8 973.9,505.2 995.1,509.1" fill="#8a8a92" opacity="0.84"/>
  <polygon points="983.7,518.8 978.6,524.4 974.0,524.4 970.7,518.4 973.8,512.3 979.2,512.8" fill="#fff" opacity="0.21"/>
  <polygon points="1076.1,263.6 1059.9,296.3 1012.6,297.2 998.1,255.6 1013.5,230.1 1056.0,231.4" fill="#cc6c5c" opacity="0.95"/>
  <polygon points="1033.8,246.3 1023.6,258.6 1007.7,254.4 1008.6,238.4 1022.9,232.2" fill="#fff" opacity="0.17"/>
  <polygon points="434.8,259.1 425.1,328.4 384.9,330.0 317.9,324.4 301.6,259.1 315.1,231.1 368.0,217.9 410.7,217.2" fill="#7a7a82" opacity="0.77"/>
  <polygon points="369.6,251.7 358.6,267.6 334.5,260.4 337.4,236.1 355.5,233.0" fill="#fff" opacity="0.13"/>
  <polygon points="1167.1,786.3 1142.3,811.5 1116.8,812.8 1104.1,780.6 1118.4,756.0 1155.4,751.7" fill="#3a3a40" opacity="0.70"/>
  <polygon points="1129.7,772.1 1123.4,781.7 1114.3,777.9 1112.8,766.4 1125.3,762.6" fill="#fff" opacity="0.15"/>
  <polygon points="347.2,66.6 322.1,100.3 281.9,95.7 281.6,50.1 325.6,40.3" fill="#6a6a72" opacity="0.96"/>
  <polygon points="308.3,54.5 304.0,63.4 291.4,65.9 286.1,58.4 293.0,47.0 305.0,46.3" fill="#fff" opacity="0.21"/>
  <polygon points="68.9,829.0 30.1,874.9 -40.3,876.4 -71.2,836.5 -42.8,770.7 31.9,779.9" fill="#cc6c5c" opacity="0.93"/>
  <polygon points="5.6,802.1 -8.1,821.2 -23.8,820.3 -34.4,803.8 -29.2,788.8 -7.9,782.5" fill="#fff" opacity="0.11"/>
  <polygon points="369.0,305.8 344.0,364.6 294.5,381.9 249.4,346.4 241.5,307.6 268.2,271.2 313.8,242.1 337.6,267.6" fill="#6a6a72" opacity="0.81"/>
  <polygon points="299.1,290.3 288.5,304.5 274.4,303.4 261.9,285.1 275.3,270.3 289.8,275.1" fill="#fff" opacity="0.12"/>
  <polygon points="222.8,835.3 208.8,868.0 171.4,891.1 128.3,884.1 115.7,844.8 124.1,802.6 176.2,787.0 198.8,808.7" fill="#4a4a52" opacity="0.90"/>
  <polygon points="170.8,822.8 164.1,833.5 151.6,837.4 142.5,836.3 136.7,821.9 144.4,814.2 156.4,807.1 164.4,809.5" fill="#fff" opacity="0.19"/>
  <polygon points="635.4,504.5 631.5,525.7 602.7,533.3 584.7,517.1 589.7,490.7 609.7,483.4 629.3,481.0" fill="#2a2a30" opacity="0.72"/>
  <polygon points="610.8,496.7 609.0,503.0 600.1,502.4 595.3,495.5 600.8,489.6 607.2,491.0" fill="#fff" opacity="0.16"/>
  <polygon points="595.7,305.1 572.8,361.3 508.9,360.2 493.4,314.5 511.5,265.1 556.4,263.1" fill="#3a3a40" opacity="0.98"/>
  <polygon points="532.8,289.9 527.5,305.7 510.5,303.4 503.2,288.9 512.8,270.9 528.2,273.2" fill="#fff" opacity="0.24"/>
  <polygon points="750.9,49.7 731.7,79.7 712.9,66.6 711.1,35.0 739.6,26.8" fill="#cc6c5c" opacity="0.97"/>
  <polygon points="725.2,44.2 721.9,48.8 715.4,49.1 710.2,44.4 715.3,35.9 721.0,38.0" fill="#fff" opacity="0.20"/>
  <polygon points="1044.0,410.2 1020.1,441.4 984.5,428.2 972.5,410.3 989.1,364.8 1020.0,366.2" fill="#cc6c5c" opacity="0.97"/>
  <polygon points="1000.6,391.2 999.4,400.8 985.0,402.9 979.7,389.3 985.6,379.4 995.8,383.0" fill="#fff" opacity="0.24"/>
  <polygon points="347.4,282.4 338.2,304.3 325.4,305.2 307.1,296.3 302.8,274.1 319.9,255.4 337.3,265.9" fill="#8a8a92" opacity="0.89"/>
  <polygon points="326.2,273.0 321.9,280.1 314.8,281.0 310.3,272.9 313.7,268.9 321.4,267.5" fill="#fff" opacity="0.18"/>
  <polygon points="170.7,164.8 154.4,191.4 109.0,211.3 62.0,177.9 71.6,141.4 101.2,105.2 156.9,118.0" fill="#4a4a52" opacity="0.86"/>
  <polygon points="112.2,133.7 101.6,154.6 82.6,143.6 81.7,128.7 101.7,121.6" fill="#fff" opacity="0.14"/>
  <polygon points="185.7,211.9 166.6,241.3 137.0,242.1 107.9,213.3 130.2,157.3 169.0,159.2" fill="#2a2a30" opacity="0.86"/>
  <polygon points="149.1,192.9 141.9,200.2 129.3,204.4 121.5,200.0 120.8,187.5 131.5,181.4 140.4,182.4" fill="#fff" opacity="0.15"/>
  <polygon points="164.4,815.2 120.2,860.4 56.5,843.1 71.2,784.7 135.3,757.6" fill="#3a3a40" opacity="0.89"/>
  <polygon points="103.5,792.8 101.3,804.9 91.1,811.5 81.8,804.9 77.3,796.1 79.6,784.9 91.9,778.7 101.0,779.1" fill="#fff" opacity="0.18"/>
  <polygon points="60.7,86.6 43.1,118.2 -3.7,153.5 -40.7,131.3 -47.8,98.5 -40.2,55.0 -0.7,29.0 52.8,59.2" fill="#6a6a72" opacity="0.74"/>
  <polygon points="5.2,73.9 -2.4,88.2 -21.3,88.2 -26.8,73.3 -20.4,63.0 -6.9,60.7" fill="#fff" opacity="0.11"/>
  <polygon points="1176.0,93.0 1158.3,114.5 1122.1,126.0 1094.2,94.1 1115.4,62.1 1161.7,56.3" fill="#3a3a40" opacity="0.82"/>
  <polygon points="1135.6,71.1 1130.7,83.0 1116.5,81.9 1110.8,73.2 1117.4,64.8 1130.8,63.9" fill="#fff" opacity="0.11"/>
  <polygon points="804.2,701.5 793.1,718.8 765.6,737.6 735.5,723.4 740.4,704.8 742.8,673.0 772.1,656.9 801.5,670.0" fill="#8a8a92" opacity="0.72"/>
  <polygon points="768.4,687.2 765.0,694.5 753.7,696.5 749.6,691.6 747.2,684.4 754.6,677.8 766.1,679.1" fill="#fff" opacity="0.23"/>
  <polygon points="123.0,818.4 87.8,849.3 57.9,841.0 53.5,797.2 94.3,779.8" fill="#3a3a40" opacity="0.94"/>
  <polygon points="80.8,806.5 74.0,817.0 61.2,811.1 59.3,798.7 72.0,794.3" fill="#fff" opacity="0.24"/>
  <polygon points="403.3,746.6 383.7,767.0 355.4,771.9 340.2,746.6 351.1,727.4 382.3,723.6" fill="#4a4a52" opacity="0.71"/>
  <polygon points="369.6,740.0 367.0,745.0 360.9,746.6 354.3,744.1 350.6,739.2 356.6,733.8 361.1,731.4 367.8,732.7" fill="#fff" opacity="0.11"/>
  <polygon points="805.9,374.9 762.4,405.3 726.8,383.9 725.9,351.2 769.8,333.3" fill="#4a4a52" opacity="0.75"/>
  <polygon points="756.6,354.0 750.9,363.4 744.2,366.0 735.4,361.3 732.9,357.2 736.4,344.4 744.9,344.0 751.3,345.0" fill="#fff" opacity="0.22"/>
  <polygon points="938.5,683.4 910.2,713.0 871.3,698.8 865.0,656.5 911.3,629.0" fill="#8a8a92" opacity="0.76"/>
  <polygon points="901.0,662.1 895.6,673.3 884.5,676.2 877.0,668.0 876.6,659.7 882.6,652.2 893.3,652.2" fill="#fff" opacity="0.10"/>
  <polygon points="862.1,141.5 845.7,180.3 798.0,177.4 791.5,149.4 808.4,113.1 842.0,113.1" fill="#6a6a72" opacity="0.91"/>
  <polygon points="819.4,132.6 816.1,141.1 801.7,140.9 797.1,129.3 804.6,120.6 815.3,122.7" fill="#fff" opacity="0.21"/>
  <polygon points="351.0,339.1 330.6,364.5 310.3,365.5 297.2,340.1 309.1,317.9 339.6,315.7" fill="#7a7a82" opacity="0.88"/>
  <polygon points="320.3,328.3 316.9,334.9 308.5,338.3 303.4,332.2 303.8,327.5 310.8,320.3 318.6,324.1" fill="#fff" opacity="0.22"/>
  <polygon points="1239.8,753.1 1228.4,787.5 1197.6,800.3 1161.6,770.6 1169.6,743.7 1189.7,726.4 1228.4,727.3" fill="#6a6a72" opacity="0.71"/>
  <polygon points="1199.9,744.6 1193.3,757.4 1180.8,757.3 1174.3,748.0 1181.8,738.8 1193.6,738.4" fill="#fff" opacity="0.13"/>
  <polygon points="227.2,138.4 213.2,174.9 174.9,183.9 147.8,152.1 147.7,123.8 166.2,98.2 214.1,115.9" fill="#6a6a72" opacity="0.90"/>
  <polygon points="182.7,129.8 172.0,141.3 161.2,136.6 157.2,121.9 173.7,117.9" fill="#fff" opacity="0.19"/>
  <polygon points="1027.6,546.7 1013.8,563.4 978.2,570.3 966.4,540.2 975.4,516.4 1015.7,508.6" fill="#2a2a30" opacity="0.74"/>
  <polygon points="994.5,531.2 990.1,535.9 983.6,538.0 973.1,532.9 973.5,526.5 982.9,520.6 988.3,522.4" fill="#fff" opacity="0.13"/>
  <polygon points="1207.6,46.1 1195.7,71.2 1174.1,93.3 1125.1,75.0 1126.3,43.3 1134.9,10.9 1168.3,-3.2 1200.5,17.0" fill="#4a4a52" opacity="0.80"/>
  <polygon points="1162.3,28.3 1155.9,37.2 1138.2,36.4 1138.9,20.1 1156.0,14.5" fill="#fff" opacity="0.17"/>
  <polygon points="1192.1,18.9 1176.5,43.7 1129.5,40.1 1133.6,1.2 1170.8,-15.6" fill="#8a8a92" opacity="0.88"/>
  <polygon points="1161.9,3.0 1158.9,12.8 1146.7,16.6 1140.3,8.4 1142.7,2.4 1149.3,-4.2 1159.9,-3.4" fill="#fff" opacity="0.13"/>
  <polygon points="113.5,442.7 95.1,465.8 60.0,484.7 41.4,478.3 15.7,436.0 28.7,418.0 61.9,402.9 88.1,414.7" fill="#3a3a40" opacity="0.94"/>
  <polygon points="61.8,425.1 55.2,438.6 41.1,438.3 37.9,427.0 39.8,414.4 54.7,414.1" fill="#fff" opacity="0.16"/>
  <polygon points="1234.1,238.5 1212.6,293.1 1155.2,314.1 1124.3,279.9 1109.7,255.4 1129.9,193.4 1178.4,190.3 1202.5,207.6" fill="#4a4a52" opacity="0.97"/>
  <polygon points="1165.4,228.1 1156.5,240.4 1142.1,244.2 1131.0,225.3 1140.0,210.0 1158.4,214.1" fill="#fff" opacity="0.17"/>
  <polygon points="326.6,477.4 298.4,510.5 263.7,494.6 262.8,457.9 300.3,441.3" fill="#7a7a82" opacity="0.94"/>
  <polygon points="288.4,469.0 280.5,477.5 271.2,473.5 270.4,463.4 283.8,459.0" fill="#fff" opacity="0.24"/>
  <polygon points="1070.9,490.9 1054.1,508.5 1031.7,516.8 1010.3,499.1 1011.9,479.6 1027.4,463.8 1054.9,463.7" fill="#6a6a72" opacity="0.74"/>
  <polygon points="1034.8,476.2 1032.3,482.8 1024.0,485.1 1016.8,482.7 1018.4,473.6 1022.4,469.6 1030.1,468.2" fill="#fff" opacity="0.10"/>
  <polygon points="430.7,261.8 409.5,300.3 354.7,312.7 334.1,265.0 364.5,212.9 415.4,208.3" fill="#3a3a40" opacity="0.80"/>
  <polygon points="376.0,241.6 373.6,255.1 361.9,261.8 352.8,253.7 345.4,242.4 351.2,227.6 360.7,227.6 375.8,231.4" fill="#fff" opacity="0.20"/>
  <polygon points="95.6,261.4 82.4,295.3 59.5,316.1 26.2,289.5 7.2,263.5 23.2,232.8 62.5,200.2 84.6,221.6" fill="#7a7a82" opacity="0.71"/>
  <polygon points="55.1,238.1 47.8,249.8 39.5,254.4 29.2,254.4 22.0,243.0 27.7,233.5 40.1,224.1 48.1,227.9" fill="#fff" opacity="0.19"/>
  <polygon points="335.7,442.5 330.9,461.2 312.1,471.5 286.7,469.2 279.4,443.1 281.1,425.8 309.2,419.2 332.6,425.4" fill="#cc6c5c" opacity="0.77"/>
  <polygon points="305.4,432.9 304.8,442.2 298.4,443.9 289.9,439.5 288.6,435.3 292.4,429.0 297.3,425.7 303.1,427.9" fill="#fff" opacity="0.15"/>
  <polygon points="132.1,312.3 101.5,362.0 41.9,378.9 14.2,331.2 7.3,298.1 55.7,254.1 95.0,279.4" fill="#3a3a40" opacity="0.93"/>
  <polygon points="60.4,294.8 53.6,311.8 39.7,315.2 28.9,301.4 26.7,287.8 37.2,280.0 53.0,278.0" fill="#fff" opacity="0.22"/>
  <polygon points="541.6,31.6 528.1,79.0 494.8,107.8 446.5,89.7 442.6,47.0 440.8,0.3 498.4,-16.6 528.6,-15.7" fill="#cc6c5c" opacity="0.95"/>
  <polygon points="491.3,16.1 476.5,31.0 453.5,26.8 457.2,7.9 478.5,3.1" fill="#fff" opacity="0.13"/>
  <polygon points="779.5,426.7 752.8,460.4 719.5,450.5 718.6,406.7 758.0,387.4" fill="#8a8a92" opacity="0.92"/>
  <polygon points="740.4,412.1 735.6,423.8 728.0,423.3 720.3,413.1 724.7,403.2 737.9,404.6" fill="#fff" opacity="0.13"/>
  <polygon points="615.6,590.5 593.2,622.5 549.8,643.0 506.6,634.0 491.9,580.0 510.9,538.3 550.7,530.2 596.1,552.4" fill="#6a6a72" opacity="0.71"/>
  <polygon points="552.7,566.4 545.4,580.2 535.8,588.3 523.0,582.1 519.5,564.9 522.4,556.9 534.3,548.7 543.1,554.2" fill="#fff" opacity="0.22"/>
  <polygon points="179.9,185.4 156.4,221.2 131.9,221.7 113.7,203.0 112.3,175.7 130.3,148.7 162.9,166.5" fill="#6a6a72" opacity="0.73"/>
  <polygon points="137.7,176.9 130.1,186.0 117.0,183.2 118.1,170.2 130.5,165.3" fill="#fff" opacity="0.10"/>
  <polygon points="996.1,632.4 966.7,659.4 935.8,642.4 927.7,612.5 969.2,601.6" fill="#4a4a52" opacity="0.85"/>
  <polygon points="956.4,618.3 954.5,622.6 948.2,627.3 938.9,625.3 936.9,618.4 940.1,610.6 946.0,607.9 955.9,610.0" fill="#fff" opacity="0.11"/>
  <polygon points="882.2,793.1 873.9,830.6 825.7,854.9 768.9,842.5 760.9,795.0 770.9,753.7 810.9,723.2 869.0,749.4" fill="#6a6a72" opacity="0.77"/>
  <polygon points="811.7,766.1 805.7,783.0 791.1,786.9 781.9,783.4 771.1,767.9 778.6,754.7 796.6,748.2 807.1,747.3" fill="#fff" opacity="0.23"/>
  <polygon points="1132.3,679.0 1108.7,712.9 1076.8,692.9 1074.3,669.4 1111.5,650.2" fill="#8a8a92" opacity="0.84"/>
  <polygon points="1097.5,672.4 1091.6,678.1 1080.6,676.9 1082.3,666.5 1091.3,662.6" fill="#fff" opacity="0.16"/>
  <polygon points="137.1,696.8 117.6,723.5 85.7,727.5 59.8,687.4 83.1,653.6 123.9,662.0" fill="#6a6a72" opacity="0.96"/>
  <polygon points="101.5,677.8 95.9,684.3 89.3,686.5 82.1,683.5 79.4,678.3 80.6,670.0 90.5,665.5 97.2,670.8" fill="#fff" opacity="0.10"/>
  <polygon points="500.1,183.1 476.2,209.8 450.2,203.9 451.6,179.1 477.6,168.7" fill="#4a4a52" opacity="0.76"/>
  <polygon points="470.1,178.4 468.4,186.7 462.9,186.7 456.7,185.1 454.9,179.2 456.3,172.5 460.9,170.7 468.1,175.8" fill="#fff" opacity="0.16"/>
  <polygon points="902.7,572.2 892.5,593.2 870.8,600.7 847.7,579.6 854.8,556.6 870.1,536.5 894.0,540.7" fill="#7a7a82" opacity="0.76"/>
  <polygon points="878.0,556.5 872.9,565.5 863.5,564.5 858.5,558.5 864.9,549.4 871.0,550.7" fill="#fff" opacity="0.14"/>
  <polygon points="273.0,69.2 236.1,110.2 193.5,85.3 190.2,37.0 234.0,26.8" fill="#2a2a30" opacity="0.79"/>
  <polygon points="224.3,47.3 221.7,57.9 210.6,61.3 205.2,57.1 199.5,46.5 202.9,40.4 214.6,33.8 219.8,36.8" fill="#fff" opacity="0.24"/>
  <rect width="1200" height="900" fill="url(#vignette)" opacity="0.25"/>
  <g font-family="Inter, Helvetica, Arial, sans-serif" text-anchor="middle"><text x="600" y="870" font-size="14" fill="#fff" opacity="0.45" letter-spacing="2">ЩЕБЕНЬ ГРАНИТНЫЙ · МАКРО</text></g>
</svg>